ChocolateClassicalSans-Regular.ufo
<glyph name="period" format="2">
  <advance width="278" height="1000"/>
  <unicode hex="002E"/>
  <outline>
    <contour>
      <point x="139" y="-13" type="curve"/>
      <point x="175" y="-13"/>
      <point x="205" y="15"/>
      <point x="205" y="56" type="curve"/>
      <point x="205" y="98"/>
      <point x="175" y="126"/>
      <point x="139" y="126" type="curve"/>
      <point x="102" y="126"/>
      <point x="73" y="98"/>
      <point x="73" y="56" type="curve"/>
      <point x="73" y="15"/>
      <point x="102" y="-13"/>
    </contour>
  </outline>
</glyph>
<glyph name="three" format="2">
  <advance width="555" height="1000"/>
  <unicode hex="0033"/>
  <outline>
    <contour>
      <point x="263" y="-13" type="curve"/>
      <point x="394" y="-13"/>
      <point x="499" y="65"/>
      <point x="499" y="196" type="curve"/>
      <point x="499" y="297"/>
      <point x="430" y="361"/>
      <point x="344" y="382" type="curve"/>
      <point x="344" y="387" type="line"/>
      <point x="422" y="414"/>
      <point x="474" y="474"/>
      <point x="474" y="563" type="curve"/>
      <point x="474" y="679"/>
      <point x="384" y="746"/>
      <point x="260" y="746" type="curve"/>
      <point x="176" y="746"/>
      <point x="111" y="709"/>
      <point x="56" y="659" type="curve"/>
      <point x="105" y="601" type="line"/>
      <point x="147" y="643"/>
      <point x="198" y="672"/>
      <point x="257" y="672" type="curve"/>
      <point x="334" y="672"/>
      <point x="381" y="626"/>
      <point x="381" y="556" type="curve"/>
      <point x="381" y="477"/>
      <point x="330" y="416"/>
      <point x="178" y="416" type="curve"/>
      <point x="178" y="346" type="line"/>
      <point x="348" y="346"/>
      <point x="406" y="288"/>
      <point x="406" y="199" type="curve"/>
      <point x="406" y="115"/>
      <point x="345" y="63"/>
      <point x="257" y="63" type="curve"/>
      <point x="174" y="63"/>
      <point x="119" y="103"/>
      <point x="76" y="147" type="curve"/>
      <point x="29" y="88" type="line"/>
      <point x="77" y="35"/>
      <point x="149" y="-13"/>
    </contour>
  </outline>
</glyph>
<glyph name="nine" format="2">
  <advance width="555" height="1000"/>
  <unicode hex="0039"/>
  <outline>
    <contour>
      <point x="235" y="-13" type="curve"/>
      <point x="372" y="-13"/>
      <point x="501" y="101"/>
      <point x="501" y="398" type="curve"/>
      <point x="501" y="631"/>
      <point x="395" y="746"/>
      <point x="254" y="746" type="curve"/>
      <point x="140" y="746"/>
      <point x="44" y="651"/>
      <point x="44" y="508" type="curve"/>
      <point x="44" y="357"/>
      <point x="124" y="278"/>
      <point x="246" y="278" type="curve"/>
      <point x="307" y="278"/>
      <point x="370" y="313"/>
      <point x="415" y="367" type="curve"/>
      <point x="408" y="140"/>
      <point x="326" y="63"/>
      <point x="232" y="63" type="curve"/>
      <point x="184" y="63"/>
      <point x="140" y="84"/>
      <point x="108" y="119" type="curve"/>
      <point x="58" y="62" type="line"/>
      <point x="99" y="19"/>
      <point x="155" y="-13"/>
    </contour>
    <contour>
      <point x="414" y="444" type="curve"/>
      <point x="365" y="374"/>
      <point x="310" y="346"/>
      <point x="261" y="346" type="curve"/>
      <point x="174" y="346"/>
      <point x="130" y="410"/>
      <point x="130" y="508" type="curve"/>
      <point x="130" y="609"/>
      <point x="184" y="675"/>
      <point x="255" y="675" type="curve"/>
      <point x="348" y="675"/>
      <point x="404" y="595"/>
    </contour>
  </outline>
</glyph>
<glyph name="J" format="2">
  <advance width="535" height="1000"/>
  <unicode hex="004A"/>
  <outline>
    <contour>
      <point x="237" y="-13" type="curve"/>
      <point x="380" y="-13"/>
      <point x="439" y="88"/>
      <point x="439" y="215" type="curve"/>
      <point x="439" y="733" type="line"/>
      <point x="346" y="733" type="line"/>
      <point x="346" y="224" type="line"/>
      <point x="346" y="113"/>
      <point x="307" y="68"/>
      <point x="228" y="68" type="curve"/>
      <point x="175" y="68"/>
      <point x="134" y="92"/>
      <point x="101" y="151" type="curve"/>
      <point x="35" y="103" type="line"/>
      <point x="78" y="27"/>
      <point x="144" y="-13"/>
    </contour>
  </outline>
</glyph>
<glyph name="K" format="2">
  <advance width="646" height="1000"/>
  <unicode hex="004B"/>
  <outline>
    <contour>
      <point x="101" y="0" type="line"/>
      <point x="193" y="0" type="line"/>
      <point x="193" y="232" type="line"/>
      <point x="319" y="382" type="line"/>
      <point x="539" y="0" type="line"/>
      <point x="642" y="0" type="line"/>
      <point x="377" y="455" type="line"/>
      <point x="607" y="733" type="line"/>
      <point x="502" y="733" type="line"/>
      <point x="195" y="365" type="line"/>
      <point x="193" y="365" type="line"/>
      <point x="193" y="733" type="line"/>
      <point x="101" y="733" type="line"/>
    </contour>
  </outline>
</glyph>
<glyph name="bracketleft" format="2">
  <advance width="338" height="1000"/>
  <unicode hex="005B"/>
  <outline>
    <contour>
      <point x="106" y="-170" type="line"/>
      <point x="304" y="-170" type="line"/>
      <point x="304" y="-118" type="line"/>
      <point x="174" y="-118" type="line"/>
      <point x="174" y="739" type="line"/>
      <point x="304" y="739" type="line"/>
      <point x="304" y="792" type="line"/>
      <point x="106" y="792" type="line"/>
    </contour>
  </outline>
</glyph>
<glyph name="f" format="2">
  <advance width="325" height="1000"/>
  <unicode hex="0066"/>
  <outline>
    <contour>
      <point x="33" y="469" type="line"/>
      <point x="107" y="469" type="line"/>
      <point x="107" y="0" type="line"/>
      <point x="198" y="0" type="line"/>
      <point x="198" y="469" type="line"/>
      <point x="313" y="469" type="line"/>
      <point x="313" y="543" type="line"/>
      <point x="198" y="543" type="line"/>
      <point x="198" y="629" type="line"/>
      <point x="198" y="699"/>
      <point x="223" y="736"/>
      <point x="275" y="736" type="curve"/>
      <point x="294" y="736"/>
      <point x="316" y="731"/>
      <point x="336" y="721" type="curve"/>
      <point x="356" y="792" type="line"/>
      <point x="331" y="802"/>
      <point x="299" y="809"/>
      <point x="265" y="809" type="curve"/>
      <point x="157" y="809"/>
      <point x="107" y="740"/>
      <point x="107" y="630" type="curve"/>
      <point x="107" y="543" type="line"/>
      <point x="33" y="538" type="line"/>
    </contour>
  </outline>
</glyph>
<glyph name="l" format="2">
  <advance width="284" height="1000"/>
  <unicode hex="006C"/>
  <outline>
    <contour>
      <point x="188" y="-13" type="curve"/>
      <point x="213" y="-13"/>
      <point x="228" y="-9"/>
      <point x="241" y="-5" type="curve"/>
      <point x="228" y="65" type="line"/>
      <point x="218" y="63"/>
      <point x="214" y="63"/>
      <point x="209" y="63" type="curve"/>
      <point x="195" y="63"/>
      <point x="184" y="74"/>
      <point x="184" y="102" type="curve"/>
      <point x="184" y="796" type="line"/>
      <point x="92" y="796" type="line"/>
      <point x="92" y="108" type="line"/>
      <point x="92" y="31"/>
      <point x="120" y="-13"/>
    </contour>
  </outline>
</glyph>
<glyph name="Ccedilla" format="2">
  <advance width="638" height="1000"/>
  <unicode hex="00C7"/>
  <outline>
    <contour>
      <point x="287" y="-253" type="line"/>
      <point x="404" y="-247"/>
      <point x="470" y="-215"/>
      <point x="470" y="-150" type="curve"/>
      <point x="470" y="-105"/>
      <point x="439" y="-84"/>
      <point x="389" y="-71" type="curve"/>
      <point x="416" y="-11" type="line"/>
      <point x="492" y="-2"/>
      <point x="552" y="34"/>
      <point x="602" y="92" type="curve"/>
      <point x="551" y="151" type="line"/>
      <point x="504" y="99"/>
      <point x="451" y="68"/>
      <point x="381" y="68" type="curve"/>
      <point x="241" y="68"/>
      <point x="153" y="184"/>
      <point x="153" y="369" type="curve"/>
      <point x="153" y="552"/>
      <point x="246" y="665"/>
      <point x="384" y="665" type="curve"/>
      <point x="447" y="665"/>
      <point x="495" y="637"/>
      <point x="534" y="596" type="curve"/>
      <point x="584" y="656" type="line"/>
      <point x="542" y="703"/>
      <point x="472" y="746"/>
      <point x="383" y="746" type="curve"/>
      <point x="197" y="746"/>
      <point x="58" y="603"/>
      <point x="58" y="366" type="curve"/>
      <point x="58" y="138"/>
      <point x="183" y="-1"/>
      <point x="355" y="-12" type="curve"/>
      <point x="313" y="-98" type="line"/>
      <point x="377" y="-108"/>
      <point x="400" y="-124"/>
      <point x="400" y="-152" type="curve"/>
      <point x="400" y="-185"/>
      <point x="372" y="-201"/>
      <point x="278" y="-207" type="curve"/>
    </contour>
  </outline>
</glyph>
<glyph name="Egrave" format="2">
  <advance width="589" height="1000"/>
  <unicode hex="00C8"/>
  <outline>
    <contour>
      <point x="101" y="0" type="line"/>
      <point x="534" y="0" type="line"/>
      <point x="534" y="79" type="line"/>
      <point x="193" y="79" type="line"/>
      <point x="193" y="346" type="line"/>
      <point x="471" y="346" type="line"/>
      <point x="471" y="425" type="line"/>
      <point x="193" y="425" type="line"/>
      <point x="193" y="655" type="line"/>
      <point x="523" y="655" type="line"/>
      <point x="523" y="733" type="line"/>
      <point x="101" y="733" type="line"/>
    </contour>
    <contour>
      <point x="343" y="779" type="line"/>
      <point x="384" y="825" type="line"/>
      <point x="226" y="970" type="line"/>
      <point x="174" y="907" type="line"/>
    </contour>
  </outline>
</glyph>
<glyph name="Ugrave" format="2">
  <advance width="721" height="1000"/>
  <unicode hex="00D9"/>
  <outline>
    <contour>
      <point x="361" y="-13" type="curve"/>
      <point x="510" y="-13"/>
      <point x="624" y="67"/>
      <point x="624" y="302" type="curve"/>
      <point x="624" y="733" type="line"/>
      <point x="535" y="733" type="line"/>
      <point x="535" y="300" type="line"/>
      <point x="535" y="124"/>
      <point x="458" y="68"/>
      <point x="361" y="68" type="curve"/>
      <point x="265" y="68"/>
      <point x="190" y="124"/>
      <point x="190" y="300" type="curve"/>
      <point x="190" y="733" type="line"/>
      <point x="98" y="733" type="line"/>
      <point x="98" y="302" type="line"/>
      <point x="98" y="67"/>
      <point x="211" y="-13"/>
    </contour>
    <contour>
      <point x="379" y="779" type="line"/>
      <point x="419" y="825" type="line"/>
      <point x="262" y="970" type="line"/>
      <point x="209" y="907" type="line"/>
    </contour>
  </outline>
</glyph>
<glyph name="germandbls" format="2">
  <advance width="643" height="1000"/>
  <unicode hex="00DF"/>
  <outline>
    <contour>
      <point x="433" y="-13" type="curve"/>
      <point x="542" y="-13"/>
      <point x="611" y="59"/>
      <point x="611" y="152" type="curve"/>
      <point x="611" y="334"/>
      <point x="390" y="309"/>
      <point x="390" y="418" type="curve"/>
      <point x="390" y="495"/>
      <point x="492" y="532"/>
      <point x="492" y="644" type="curve"/>
      <point x="492" y="733"/>
      <point x="427" y="807"/>
      <point x="310" y="807" type="curve"/>
      <point x="171" y="807"/>
      <point x="92" y="716"/>
      <point x="92" y="576" type="curve"/>
      <point x="92" y="0" type="line"/>
      <point x="182" y="0" type="line"/>
      <point x="182" y="559" type="line"/>
      <point x="182" y="675"/>
      <point x="230" y="733"/>
      <point x="309" y="733" type="curve"/>
      <point x="370" y="733"/>
      <point x="403" y="692"/>
      <point x="403" y="635" type="curve"/>
      <point x="403" y="541"/>
      <point x="304" y="508"/>
      <point x="304" y="408" type="curve"/>
      <point x="304" y="251"/>
      <point x="525" y="278"/>
      <point x="525" y="148" type="curve"/>
      <point x="525" y="100"/>
      <point x="492" y="58"/>
      <point x="429" y="58" type="curve"/>
      <point x="388" y="58"/>
      <point x="351" y="73"/>
      <point x="311" y="106" type="curve"/>
      <point x="275" y="42" type="line"/>
      <point x="320" y="7"/>
      <point x="371" y="-13"/>
    </contour>
  </outline>
</glyph>
<glyph name="Imacron" format="2">
  <advance width="293" height="1000"/>
  <unicode hex="012A"/>
  <outline>
    <contour>
      <point x="101" y="0" type="line"/>
      <point x="193" y="0" type="line"/>
      <point x="193" y="733" type="line"/>
      <point x="101" y="733" type="line"/>
    </contour>
    <contour>
      <point x="-2" y="822" type="line"/>
      <point x="297" y="822" type="line"/>
      <point x="297" y="885" type="line"/>
      <point x="-2" y="885" type="line"/>
    </contour>
  </outline>
</glyph>
<glyph name="Ubreve" format="2">
  <advance width="721" height="1000"/>
  <unicode hex="016C"/>
  <outline>
    <contour>
      <point x="361" y="-13" type="curve"/>
      <point x="510" y="-13"/>
      <point x="624" y="67"/>
      <point x="624" y="302" type="curve"/>
      <point x="624" y="733" type="line"/>
      <point x="535" y="733" type="line"/>
      <point x="535" y="300" type="line"/>
      <point x="535" y="124"/>
      <point x="458" y="68"/>
      <point x="361" y="68" type="curve"/>
      <point x="265" y="68"/>
      <point x="190" y="124"/>
      <point x="190" y="300" type="curve"/>
      <point x="190" y="733" type="line"/>
      <point x="98" y="733" type="line"/>
      <point x="98" y="302" type="line"/>
      <point x="98" y="67"/>
      <point x="211" y="-13"/>
    </contour>
    <contour>
      <point x="360" y="788" type="curve"/>
      <point x="463" y="788"/>
      <point x="514" y="854"/>
      <point x="523" y="932" type="curve"/>
      <point x="467" y="942" type="line"/>
      <point x="458" y="889"/>
      <point x="423" y="847"/>
      <point x="360" y="847" type="curve"/>
      <point x="296" y="847"/>
      <point x="262" y="889"/>
      <point x="253" y="942" type="curve"/>
      <point x="197" y="932" type="line"/>
      <point x="206" y="854"/>
      <point x="257" y="788"/>
    </contour>
  </outline>
</glyph>
<glyph name="Ucaron" format="2">
  <advance width="721" height="1000"/>
  <unicode hex="01D3"/>
  <outline>
    <contour>
      <point x="361" y="-13" type="curve"/>
      <point x="510" y="-13"/>
      <point x="624" y="67"/>
      <point x="624" y="302" type="curve"/>
      <point x="624" y="733" type="line"/>
      <point x="535" y="733" type="line"/>
      <point x="535" y="300" type="line"/>
      <point x="535" y="124"/>
      <point x="458" y="68"/>
      <point x="361" y="68" type="curve"/>
      <point x="265" y="68"/>
      <point x="190" y="124"/>
      <point x="190" y="300" type="curve"/>
      <point x="190" y="733" type="line"/>
      <point x="98" y="733" type="line"/>
      <point x="98" y="302" type="line"/>
      <point x="98" y="67"/>
      <point x="211" y="-13"/>
    </contour>
    <contour>
      <point x="311" y="789" type="line"/>
      <point x="408" y="789" type="line"/>
      <point x="525" y="915" type="line"/>
      <point x="484" y="944" type="line"/>
      <point x="363" y="841" type="line"/>
      <point x="358" y="841" type="line"/>
      <point x="235" y="944" type="line"/>
      <point x="195" y="915" type="line"/>
    </contour>
  </outline>
</glyph>
<glyph name="commaturnedmod" format="2">
  <advance width="278" height="1000"/>
  <unicode hex="02BB"/>
  <outline>
    <contour>
      <point x="134" y="480" type="curve"/>
      <point x="168" y="480"/>
      <point x="192" y="502"/>
      <point x="192" y="541" type="curve"/>
      <point x="192" y="577"/>
      <point x="164" y="597"/>
      <point x="134" y="597" type="curve"/>
      <point x="124" y="596" type="line"/>
      <point x="125" y="660"/>
      <point x="153" y="698"/>
      <point x="208" y="735" type="curve"/>
      <point x="182" y="778" type="line"/>
      <point x="105" y="733"/>
      <point x="63" y="669"/>
      <point x="63" y="581" type="curve"/>
      <point x="63" y="516"/>
      <point x="89" y="480"/>
    </contour>
  </outline>
</glyph>
<glyph name="macroncomb" format="2">
  <advance width="0" height="1000"/>
  <unicode hex="0304"/>
  <outline>
    <contour>
      <point x="-148" y="671" type="line"/>
      <point x="148" y="671" type="line"/>
      <point x="148" y="736" type="line"/>
      <point x="-148" y="736" type="line"/>
    </contour>
  </outline>
</glyph>
<glyph name="dotaccentcomb" format="2">
  <advance width="0" height="1000"/>
  <unicode hex="0307"/>
  <anchor x="0" y="0" name="Anchor_1"/>
  <outline>
    <contour>
      <point x="301" y="658" type="curve"/>
      <point x="245" y="658"/>
      <point x="208" y="701"/>
      <point x="207" y="749" type="curve"/>
      <point x="207" y="798"/>
      <point x="243" y="846"/>
      <point x="300" y="846" type="curve"/>
      <point x="358" y="845"/>
      <point x="393" y="799"/>
      <point x="393" y="749" type="curve"/>
      <point x="393" y="700"/>
      <point x="358" y="658"/>
    </contour>
  </outline>
</glyph>
<glyph name="Lamda-grek" format="2">
  <advance width="575" height="1000"/>
  <unicode hex="039B"/>
  <outline>
    <contour>
      <point x="1" y="0" type="line"/>
      <point x="94" y="0" type="line"/>
      <point x="212" y="397" type="line"/>
      <point x="237" y="483"/>
      <point x="256" y="553"/>
      <point x="283" y="640" type="curve"/>
      <point x="288" y="640" type="line"/>
      <point x="315" y="553"/>
      <point x="333" y="483"/>
      <point x="358" y="397" type="curve"/>
      <point x="477" y="0" type="line"/>
      <point x="575" y="0" type="line"/>
      <point x="341" y="733" type="line"/>
      <point x="233" y="733" type="line"/>
    </contour>
  </outline>
</glyph>
<glyph name="Sigma-grek" format="2">
  <advance width="601" height="1000"/>
  <unicode hex="03A3"/>
  <outline>
    <contour>
      <point x="49" y="0" type="line"/>
      <point x="560" y="0" type="line"/>
      <point x="560" y="79" type="line"/>
      <point x="167" y="79" type="line"/>
      <point x="396" y="374" type="line"/>
      <point x="171" y="655" type="line"/>
      <point x="526" y="655" type="line"/>
      <point x="526" y="733" type="line"/>
      <point x="54" y="733" type="line"/>
      <point x="54" y="678" type="line"/>
      <point x="301" y="372" type="line"/>
      <point x="49" y="56" type="line"/>
    </contour>
  </outline>
</glyph>
<glyph name="Phi-grek" format="2">
  <advance width="803" height="1000"/>
  <unicode hex="03A6"/>
  <outline>
    <contour>
      <point x="360" y="-24" type="line"/>
      <point x="443" y="-24" type="line"/>
      <point x="443" y="81" type="line"/>
      <point x="628" y="89"/>
      <point x="750" y="196"/>
      <point x="750" y="369" type="curve"/>
      <point x="750" y="543"/>
      <point x="628" y="647"/>
      <point x="443" y="655" type="curve"/>
      <point x="443" y="758" type="line"/>
      <point x="360" y="758" type="line"/>
      <point x="360" y="655" type="line"/>
      <point x="175" y="647"/>
      <point x="54" y="543"/>
      <point x="54" y="369" type="curve"/>
      <point x="54" y="196"/>
      <point x="175" y="89"/>
      <point x="360" y="81" type="curve"/>
    </contour>
    <contour>
      <point x="360" y="153" type="line"/>
      <point x="228" y="160"/>
      <point x="143" y="245"/>
      <point x="143" y="369" type="curve"/>
      <point x="143" y="494"/>
      <point x="228" y="575"/>
      <point x="360" y="582" type="curve"/>
    </contour>
    <contour>
      <point x="443" y="582" type="line"/>
      <point x="576" y="575"/>
      <point x="660" y="494"/>
      <point x="660" y="369" type="curve"/>
      <point x="660" y="245"/>
      <point x="576" y="160"/>
      <point x="443" y="153" type="curve"/>
    </contour>
  </outline>
</glyph>
<glyph name="Omega-grek" format="2">
  <advance width="758" height="1000"/>
  <unicode hex="03A9"/>
  <outline>
    <contour>
      <point x="51" y="0" type="line"/>
      <point x="310" y="0" type="line"/>
      <point x="310" y="67" type="line"/>
      <point x="227" y="133"/>
      <point x="161" y="232"/>
      <point x="161" y="387" type="curve"/>
      <point x="161" y="546"/>
      <point x="242" y="665"/>
      <point x="379" y="665" type="curve"/>
      <point x="516" y="665"/>
      <point x="597" y="546"/>
      <point x="597" y="387" type="curve"/>
      <point x="597" y="232"/>
      <point x="532" y="133"/>
      <point x="447" y="67" type="curve"/>
      <point x="447" y="0" type="line"/>
      <point x="708" y="0" type="line"/>
      <point x="708" y="76" type="line"/>
      <point x="561" y="76" type="line"/>
      <point x="561" y="80" type="line"/>
      <point x="625" y="143"/>
      <point x="692" y="244"/>
      <point x="692" y="392" type="curve"/>
      <point x="692" y="598"/>
      <point x="568" y="746"/>
      <point x="379" y="746" type="curve"/>
      <point x="189" y="746"/>
      <point x="66" y="598"/>
      <point x="66" y="392" type="curve"/>
      <point x="66" y="244"/>
      <point x="134" y="143"/>
      <point x="197" y="80" type="curve"/>
      <point x="197" y="76" type="line"/>
      <point x="51" y="76" type="line"/>
    </contour>
  </outline>
</glyph>
<glyph name="beta-grek" format="2">
  <advance width="631" height="1000"/>
  <unicode hex="03B2"/>
  <outline>
    <contour>
      <point x="89" y="-200" type="line"/>
      <point x="181" y="-200" type="line"/>
      <point x="179" y="-108"/>
      <point x="178" y="-22"/>
      <point x="175" y="70" type="curve"/>
      <point x="231" y="8"/>
      <point x="301" y="-13"/>
      <point x="369" y="-13" type="curve"/>
      <point x="479" y="-13"/>
      <point x="582" y="70"/>
      <point x="582" y="216" type="curve"/>
      <point x="582" y="330"/>
      <point x="515" y="411"/>
      <point x="408" y="426" type="curve"/>
      <point x="408" y="431" type="line"/>
      <point x="476" y="473"/>
      <point x="516" y="536"/>
      <point x="516" y="617" type="curve"/>
      <point x="516" y="747"/>
      <point x="417" y="809"/>
      <point x="312" y="809" type="curve"/>
      <point x="160" y="809"/>
      <point x="89" y="699"/>
      <point x="89" y="549" type="curve"/>
    </contour>
    <contour>
      <point x="348" y="64" type="curve"/>
      <point x="291" y="64"/>
      <point x="228" y="81"/>
      <point x="175" y="147" type="curve"/>
      <point x="175" y="279"/>
      <point x="176" y="407"/>
      <point x="178" y="537" type="curve"/>
      <point x="179" y="666"/>
      <point x="229" y="736"/>
      <point x="314" y="736" type="curve"/>
      <point x="374" y="736"/>
      <point x="427" y="694"/>
      <point x="427" y="610" type="curve"/>
      <point x="427" y="538"/>
      <point x="383" y="460"/>
      <point x="268" y="437" type="curve"/>
      <point x="282" y="366" type="line"/>
      <point x="300" y="372"/>
      <point x="319" y="374"/>
      <point x="338" y="374" type="curve"/>
      <point x="441" y="374"/>
      <point x="491" y="308"/>
      <point x="491" y="221" type="curve"/>
      <point x="491" y="121"/>
      <point x="427" y="64"/>
    </contour>
  </outline>
</glyph>
<glyph name="epsilon-grek" format="2">
  <advance width="501" height="1000"/>
  <unicode hex="03B5"/>
  <outline>
    <contour>
      <point x="281" y="-13" type="curve"/>
      <point x="357" y="-13"/>
      <point x="413" y="4"/>
      <point x="479" y="54" type="curve"/>
      <point x="439" y="115" type="line"/>
      <point x="388" y="74"/>
      <point x="343" y="60"/>
      <point x="290" y="60" type="curve"/>
      <point x="198" y="60"/>
      <point x="143" y="97"/>
      <point x="143" y="158" type="curve"/>
      <point x="143" y="218"/>
      <point x="187" y="250"/>
      <point x="277" y="250" type="curve"/>
      <point x="304" y="250"/>
      <point x="330" y="249"/>
      <point x="362" y="247" type="curve"/>
      <point x="362" y="318" type="line"/>
      <point x="335" y="316"/>
      <point x="315" y="315"/>
      <point x="293" y="315" type="curve"/>
      <point x="206" y="315"/>
      <point x="169" y="350"/>
      <point x="169" y="399" type="curve"/>
      <point x="169" y="455"/>
      <point x="221" y="484"/>
      <point x="288" y="484" type="curve"/>
      <point x="338" y="484"/>
      <point x="382" y="467"/>
      <point x="424" y="436" type="curve"/>
      <point x="461" y="498" type="line"/>
      <point x="411" y="534"/>
      <point x="351" y="557"/>
      <point x="285" y="557" type="curve"/>
      <point x="174" y="557"/>
      <point x="78" y="509"/>
      <point x="78" y="410" type="curve"/>
      <point x="78" y="359"/>
      <point x="108" y="310"/>
      <point x="164" y="289" type="curve"/>
      <point x="164" y="284" type="line"/>
      <point x="102" y="269"/>
      <point x="52" y="227"/>
      <point x="52" y="150" type="curve"/>
      <point x="52" y="49"/>
      <point x="146" y="-13"/>
    </contour>
  </outline>
</glyph>
<glyph name="iota-grek" format="2">
  <advance width="292" height="1000"/>
  <unicode hex="03B9"/>
  <outline>
    <contour>
      <point x="195" y="-13" type="curve"/>
      <point x="226" y="-13"/>
      <point x="245" y="-7"/>
      <point x="260" y="0" type="curve"/>
      <point x="248" y="69" type="line"/>
      <point x="236" y="65"/>
      <point x="225" y="63"/>
      <point x="215" y="63" type="curve"/>
      <point x="192" y="63"/>
      <point x="177" y="75"/>
      <point x="177" y="106" type="curve"/>
      <point x="177" y="237"/>
      <point x="182" y="396"/>
      <point x="184" y="543" type="curve"/>
      <point x="92" y="543" type="line"/>
      <point x="92" y="112" type="line"/>
      <point x="92" y="32"/>
      <point x="121" y="-13"/>
    </contour>
  </outline>
</glyph>
<glyph name="nu-grek" format="2">
  <advance width="528" height="1000"/>
  <unicode hex="03BD"/>
  <outline>
    <contour>
      <point x="216" y="0" type="curve"/>
      <point x="306" y="0" type="line"/>
      <point x="416" y="191"/>
      <point x="478" y="354"/>
      <point x="506" y="543" type="curve"/>
      <point x="415" y="543" type="line"/>
      <point x="402" y="396"/>
      <point x="345" y="233"/>
      <point x="279" y="93" type="curve"/>
      <point x="274" y="93" type="line"/>
      <point x="244" y="241"/>
      <point x="173" y="439"/>
      <point x="98" y="557" type="curve"/>
      <point x="7" y="533" type="line"/>
      <point x="100" y="394"/>
      <point x="176" y="199"/>
    </contour>
  </outline>
</glyph>
<glyph name="Ghe-cyrl" format="2">
  <advance width="557" height="1000"/>
  <unicode hex="0413"/>
  <outline>
    <contour>
      <point x="101" y="0" type="line"/>
      <point x="193" y="0" type="line"/>
      <point x="193" y="655" type="line"/>
      <point x="523" y="655" type="line"/>
      <point x="523" y="733" type="line"/>
      <point x="101" y="733" type="line"/>
    </contour>
  </outline>
</glyph>
<glyph name="Ie-cyrl" format="2">
  <advance width="589" height="1000"/>
  <unicode hex="0415"/>
  <outline>
    <contour>
      <point x="101" y="0" type="line"/>
      <point x="534" y="0" type="line"/>
      <point x="534" y="79" type="line"/>
      <point x="193" y="79" type="line"/>
      <point x="193" y="346" type="line"/>
      <point x="471" y="346" type="line"/>
      <point x="471" y="425" type="line"/>
      <point x="193" y="425" type="line"/>
      <point x="193" y="655" type="line"/>
      <point x="523" y="655" type="line"/>
      <point x="523" y="733" type="line"/>
      <point x="101" y="733" type="line"/>
    </contour>
  </outline>
</glyph>
<glyph name="de-cyrl" format="2">
  <advance width="594" height="1000"/>
  <unicode hex="0434"/>
  <outline>
    <contour>
      <point x="110" y="0" type="line"/>
      <point x="481" y="0" type="line"/>
      <point x="481" y="-192" type="line"/>
      <point x="560" y="-192" type="line"/>
      <point x="569" y="17" type="line"/>
      <point x="569" y="74" type="line"/>
      <point x="490" y="74" type="line"/>
      <point x="490" y="543" type="line"/>
      <point x="154" y="543" type="line"/>
      <point x="125" y="302" type="line"/>
      <point x="103" y="127"/>
      <point x="79" y="91"/>
      <point x="48" y="74" type="curve"/>
      <point x="22" y="74" type="line"/>
      <point x="22" y="17" type="line"/>
      <point x="31" y="-192" type="line"/>
      <point x="110" y="-192" type="line"/>
    </contour>
    <contour>
      <point x="145" y="74" type="line"/>
      <point x="171" y="112"/>
      <point x="193" y="177"/>
      <point x="205" y="285" type="curve"/>
      <point x="226" y="469" type="line"/>
      <point x="399" y="469" type="line"/>
      <point x="399" y="74" type="line"/>
    </contour>
  </outline>
</glyph>
<glyph name="che-cyrl" format="2">
  <advance width="572" height="1000"/>
  <unicode hex="0447"/>
  <outline>
    <contour>
      <point x="389" y="0" type="line"/>
      <point x="480" y="0" type="line"/>
      <point x="480" y="543" type="line"/>
      <point x="389" y="543" type="line"/>
      <point x="389" y="290" type="line"/>
      <point x="357" y="283"/>
      <point x="333" y="280"/>
      <point x="301" y="280" type="curve"/>
      <point x="201" y="280"/>
      <point x="157" y="314"/>
      <point x="157" y="394" type="curve"/>
      <point x="157" y="543" type="line"/>
      <point x="67" y="543" type="line"/>
      <point x="67" y="394" type="line"/>
      <point x="67" y="260"/>
      <point x="145" y="205"/>
      <point x="282" y="205" type="curve"/>
      <point x="332" y="205"/>
      <point x="351" y="209"/>
      <point x="389" y="216" type="curve"/>
    </contour>
  </outline>
</glyph>
<glyph name="Ecircumflexhookabove" format="2">
  <advance width="589" height="1000"/>
  <unicode hex="1EC2"/>
  <outline>
    <contour>
      <point x="101" y="0" type="line"/>
      <point x="534" y="0" type="line"/>
      <point x="534" y="79" type="line"/>
      <point x="193" y="79" type="line"/>
      <point x="193" y="346" type="line"/>
      <point x="471" y="346" type="line"/>
      <point x="471" y="425" type="line"/>
      <point x="193" y="425" type="line"/>
      <point x="193" y="655" type="line"/>
      <point x="523" y="655" type="line"/>
      <point x="523" y="733" type="line"/>
      <point x="101" y="733" type="line"/>
    </contour>
    <contour>
      <point x="217" y="781" type="line"/>
      <point x="322" y="859" type="line"/>
      <point x="326" y="859" type="line"/>
      <point x="431" y="781" type="line"/>
      <point x="468" y="811" type="line"/>
      <point x="364" y="911" type="line"/>
      <point x="284" y="911" type="line"/>
      <point x="180" y="811" type="line"/>
    </contour>
    <contour>
      <point x="452" y="843" type="line"/>
      <point x="506" y="852"/>
      <point x="555" y="874"/>
      <point x="555" y="931" type="curve"/>
      <point x="555" y="983"/>
      <point x="507" y="1009"/>
      <point x="421" y="1012" type="curve"/>
      <point x="412" y="966" type="line"/>
      <point x="467" y="963"/>
      <point x="490" y="951"/>
      <point x="490" y="923" type="curve"/>
      <point x="490" y="899"/>
      <point x="468" y="888"/>
      <point x="441" y="881" type="curve"/>
    </contour>
  </outline>
</glyph>
<glyph name="Ecircumflextilde" format="2">
  <advance width="589" height="1000"/>
  <unicode hex="1EC4"/>
  <outline>
    <contour>
      <point x="101" y="0" type="line"/>
      <point x="534" y="0" type="line"/>
      <point x="534" y="79" type="line"/>
      <point x="193" y="79" type="line"/>
      <point x="193" y="346" type="line"/>
      <point x="471" y="346" type="line"/>
      <point x="471" y="425" type="line"/>
      <point x="193" y="425" type="line"/>
      <point x="193" y="655" type="line"/>
      <point x="523" y="655" type="line"/>
      <point x="523" y="733" type="line"/>
      <point x="101" y="733" type="line"/>
    </contour>
    <contour>
      <point x="217" y="781" type="line"/>
      <point x="322" y="855" type="line"/>
      <point x="326" y="855" type="line"/>
      <point x="431" y="781" type="line"/>
      <point x="468" y="811" type="line"/>
      <point x="364" y="908" type="line"/>
      <point x="284" y="908" type="line"/>
      <point x="180" y="811" type="line"/>
    </contour>
    <contour>
      <point x="398" y="938" type="curve"/>
      <point x="459" y="938"/>
      <point x="483" y="982"/>
      <point x="486" y="1040" type="curve"/>
      <point x="436" y="1046" type="line"/>
      <point x="432" y="1013"/>
      <point x="421" y="994"/>
      <point x="394" y="994" type="curve"/>
      <point x="348" y="994"/>
      <point x="322" y="1049"/>
      <point x="251" y="1049" type="curve"/>
      <point x="190" y="1049"/>
      <point x="165" y="1005"/>
      <point x="163" y="947" type="curve"/>
      <point x="213" y="942" type="line"/>
      <point x="217" y="975"/>
      <point x="228" y="993"/>
      <point x="255" y="993" type="curve"/>
      <point x="300" y="993"/>
      <point x="326" y="938"/>
    </contour>
  </outline>
</glyph>
<glyph name="wonsign" format="2">
  <advance width="555" height="1000"/>
  <unicode hex="20A9"/>
  <outline>
    <contour>
      <point x="-17" y="339" type="line"/>
      <point x="62" y="339" type="line"/>
      <point x="108" y="0" type="line"/>
      <point x="202" y="0" type="line"/>
      <point x="247" y="339" type="line"/>
      <point x="309" y="339" type="line"/>
      <point x="355" y="0" type="line"/>
      <point x="453" y="0" type="line"/>
      <point x="496" y="339" type="line"/>
      <point x="569" y="339" type="line"/>
      <point x="569" y="386" type="line"/>
      <point x="502" y="386" type="line"/>
      <point x="544" y="713" type="line"/>
      <point x="465" y="713" type="line"/>
      <point x="434" y="386" type="line"/>
      <point x="361" y="386" type="line"/>
      <point x="321" y="668" type="line"/>
      <point x="240" y="668" type="line"/>
      <point x="201" y="386" type="line"/>
      <point x="130" y="386" type="line"/>
      <point x="98" y="713" type="line"/>
      <point x="12" y="713" type="line"/>
      <point x="56" y="385" type="line"/>
      <point x="-17" y="381" type="line"/>
    </contour>
    <contour>
      <point x="253" y="386" type="line"/>
      <point x="257" y="416" type="line"/>
      <point x="275" y="599" type="line"/>
      <point x="280" y="599" type="line"/>
      <point x="298" y="417" type="line"/>
      <point x="302" y="386" type="line"/>
    </contour>
    <contour>
      <point x="429" y="339" type="line"/>
      <point x="418" y="221" type="line"/>
      <point x="404" y="70" type="line"/>
      <point x="400" y="70" type="line"/>
      <point x="384" y="221" type="line"/>
      <point x="367" y="339" type="line"/>
    </contour>
    <contour>
      <point x="194" y="339" type="line"/>
      <point x="178" y="221" type="line"/>
      <point x="163" y="70" type="line"/>
      <point x="158" y="70" type="line"/>
      <point x="146" y="221" type="line"/>
      <point x="134" y="339" type="line"/>
    </contour>
  </outline>
</glyph>
<glyph name="careof" format="2">
  <advance width="1000" height="1000"/>
  <unicode hex="2105"/>
  <outline>
    <contour>
      <point x="244" y="368" type="curve"/>
      <point x="290" y="368"/>
      <point x="329" y="387"/>
      <point x="353" y="406" type="curve"/>
      <point x="330" y="449" type="line"/>
      <point x="309" y="436"/>
      <point x="286" y="422"/>
      <point x="256" y="422" type="curve"/>
      <point x="210" y="422"/>
      <point x="171" y="454"/>
      <point x="171" y="521" type="curve"/>
      <point x="171" y="598"/>
      <point x="228" y="692"/>
      <point x="304" y="692" type="curve"/>
      <point x="331" y="692"/>
      <point x="349" y="682"/>
      <point x="368" y="661" type="curve"/>
      <point x="407" y="703" type="line"/>
      <point x="383" y="728"/>
      <point x="351" y="746"/>
      <point x="309" y="746" type="curve"/>
      <point x="189" y="746"/>
      <point x="105" y="628"/>
      <point x="105" y="511" type="curve"/>
      <point x="105" y="423"/>
      <point x="164" y="368"/>
    </contour>
    <contour>
      <point x="217" y="-13" type="line"/>
      <point x="276" y="-13" type="line"/>
      <point x="815" y="749" type="line"/>
      <point x="756" y="749" type="line"/>
    </contour>
    <contour>
      <point x="748" y="-13" type="curve"/>
      <point x="847" y="-13"/>
      <point x="948" y="78"/>
      <point x="948" y="220" type="curve"/>
      <point x="948" y="311"/>
      <point x="894" y="363"/>
      <point x="815" y="363" type="curve"/>
      <point x="717" y="363"/>
      <point x="616" y="272"/>
      <point x="616" y="131" type="curve"/>
      <point x="616" y="40"/>
      <point x="669" y="-13"/>
    </contour>
    <contour>
      <point x="754" y="41" type="curve"/>
      <point x="706" y="41"/>
      <point x="682" y="76"/>
      <point x="682" y="135" type="curve"/>
      <point x="682" y="230"/>
      <point x="741" y="310"/>
      <point x="810" y="310" type="curve"/>
      <point x="857" y="310"/>
      <point x="882" y="274"/>
      <point x="882" y="216" type="curve"/>
      <point x="882" y="121"/>
      <point x="822" y="41"/>
    </contour>
  </outline>
</glyph>
<glyph name="gscript2" format="2">
  <advance width="1000" height="1000"/>
  <unicode hex="210A"/>
  <outline>
    <contour>
      <point x="392" y="-250" type="curve"/>
      <point x="529" y="-250"/>
      <point x="617" y="-169"/>
      <point x="647" y="-25" type="curve"/>
      <point x="760" y="542" type="line"/>
      <point x="689" y="542" type="line"/>
      <point x="667" y="475" type="line"/>
      <point x="664" y="475" type="line"/>
      <point x="638" y="523"/>
      <point x="590" y="555"/>
      <point x="533" y="555" type="curve"/>
      <point x="397" y="555"/>
      <point x="251" y="405"/>
      <point x="251" y="219" type="curve"/>
      <point x="251" y="128"/>
      <point x="295" y="71"/>
      <point x="360" y="52" type="curve"/>
      <point x="279" y="14"/>
      <point x="216" y="-42"/>
      <point x="216" y="-117" type="curve"/>
      <point x="216" y="-191"/>
      <point x="281" y="-250"/>
    </contour>
    <contour>
      <point x="395" y="-178" type="curve"/>
      <point x="340" y="-178"/>
      <point x="298" y="-147"/>
      <point x="298" y="-101" type="curve"/>
      <point x="298" y="-50"/>
      <point x="352" y="5"/>
      <point x="449" y="41" type="curve"/>
      <point x="518" y="66"/>
      <point x="553" y="88"/>
      <point x="595" y="128" type="curve"/>
      <point x="599" y="128" type="line"/>
      <point x="565" y="-19" type="line"/>
      <point x="541" y="-116"/>
      <point x="486" y="-178"/>
    </contour>
    <contour>
      <point x="440" y="115" type="curve"/>
      <point x="381" y="115"/>
      <point x="342" y="155"/>
      <point x="342" y="232" type="curve"/>
      <point x="342" y="360"/>
      <point x="442" y="483"/>
      <point x="537" y="483" type="curve"/>
      <point x="578" y="483"/>
      <point x="614" y="460"/>
      <point x="646" y="403" type="curve"/>
      <point x="606" y="209" type="line"/>
      <point x="555" y="147"/>
      <point x="491" y="115"/>
    </contour>
  </outline>
</glyph>
<glyph name="planckconstantovertwopi" format="2">
  <advance width="1000" height="1000"/>
  <unicode hex="210F"/>
  <outline>
    <contour>
      <point x="283" y="596" type="line"/>
      <point x="365" y="608" type="line"/>
      <point x="244" y="0" type="line"/>
      <point x="331" y="0" type="line"/>
      <point x="402" y="361" type="line"/>
      <point x="469" y="428"/>
      <point x="522" y="458"/>
      <point x="564" y="458" type="curve"/>
      <point x="619" y="458"/>
      <point x="644" y="429"/>
      <point x="644" y="376" type="curve"/>
      <point x="644" y="356"/>
      <point x="642" y="340"/>
      <point x="635" y="312" type="curve"/>
      <point x="572" y="0" type="line"/>
      <point x="659" y="0" type="line"/>
      <point x="724" y="323" type="line"/>
      <point x="731" y="352"/>
      <point x="733" y="372"/>
      <point x="733" y="399" type="curve"/>
      <point x="733" y="482"/>
      <point x="696" y="533"/>
      <point x="605" y="533" type="curve"/>
      <point x="538" y="533"/>
      <point x="480" y="495"/>
      <point x="418" y="442" type="curve"/>
      <point x="413" y="442" type="line"/>
      <point x="432" y="511" type="line"/>
      <point x="454" y="620" type="line"/>
      <point x="655" y="649" type="line"/>
      <point x="665" y="699" type="line"/>
      <point x="465" y="672" type="line"/>
      <point x="490" y="794" type="line"/>
      <point x="402" y="794" type="line"/>
      <point x="375" y="659" type="line"/>
      <point x="292" y="640" type="line"/>
    </contour>
  </outline>
</glyph>
<glyph name="Sixromannumeral" format="2">
  <advance width="1000" height="1000"/>
  <unicode hex="2165"/>
  <outline>
    <contour>
      <point x="298" y="0" type="line"/>
      <point x="409" y="0" type="line"/>
      <point x="640" y="732" type="line"/>
      <point x="544" y="732" type="line"/>
      <point x="428" y="338" type="line"/>
      <point x="402" y="252"/>
      <point x="384" y="182"/>
      <point x="357" y="97" type="curve"/>
      <point x="352" y="97" type="line"/>
      <point x="326" y="182"/>
      <point x="308" y="252"/>
      <point x="283" y="338" type="curve"/>
      <point x="165" y="732" type="line"/>
      <point x="65" y="732" type="line"/>
    </contour>
    <contour>
      <point x="739" y="0" type="line"/>
      <point x="835" y="0" type="line"/>
      <point x="835" y="732" type="line"/>
      <point x="739" y="732" type="line"/>
    </contour>
  </outline>
</glyph>
<glyph name="Elevenromannumeral" format="2">
  <advance width="1000" height="1000"/>
  <unicode hex="216A"/>
  <outline>
    <contour>
      <point x="83" y="0" type="line"/>
      <point x="183" y="0" type="line"/>
      <point x="287" y="196" type="line"/>
      <point x="305" y="232"/>
      <point x="323" y="269"/>
      <point x="345" y="313" type="curve"/>
      <point x="349" y="313" type="line"/>
      <point x="372" y="269"/>
      <point x="392" y="232"/>
      <point x="412" y="196" type="curve"/>
      <point x="518" y="0" type="line"/>
      <point x="623" y="0" type="line"/>
      <point x="410" y="373" type="line"/>
      <point x="609" y="732" type="line"/>
      <point x="509" y="732" type="line"/>
      <point x="413" y="546" type="line"/>
      <point x="395" y="512"/>
      <point x="381" y="482"/>
      <point x="361" y="440" type="curve"/>
      <point x="357" y="440" type="line"/>
      <point x="333" y="482"/>
      <point x="318" y="512"/>
      <point x="299" y="546" type="curve"/>
      <point x="201" y="732" type="line"/>
      <point x="95" y="732" type="line"/>
      <point x="294" y="378" type="line"/>
    </contour>
    <contour>
      <point x="740" y="0" type="line"/>
      <point x="836" y="0" type="line"/>
      <point x="836" y="732" type="line"/>
      <point x="740" y="732" type="line"/>
    </contour>
  </outline>
</glyph>
<glyph name="sixromannumeral" format="2">
  <advance width="1000" height="1000"/>
  <unicode hex="2175"/>
  <outline>
    <contour>
      <point x="310" y="0" type="line"/>
      <point x="419" y="0" type="line"/>
      <point x="610" y="542" type="line"/>
      <point x="518" y="542" type="line"/>
      <point x="416" y="236" type="line"/>
      <point x="401" y="183"/>
      <point x="383" y="127"/>
      <point x="366" y="76" type="curve"/>
      <point x="362" y="76" type="line"/>
      <point x="346" y="127"/>
      <point x="328" y="183"/>
      <point x="313" y="236" type="curve"/>
      <point x="211" y="542" type="line"/>
      <point x="114" y="542" type="line"/>
    </contour>
    <contour>
      <point x="714" y="0" type="line"/>
      <point x="808" y="0" type="line"/>
      <point x="808" y="542" type="line"/>
      <point x="714" y="542" type="line"/>
    </contour>
    <contour>
      <point x="762" y="653" type="curve"/>
      <point x="798" y="653"/>
      <point x="825" y="678"/>
      <point x="825" y="713" type="curve"/>
      <point x="825" y="749"/>
      <point x="798" y="773"/>
      <point x="762" y="773" type="curve"/>
      <point x="725" y="773"/>
      <point x="697" y="749"/>
      <point x="697" y="713" type="curve"/>
      <point x="697" y="678"/>
      <point x="725" y="653"/>
    </contour>
  </outline>
</glyph>
<glyph name="rightwardsarrowoverleftwardsarrow" format="2">
  <advance width="1000" height="1000"/>
  <unicode hex="21C4"/>
  <outline>
    <contour>
      <point x="811" y="634" type="curve"/>
      <point x="40" y="634" type="line"/>
      <point x="40" y="566" type="line"/>
      <point x="811" y="566" type="line"/>
      <point x="760" y="527"/>
      <point x="694" y="464"/>
      <point x="649" y="402" type="curve"/>
      <point x="709" y="367" type="line"/>
      <point x="776" y="455"/>
      <point x="876" y="543"/>
      <point x="965" y="600" type="curve"/>
      <point x="876" y="657"/>
      <point x="776" y="745"/>
      <point x="709" y="833" type="curve"/>
      <point x="649" y="798" type="line"/>
      <point x="694" y="736"/>
      <point x="760" y="673"/>
    </contour>
    <contour>
      <point x="189" y="126" type="curve"/>
      <point x="960" y="126" type="line"/>
      <point x="960" y="194" type="line"/>
      <point x="189" y="194" type="line"/>
      <point x="240" y="233"/>
      <point x="306" y="296"/>
      <point x="351" y="358" type="curve"/>
      <point x="291" y="393" type="line"/>
      <point x="224" y="305"/>
      <point x="124" y="217"/>
      <point x="35" y="160" type="curve"/>
      <point x="124" y="103"/>
      <point x="224" y="15"/>
      <point x="291" y="-73" type="curve"/>
      <point x="351" y="-38" type="line"/>
      <point x="306" y="24"/>
      <point x="240" y="87"/>
    </contour>
  </outline>
</glyph>
<glyph name="thereexists" format="2">
  <advance width="1000" height="1000"/>
  <unicode hex="2203"/>
  <outline>
    <contour>
      <point x="799" y="739" type="line"/>
      <point x="195" y="739" type="line"/>
      <point x="195" y="670" type="line"/>
      <point x="730" y="670" type="line"/>
      <point x="730" y="410" type="line"/>
      <point x="195" y="410" type="line"/>
      <point x="195" y="342" type="line"/>
      <point x="730" y="342" type="line"/>
      <point x="730" y="81" type="line"/>
      <point x="195" y="81" type="line"/>
      <point x="195" y="12" type="line"/>
      <point x="799" y="12" type="line"/>
    </contour>
  </outline>
</glyph>
<glyph name="asymptoticallyequalto" format="2">
  <advance width="1000" height="1000"/>
  <unicode hex="2243"/>
  <outline>
    <contour>
      <point x="514" y="530" type="curve"/>
      <point x="464" y="565"/>
      <point x="415" y="591"/>
      <point x="353" y="591" type="curve"/>
      <point x="262" y="591"/>
      <point x="180" y="539"/>
      <point x="126" y="447" type="curve"/>
      <point x="183" y="407" type="line"/>
      <point x="224" y="481"/>
      <point x="289" y="522"/>
      <point x="353" y="522" type="curve"/>
      <point x="403" y="522"/>
      <point x="439" y="498"/>
      <point x="483" y="468" type="curve"/>
      <point x="534" y="432"/>
      <point x="582" y="407"/>
      <point x="645" y="407" type="curve"/>
      <point x="736" y="407"/>
      <point x="817" y="459"/>
      <point x="871" y="550" type="curve"/>
      <point x="815" y="591" type="line"/>
      <point x="774" y="516"/>
      <point x="709" y="476"/>
      <point x="645" y="476" type="curve"/>
      <point x="594" y="476"/>
      <point x="558" y="500"/>
    </contour>
    <contour>
      <point x="863" y="269" type="line"/>
      <point x="137" y="269" type="line"/>
      <point x="137" y="201" type="line"/>
      <point x="863" y="201" type="line"/>
    </contour>
  </outline>
</glyph>
<glyph name="lessthanorequalto" format="2">
  <advance width="1000" height="1000"/>
  <unicode hex="2264"/>
  <outline>
    <contour>
      <point x="872" y="83" type="line"/>
      <point x="128" y="83" type="line"/>
      <point x="128" y="18" type="line"/>
      <point x="872" y="18" type="line"/>
    </contour>
    <contour>
      <point x="285" y="475" type="line"/>
      <point x="285" y="479" type="line"/>
      <point x="874" y="717" type="line"/>
      <point x="848" y="781" type="line"/>
      <point x="102" y="479" type="line"/>
      <point x="102" y="475" type="line"/>
      <point x="848" y="174" type="line"/>
      <point x="874" y="237" type="line"/>
    </contour>
  </outline>
</glyph>
<glyph name="muchgreaterthan" format="2">
  <advance width="1000" height="1000"/>
  <unicode hex="226B"/>
  <outline>
    <contour>
      <point x="643" y="378" type="line"/>
      <point x="90" y="763" type="line"/>
      <point x="55" y="713" type="line"/>
      <point x="538" y="378" type="line"/>
      <point x="538" y="374" type="line"/>
      <point x="55" y="38" type="line"/>
      <point x="90" y="-12" type="line"/>
      <point x="643" y="374" type="line"/>
    </contour>
    <contour>
      <point x="946" y="378" type="line"/>
      <point x="393" y="763" type="line"/>
      <point x="358" y="713" type="line"/>
      <point x="840" y="378" type="line"/>
      <point x="840" y="374" type="line"/>
      <point x="358" y="38" type="line"/>
      <point x="393" y="-12" type="line"/>
      <point x="946" y="374" type="line"/>
    </contour>
  </outline>
</glyph>
<glyph name="seventeencircled" format="2">
  <advance width="1000" height="1000"/>
  <unicode hex="2470"/>
  <outline>
    <contour>
      <point x="500" y="-86" type="curve"/>
      <point x="755" y="-86"/>
      <point x="966" y="121"/>
      <point x="966" y="380" type="curve"/>
      <point x="966" y="637"/>
      <point x="757" y="846"/>
      <point x="500" y="846" type="curve"/>
      <point x="243" y="846"/>
      <point x="34" y="637"/>
      <point x="34" y="380" type="curve"/>
      <point x="34" y="123"/>
      <point x="243" y="-86"/>
    </contour>
    <contour>
      <point x="500" y="-54" type="curve"/>
      <point x="260" y="-54"/>
      <point x="66" y="140"/>
      <point x="66" y="380" type="curve"/>
      <point x="66" y="618"/>
      <point x="258" y="814"/>
      <point x="500" y="814" type="curve"/>
      <point x="740" y="814"/>
      <point x="934" y="620"/>
      <point x="934" y="380" type="curve"/>
      <point x="934" y="140"/>
      <point x="740" y="-54"/>
    </contour>
    <contour>
      <point x="294" y="127" type="line"/>
      <point x="371" y="127" type="line"/>
      <point x="371" y="645" type="line"/>
      <point x="311" y="645" type="line"/>
      <point x="283" y="627"/>
      <point x="253" y="613"/>
      <point x="208" y="604" type="curve"/>
      <point x="208" y="551" type="line"/>
      <point x="294" y="551" type="line"/>
    </contour>
    <contour>
      <point x="563" y="127" type="curve"/>
      <point x="640" y="127" type="line"/>
      <point x="650" y="329"/>
      <point x="668" y="441"/>
      <point x="776" y="595" type="curve"/>
      <point x="776" y="645" type="line"/>
      <point x="478" y="645" type="line"/>
      <point x="478" y="575" type="line"/>
      <point x="689" y="575" type="line"/>
      <point x="600" y="435"/>
      <point x="571" y="316"/>
    </contour>
  </outline>
</glyph>
<glyph name="eightparenthesized" format="2">
  <advance width="1000" height="1000"/>
  <unicode hex="247B"/>
  <outline>
    <contour>
      <point x="157" y="-75" type="curve"/>
      <point x="202" y="-61" type="line"/>
      <point x="119" y="68"/>
      <point x="92" y="218"/>
      <point x="91" y="380" type="curve"/>
      <point x="91" y="541"/>
      <point x="119" y="692"/>
      <point x="202" y="821" type="curve"/>
      <point x="157" y="835" type="line"/>
      <point x="68" y="701"/>
      <point x="32" y="555"/>
      <point x="32" y="380" type="curve"/>
      <point x="32" y="204"/>
      <point x="68" y="59"/>
    </contour>
    <contour>
      <point x="503" y="-1" type="curve"/>
      <point x="644" y="-1"/>
      <point x="729" y="80"/>
      <point x="729" y="186" type="curve"/>
      <point x="729" y="287"/>
      <point x="676" y="330"/>
      <point x="603" y="373" type="curve"/>
      <point x="603" y="377" type="line"/>
      <point x="654" y="423"/>
      <point x="704" y="484"/>
      <point x="704" y="555" type="curve"/>
      <point x="704" y="662"/>
      <point x="628" y="739"/>
      <point x="503" y="739" type="curve"/>
      <point x="389" y="739"/>
      <point x="303" y="668"/>
      <point x="303" y="560" type="curve"/>
      <point x="303" y="484"/>
      <point x="346" y="435"/>
      <point x="404" y="392" type="curve"/>
      <point x="404" y="388" type="line"/>
      <point x="338" y="350"/>
      <point x="272" y="294"/>
      <point x="272" y="195" type="curve"/>
      <point x="272" y="81"/>
      <point x="366" y="-1"/>
    </contour>
    <contour>
      <point x="549" y="401" type="curve"/>
      <point x="454" y="441"/>
      <point x="387" y="479"/>
      <point x="387" y="560" type="curve"/>
      <point x="387" y="629"/>
      <point x="437" y="672"/>
      <point x="501" y="672" type="curve"/>
      <point x="579" y="672"/>
      <point x="624" y="617"/>
      <point x="624" y="550" type="curve"/>
      <point x="624" y="494"/>
      <point x="595" y="450"/>
    </contour>
    <contour>
      <point x="505" y="67" type="curve"/>
      <point x="417" y="67"/>
      <point x="355" y="124"/>
      <point x="355" y="203" type="curve"/>
      <point x="355" y="276"/>
      <point x="399" y="320"/>
      <point x="452" y="360" type="curve"/>
      <point x="561" y="314"/>
      <point x="641" y="283"/>
      <point x="641" y="188" type="curve"/>
      <point x="641" y="115"/>
      <point x="590" y="67"/>
    </contour>
    <contour>
      <point x="843" y="-75" type="line"/>
      <point x="932" y="59"/>
      <point x="968" y="204"/>
      <point x="968" y="380" type="curve"/>
      <point x="968" y="555"/>
      <point x="932" y="701"/>
      <point x="843" y="835" type="curve"/>
      <point x="798" y="821" type="line"/>
      <point x="881" y="692"/>
      <point x="909" y="541"/>
      <point x="909" y="380" type="curve"/>
      <point x="908" y="218"/>
      <point x="881" y="68"/>
      <point x="798" y="-61" type="curve"/>
    </contour>
  </outline>
</glyph>
<glyph name="ninefullstop" format="2">
  <advance width="1000" height="1000"/>
  <unicode hex="2490"/>
  <outline>
    <contour>
      <point x="793" y="-13" type="curve"/>
      <point x="830" y="-13"/>
      <point x="861" y="16"/>
      <point x="861" y="57" type="curve"/>
      <point x="861" y="100"/>
      <point x="830" y="129"/>
      <point x="793" y="129" type="curve"/>
      <point x="755" y="129"/>
      <point x="726" y="100"/>
      <point x="726" y="57" type="curve"/>
      <point x="726" y="16"/>
      <point x="755" y="-13"/>
    </contour>
    <contour>
      <point x="330" y="-13" type="curve"/>
      <point x="468" y="-13"/>
      <point x="592" y="97"/>
      <point x="592" y="385" type="curve"/>
      <point x="592" y="613"/>
      <point x="485" y="727"/>
      <point x="349" y="727" type="curve"/>
      <point x="235" y="727"/>
      <point x="137" y="636"/>
      <point x="137" y="499" type="curve"/>
      <point x="137" y="353"/>
      <point x="218" y="278"/>
      <point x="338" y="278" type="curve"/>
      <point x="396" y="278"/>
      <point x="462" y="311"/>
      <point x="506" y="368" type="curve"/>
      <point x="502" y="140"/>
      <point x="421" y="64"/>
      <point x="325" y="64" type="curve"/>
      <point x="277" y="64"/>
      <point x="229" y="83"/>
      <point x="200" y="120" type="curve"/>
      <point x="148" y="63" type="line"/>
      <point x="189" y="18"/>
      <point x="249" y="-13"/>
    </contour>
    <contour>
      <point x="504" y="442" type="curve"/>
      <point x="456" y="371"/>
      <point x="398" y="348"/>
      <point x="353" y="348" type="curve"/>
      <point x="270" y="348"/>
      <point x="224" y="399"/>
      <point x="224" y="499" type="curve"/>
      <point x="224" y="593"/>
      <point x="278" y="654"/>
      <point x="351" y="654" type="curve"/>
      <point x="435" y="654"/>
      <point x="492" y="581"/>
    </contour>
  </outline>
</glyph>
<glyph name="jparenthesized" format="2">
  <advance width="1000" height="1000"/>
  <unicode hex="24A5"/>
  <outline>
    <contour>
      <point x="157" y="-75" type="curve"/>
      <point x="202" y="-61" type="line"/>
      <point x="119" y="68"/>
      <point x="92" y="218"/>
      <point x="91" y="380" type="curve"/>
      <point x="91" y="541"/>
      <point x="119" y="692"/>
      <point x="202" y="821" type="curve"/>
      <point x="157" y="835" type="line"/>
      <point x="68" y="701"/>
      <point x="32" y="555"/>
      <point x="32" y="380" type="curve"/>
      <point x="32" y="204"/>
      <point x="68" y="59"/>
    </contour>
    <contour>
      <point x="416" y="-148" type="curve"/>
      <point x="526" y="-148"/>
      <point x="566" y="-77"/>
      <point x="566" y="35" type="curve"/>
      <point x="566" y="636" type="line"/>
      <point x="473" y="636" type="line"/>
      <point x="473" y="35" type="line"/>
      <point x="473" y="-30"/>
      <point x="460" y="-71"/>
      <point x="406" y="-71" type="curve"/>
      <point x="387" y="-71"/>
      <point x="369" y="-67"/>
      <point x="354" y="-62" type="curve"/>
      <point x="336" y="-134" type="line"/>
      <point x="355" y="-141"/>
      <point x="383" y="-148"/>
    </contour>
    <contour>
      <point x="520" y="747" type="curve"/>
      <point x="556" y="747"/>
      <point x="584" y="773"/>
      <point x="584" y="807" type="curve"/>
      <point x="584" y="844"/>
      <point x="556" y="868"/>
      <point x="520" y="868" type="curve"/>
      <point x="483" y="868"/>
      <point x="456" y="844"/>
      <point x="456" y="807" type="curve"/>
      <point x="456" y="773"/>
      <point x="483" y="747"/>
    </contour>
    <contour>
      <point x="843" y="-75" type="line"/>
      <point x="932" y="59"/>
      <point x="968" y="204"/>
      <point x="968" y="380" type="curve"/>
      <point x="968" y="555"/>
      <point x="932" y="701"/>
      <point x="843" y="835" type="curve"/>
      <point x="798" y="821" type="line"/>
      <point x="881" y="692"/>
      <point x="909" y="541"/>
      <point x="909" y="380" type="curve"/>
      <point x="908" y="218"/>
      <point x="881" y="68"/>
      <point x="798" y="-61" type="curve"/>
    </contour>
  </outline>
</glyph>
<glyph name="Wcircled" format="2">
  <advance width="1000" height="1000"/>
  <unicode hex="24CC"/>
  <outline>
    <contour>
      <point x="500" y="-86" type="curve"/>
      <point x="755" y="-86"/>
      <point x="966" y="121"/>
      <point x="966" y="380" type="curve"/>
      <point x="966" y="637"/>
      <point x="757" y="846"/>
      <point x="500" y="846" type="curve"/>
      <point x="243" y="846"/>
      <point x="34" y="637"/>
      <point x="34" y="380" type="curve"/>
      <point x="34" y="123"/>
      <point x="243" y="-86"/>
    </contour>
    <contour>
      <point x="500" y="-54" type="curve"/>
      <point x="260" y="-54"/>
      <point x="66" y="140"/>
      <point x="66" y="380" type="curve"/>
      <point x="66" y="618"/>
      <point x="258" y="814"/>
      <point x="500" y="814" type="curve"/>
      <point x="740" y="814"/>
      <point x="934" y="620"/>
      <point x="934" y="380" type="curve"/>
      <point x="934" y="140"/>
      <point x="740" y="-54"/>
    </contour>
    <contour>
      <point x="298" y="127" type="line"/>
      <point x="396" y="127" type="line"/>
      <point x="471" y="416" type="line"/>
      <point x="481" y="457"/>
      <point x="489" y="496"/>
      <point x="498" y="535" type="curve"/>
      <point x="502" y="535" type="line"/>
      <point x="510" y="496"/>
      <point x="519" y="457"/>
      <point x="528" y="416" type="curve"/>
      <point x="606" y="127" type="line"/>
      <point x="703" y="127" type="line"/>
      <point x="813" y="644" type="line"/>
      <point x="734" y="644" type="line"/>
      <point x="682" y="375" type="line"/>
      <point x="672" y="321"/>
      <point x="663" y="265"/>
      <point x="653" y="209" type="curve"/>
      <point x="649" y="209" type="line"/>
      <point x="636" y="265"/>
      <point x="621" y="321"/>
      <point x="609" y="375" type="curve"/>
      <point x="539" y="644" type="line"/>
      <point x="467" y="644" type="line"/>
      <point x="396" y="375" type="line"/>
      <point x="384" y="320"/>
      <point x="369" y="264"/>
      <point x="356" y="209" type="curve"/>
      <point x="353" y="209" type="line"/>
      <point x="343" y="264"/>
      <point x="332" y="320"/>
      <point x="322" y="375" type="curve"/>
      <point x="270" y="644" type="line"/>
      <point x="187" y="644" type="line"/>
    </contour>
  </outline>
</glyph>
<glyph name="Ycircled" format="2">
  <advance width="1000" height="1000"/>
  <unicode hex="24CE"/>
  <outline>
    <contour>
      <point x="500" y="-86" type="curve"/>
      <point x="755" y="-86"/>
      <point x="966" y="121"/>
      <point x="966" y="380" type="curve"/>
      <point x="966" y="637"/>
      <point x="757" y="846"/>
      <point x="500" y="846" type="curve"/>
      <point x="243" y="846"/>
      <point x="34" y="637"/>
      <point x="34" y="380" type="curve"/>
      <point x="34" y="123"/>
      <point x="243" y="-86"/>
    </contour>
    <contour>
      <point x="500" y="-54" type="curve"/>
      <point x="260" y="-54"/>
      <point x="66" y="140"/>
      <point x="66" y="380" type="curve"/>
      <point x="66" y="618"/>
      <point x="258" y="814"/>
      <point x="500" y="814" type="curve"/>
      <point x="740" y="814"/>
      <point x="934" y="620"/>
      <point x="934" y="380" type="curve"/>
      <point x="934" y="140"/>
      <point x="740" y="-54"/>
    </contour>
    <contour>
      <point x="456" y="127" type="line"/>
      <point x="541" y="127" type="line"/>
      <point x="541" y="323" type="line"/>
      <point x="708" y="645" type="line"/>
      <point x="620" y="645" type="line"/>
      <point x="555" y="509" type="line"/>
      <point x="537" y="470"/>
      <point x="520" y="434"/>
      <point x="502" y="395" type="curve"/>
      <point x="498" y="395" type="line"/>
      <point x="479" y="434"/>
      <point x="462" y="470"/>
      <point x="445" y="509" type="curve"/>
      <point x="379" y="645" type="line"/>
      <point x="290" y="645" type="line"/>
      <point x="456" y="323" type="line"/>
    </contour>
  </outline>
</glyph>
<glyph name="bcircled" format="2">
  <advance width="1000" height="1000"/>
  <unicode hex="24D1"/>
  <outline>
    <contour>
      <point x="500" y="-86" type="curve"/>
      <point x="755" y="-86"/>
      <point x="966" y="121"/>
      <point x="966" y="380" type="curve"/>
      <point x="966" y="637"/>
      <point x="757" y="846"/>
      <point x="500" y="846" type="curve"/>
      <point x="243" y="846"/>
      <point x="34" y="637"/>
      <point x="34" y="380" type="curve"/>
      <point x="34" y="123"/>
      <point x="243" y="-86"/>
    </contour>
    <contour>
      <point x="500" y="-54" type="curve"/>
      <point x="260" y="-54"/>
      <point x="66" y="140"/>
      <point x="66" y="380" type="curve"/>
      <point x="66" y="618"/>
      <point x="258" y="814"/>
      <point x="500" y="814" type="curve"/>
      <point x="740" y="814"/>
      <point x="934" y="620"/>
      <point x="934" y="380" type="curve"/>
      <point x="934" y="140"/>
      <point x="740" y="-54"/>
    </contour>
    <contour>
      <point x="535" y="141" type="curve"/>
      <point x="619" y="141"/>
      <point x="691" y="212"/>
      <point x="691" y="337" type="curve"/>
      <point x="691" y="447"/>
      <point x="640" y="519"/>
      <point x="547" y="519" type="curve"/>
      <point x="505" y="519"/>
      <point x="469" y="497"/>
      <point x="436" y="469" type="curve"/>
      <point x="439" y="533" type="line"/>
      <point x="439" y="673" type="line"/>
      <point x="369" y="673" type="line"/>
      <point x="369" y="150" type="line"/>
      <point x="422" y="150" type="line"/>
      <point x="430" y="186" type="line"/>
      <point x="435" y="186" type="line"/>
      <point x="465" y="157"/>
      <point x="503" y="141"/>
    </contour>
    <contour>
      <point x="525" y="200" type="curve"/>
      <point x="500" y="200"/>
      <point x="468" y="210"/>
      <point x="439" y="234" type="curve"/>
      <point x="439" y="414" type="line"/>
      <point x="469" y="444"/>
      <point x="501" y="460"/>
      <point x="530" y="460" type="curve"/>
      <point x="591" y="460"/>
      <point x="619" y="413"/>
      <point x="619" y="335" type="curve"/>
      <point x="619" y="249"/>
      <point x="578" y="200"/>
    </contour>
  </outline>
</glyph>
<glyph name="tcircled" format="2">
  <advance width="1000" height="1000"/>
  <unicode hex="24E3"/>
  <outline>
    <contour>
      <point x="500" y="-86" type="curve"/>
      <point x="755" y="-86"/>
      <point x="966" y="121"/>
      <point x="966" y="380" type="curve"/>
      <point x="966" y="637"/>
      <point x="757" y="846"/>
      <point x="500" y="846" type="curve"/>
      <point x="243" y="846"/>
      <point x="34" y="637"/>
      <point x="34" y="380" type="curve"/>
      <point x="34" y="123"/>
      <point x="243" y="-86"/>
    </contour>
    <contour>
      <point x="500" y="-54" type="curve"/>
      <point x="260" y="-54"/>
      <point x="66" y="140"/>
      <point x="66" y="380" type="curve"/>
      <point x="66" y="618"/>
      <point x="258" y="814"/>
      <point x="500" y="814" type="curve"/>
      <point x="740" y="814"/>
      <point x="934" y="620"/>
      <point x="934" y="380" type="curve"/>
      <point x="934" y="140"/>
      <point x="740" y="-54"/>
    </contour>
    <contour>
      <point x="541" y="174" type="curve"/>
      <point x="567" y="174"/>
      <point x="594" y="181"/>
      <point x="613" y="187" type="curve"/>
      <point x="599" y="239" type="line"/>
      <point x="586" y="234"/>
      <point x="572" y="231"/>
      <point x="559" y="231" type="curve"/>
      <point x="521" y="231"/>
      <point x="504" y="255"/>
      <point x="504" y="299" type="curve"/>
      <point x="504" y="485" type="line"/>
      <point x="601" y="485" type="line"/>
      <point x="601" y="542" type="line"/>
      <point x="504" y="542" type="line"/>
      <point x="504" y="642" type="line"/>
      <point x="444" y="642" type="line"/>
      <point x="435" y="542" type="line"/>
      <point x="380" y="539" type="line"/>
      <point x="380" y="485" type="line"/>
      <point x="434" y="485" type="line"/>
      <point x="434" y="300" type="line"/>
      <point x="434" y="225"/>
      <point x="461" y="174"/>
    </contour>
  </outline>
</glyph>
<glyph name="boxdrawingsheavytripledashvertical" format="2">
  <advance width="1000" height="1000"/>
  <unicode hex="2507"/>
  <outline>
    <contour>
      <point x="440" y="602" type="line"/>
      <point x="560" y="602" type="line"/>
      <point x="560" y="824" type="line"/>
      <point x="440" y="824" type="line"/>
    </contour>
    <contour>
      <point x="440" y="269" type="line"/>
      <point x="560" y="269" type="line"/>
      <point x="560" y="491" type="line"/>
      <point x="440" y="491" type="line"/>
    </contour>
    <contour>
      <point x="440" y="-64" type="line"/>
      <point x="560" y="-64" type="line"/>
      <point x="560" y="158" type="line"/>
      <point x="440" y="158" type="line"/>
    </contour>
  </outline>
</glyph>
<glyph name="boxdrawingslightdiagonalupperlefttolowerright" format="2">
  <advance width="1000" height="1000"/>
  <unicode hex="2572"/>
  <outline>
    <contour>
      <point x="28" y="880" type="line"/>
      <point x="0" y="880" type="line"/>
      <point x="0" y="852" type="line"/>
      <point x="972" y="-120" type="line"/>
      <point x="1000" y="-120" type="line"/>
      <point x="1000" y="-92" type="line"/>
    </contour>
  </outline>
</glyph>
<glyph name="boxdrawingslightright" format="2">
  <advance width="1000" height="1000"/>
  <unicode hex="2576"/>
  <outline>
    <contour>
      <point x="480" y="360" type="line"/>
      <point x="1000" y="360" type="line"/>
      <point x="1000" y="400" type="line"/>
      <point x="480" y="400" type="line"/>
    </contour>
  </outline>
</glyph>
<glyph name="blacksquare" format="2">
  <advance width="1000" height="1000"/>
  <unicode hex="25A0"/>
  <outline>
    <contour>
      <point x="900" y="780" type="line"/>
      <point x="100" y="780" type="line"/>
      <point x="100" y="-20" type="line"/>
      <point x="900" y="-20" type="line"/>
    </contour>
  </outline>
</glyph>
<glyph name="circlewithrighthalfblack" format="2">
  <advance width="1000" height="1000"/>
  <unicode hex="25D1"/>
  <outline>
    <contour>
      <point x="500" y="-60" type="curve"/>
      <point x="743" y="-60"/>
      <point x="940" y="137"/>
      <point x="940" y="380" type="curve"/>
      <point x="940" y="623"/>
      <point x="743" y="820"/>
      <point x="500" y="820" type="curve"/>
      <point x="257" y="820"/>
      <point x="60" y="623"/>
      <point x="60" y="380" type="curve"/>
      <point x="60" y="137"/>
      <point x="257" y="-60"/>
    </contour>
    <contour>
      <point x="500" y="790" type="curve"/>
      <point x="500" y="-30" type="line"/>
      <point x="273" y="-30"/>
      <point x="90" y="153"/>
      <point x="90" y="380" type="curve"/>
      <point x="90" y="607"/>
      <point x="273" y="790"/>
    </contour>
  </outline>
</glyph>
<glyph name="blackshogipiece" format="2">
  <advance width="1000" height="1000"/>
  <unicode hex="2617"/>
  <outline>
    <contour>
      <point x="492" y="822" type="line"/>
      <point x="179" y="635" type="line"/>
      <point x="97" y="-41" type="line"/>
      <point x="886" y="-41" type="line"/>
      <point x="804" y="635" type="line"/>
    </contour>
  </outline>
</glyph>
<glyph name="whiterightpointingindex" format="2">
  <advance width="1000" height="1000"/>
  <unicode hex="261E"/>
  <outline>
    <contour>
      <point x="885" y="558" type="curve"/>
      <point x="810" y="572"/>
      <point x="552" y="593"/>
      <point x="464" y="593" type="curve"/>
      <point x="383" y="593"/>
      <point x="265" y="561"/>
      <point x="131" y="504" type="curve"/>
      <point x="128" y="503"/>
      <point x="125" y="503"/>
      <point x="122" y="503" type="curve"/>
      <point x="48" y="512" type="line"/>
      <point x="38" y="513"/>
      <point x="33" y="506"/>
      <point x="33" y="498" type="curve"/>
      <point x="33" y="197" type="line"/>
      <point x="33" y="195"/>
      <point x="34" y="192"/>
      <point x="35" y="190" type="curve"/>
      <point x="38" y="185"/>
      <point x="43" y="183"/>
      <point x="48" y="183" type="curve"/>
      <point x="127" y="192" type="line"/>
      <point x="134" y="193"/>
      <point x="141" y="192"/>
      <point x="148" y="189" type="curve"/>
      <point x="222" y="155"/>
      <point x="296" y="132"/>
      <point x="368" y="121" type="curve"/>
      <point x="399" y="116"/>
      <point x="428" y="114"/>
      <point x="455" y="114" type="curve"/>
      <point x="487" y="114"/>
      <point x="534" y="119"/>
      <point x="549" y="125" type="curve"/>
      <point x="550" y="125"/>
      <point x="551" y="126"/>
      <point x="552" y="125" type="curve"/>
      <point x="559" y="125"/>
      <point x="565" y="124"/>
      <point x="571" y="124" type="curve"/>
      <point x="585" y="124"/>
      <point x="611" y="126"/>
      <point x="635" y="142" type="curve"/>
      <point x="658" y="157"/>
      <point x="672" y="181"/>
      <point x="674" y="212" type="curve"/>
      <point x="674" y="213"/>
      <point x="675" y="215"/>
      <point x="676" y="215" type="curve"/>
      <point x="680" y="217"/>
      <point x="683" y="218"/>
      <point x="687" y="220" type="curve"/>
      <point x="712" y="235"/>
      <point x="726" y="262"/>
      <point x="728" y="299" type="curve"/>
      <point x="728" y="302"/>
      <point x="729" y="305"/>
      <point x="732" y="306" type="curve"/>
      <point x="748" y="314"/>
      <point x="759" y="324"/>
      <point x="765" y="337" type="curve"/>
      <point x="779" y="364"/>
      <point x="775" y="398"/>
      <point x="755" y="418" type="curve"/>
      <point x="754" y="419"/>
      <point x="753" y="420"/>
      <point x="751" y="421" type="curve"/>
      <point x="749" y="423"/>
      <point x="751" y="426"/>
      <point x="754" y="426" type="curve"/>
      <point x="802" y="425"/>
      <point x="858" y="424"/>
      <point x="885" y="426" type="curve"/>
      <point x="952" y="431"/>
      <point x="970" y="460"/>
      <point x="970" y="489" type="curve"/>
      <point x="970" y="536"/>
      <point x="922" y="551"/>
    </contour>
    <contour>
      <point x="372" y="147" type="curve"/>
      <point x="299" y="159"/>
      <point x="227" y="182"/>
      <point x="148" y="219" type="curve"/>
      <point x="144" y="221"/>
      <point x="139" y="221"/>
      <point x="135" y="221" type="curve"/>
      <point x="72" y="213" type="line"/>
      <point x="66" y="213"/>
      <point x="60" y="217"/>
      <point x="60" y="223" type="curve"/>
      <point x="60" y="474" type="line"/>
      <point x="60" y="479"/>
      <point x="65" y="482"/>
      <point x="70" y="482" type="curve"/>
      <point x="124" y="475" type="line"/>
      <point x="128" y="475"/>
      <point x="133" y="475"/>
      <point x="137" y="477" type="curve"/>
      <point x="255" y="528"/>
      <point x="376" y="563"/>
      <point x="434" y="563" type="curve"/>
      <point x="484" y="563"/>
      <point x="511" y="555"/>
      <point x="545" y="533" type="curve"/>
      <point x="564" y="520"/>
      <point x="605" y="491"/>
      <point x="628" y="465" type="curve"/>
      <point x="646" y="445"/>
      <point x="650" y="434"/>
      <point x="646" y="427" type="curve"/>
      <point x="637" y="409"/>
      <point x="608" y="406"/>
      <point x="573" y="416" type="curve"/>
      <point x="516" y="433"/>
      <point x="446" y="456"/>
      <point x="435" y="461" type="curve"/>
      <point x="430" y="464"/>
      <point x="422" y="462"/>
      <point x="419" y="457" type="curve"/>
      <point x="409" y="443"/>
      <point x="382" y="420"/>
      <point x="339" y="398" type="curve"/>
      <point x="296" y="376"/>
      <point x="249" y="363"/>
      <point x="209" y="363" type="curve"/>
      <point x="202" y="363"/>
      <point x="192" y="359"/>
      <point x="192" y="352" type="curve"/>
      <point x="192" y="345"/>
      <point x="200" y="338"/>
      <point x="209" y="336" type="curve"/>
      <point x="246" y="326"/>
      <point x="281" y="325"/>
      <point x="331" y="330" type="curve"/>
      <point x="372" y="334"/>
      <point x="389" y="303"/>
      <point x="389" y="273" type="curve"/>
      <point x="389" y="243"/>
      <point x="396" y="215"/>
      <point x="409" y="198" type="curve"/>
      <point x="429" y="174"/>
      <point x="458" y="158"/>
      <point x="485" y="145" type="curve"/>
      <point x="487" y="145"/>
      <point x="486" y="142"/>
      <point x="485" y="142" type="curve"/>
      <point x="450" y="140"/>
      <point x="412" y="141"/>
    </contour>
    <contour>
      <point x="620" y="164" type="curve"/>
      <point x="602" y="152"/>
      <point x="580" y="151"/>
      <point x="571" y="151" type="curve"/>
      <point x="530" y="151"/>
      <point x="469" y="174"/>
      <point x="436" y="210" type="curve"/>
      <point x="422" y="225"/>
      <point x="423" y="241"/>
      <point x="426" y="248" type="curve"/>
      <point x="433" y="267"/>
      <point x="448" y="263"/>
      <point x="460" y="255" type="curve"/>
      <point x="502" y="227"/>
      <point x="570" y="205"/>
      <point x="606" y="205" type="curve"/>
      <point x="618" y="205"/>
      <point x="631" y="206"/>
      <point x="642" y="207" type="curve"/>
      <point x="644" y="207"/>
      <point x="646" y="206"/>
      <point x="646" y="204" type="curve"/>
      <point x="642" y="187"/>
      <point x="634" y="173"/>
    </contour>
    <contour>
      <point x="673" y="244" type="curve"/>
      <point x="655" y="234"/>
      <point x="631" y="232"/>
      <point x="606" y="232" type="curve"/>
      <point x="575" y="232"/>
      <point x="521" y="247"/>
      <point x="484" y="272" type="curve"/>
      <point x="454" y="291"/>
      <point x="440" y="305"/>
      <point x="440" y="323" type="curve"/>
      <point x="440" y="333"/>
      <point x="443" y="341"/>
      <point x="449" y="348" type="curve"/>
      <point x="454" y="352"/>
      <point x="462" y="354"/>
      <point x="470" y="349" type="curve"/>
      <point x="488" y="340"/>
      <point x="510" y="328"/>
      <point x="529" y="320" type="curve"/>
      <point x="566" y="304"/>
      <point x="611" y="294"/>
      <point x="662" y="294" type="curve"/>
      <point x="672" y="294"/>
      <point x="683" y="294"/>
      <point x="695" y="296" type="curve"/>
      <point x="698" y="296"/>
      <point x="700" y="294"/>
      <point x="700" y="291" type="curve"/>
      <point x="698" y="274"/>
      <point x="692" y="255"/>
    </contour>
    <contour>
      <point x="741" y="349" type="curve"/>
      <point x="734" y="333"/>
      <point x="713" y="327"/>
      <point x="697" y="324" type="curve"/>
      <point x="670" y="319"/>
      <point x="643" y="320"/>
      <point x="632" y="322" type="curve"/>
      <point x="597" y="326"/>
      <point x="566" y="332"/>
      <point x="537" y="344" type="curve"/>
      <point x="518" y="352"/>
      <point x="501" y="361"/>
      <point x="490" y="371" type="curve"/>
      <point x="479" y="381"/>
      <point x="479" y="392"/>
      <point x="481" y="402" type="curve"/>
      <point x="483" y="408"/>
      <point x="488" y="411"/>
      <point x="496" y="409" type="curve"/>
      <point x="515" y="404"/>
      <point x="543" y="396"/>
      <point x="565" y="390" type="curve"/>
      <point x="589" y="385"/>
      <point x="609" y="382"/>
      <point x="627" y="386" type="curve"/>
      <point x="649" y="390"/>
      <point x="662" y="399"/>
      <point x="673" y="423" type="curve"/>
      <point x="676" y="430"/>
      <point x="684" y="430"/>
      <point x="689" y="428" type="curve"/>
      <point x="706" y="422"/>
      <point x="723" y="412"/>
      <point x="736" y="399" type="curve"/>
      <point x="750" y="386"/>
      <point x="748" y="363"/>
    </contour>
    <contour>
      <point x="883" y="453" type="curve"/>
      <point x="853" y="451"/>
      <point x="779" y="453"/>
      <point x="729" y="454" type="curve"/>
      <point x="712" y="454"/>
      <point x="698" y="456"/>
      <point x="688" y="458" type="curve"/>
      <point x="675" y="461"/>
      <point x="660" y="468"/>
      <point x="651" y="478" type="curve"/>
      <point x="631" y="499"/>
      <point x="599" y="522"/>
      <point x="580" y="539" type="curve"/>
      <point x="579" y="540"/>
      <point x="579" y="541"/>
      <point x="578" y="542" type="curve"/>
      <point x="577" y="547"/>
      <point x="577" y="553"/>
      <point x="578" y="558" type="curve"/>
      <point x="578" y="560"/>
      <point x="579" y="561"/>
      <point x="581" y="561" type="curve"/>
      <point x="690" y="554"/>
      <point x="830" y="541"/>
      <point x="880" y="531" type="curve"/>
      <point x="943" y="519"/>
      <point x="943" y="498"/>
      <point x="943" y="489" type="curve"/>
      <point x="943" y="473"/>
      <point x="935" y="457"/>
    </contour>
  </outline>
</glyph>
<glyph name="blackflorette" format="2">
  <advance width="1000" height="1000"/>
  <unicode hex="273F"/>
  <outline>
    <contour>
      <point x="500" y="796" type="curve"/>
      <point x="468" y="820"/>
      <point x="401" y="844"/>
      <point x="376" y="844" type="curve"/>
      <point x="358" y="844"/>
      <point x="343" y="842"/>
      <point x="343" y="803" type="curve"/>
      <point x="343" y="692"/>
      <point x="399" y="532"/>
      <point x="499" y="434" type="curve"/>
      <point x="501" y="434" type="line"/>
      <point x="601" y="532"/>
      <point x="657" y="692"/>
      <point x="657" y="803" type="curve"/>
      <point x="657" y="842"/>
      <point x="640" y="844"/>
      <point x="629" y="844" type="curve"/>
      <point x="603" y="844"/>
      <point x="532" y="820"/>
    </contour>
    <contour>
      <point x="104" y="509" type="curve"/>
      <point x="72" y="486"/>
      <point x="28" y="429"/>
      <point x="20" y="405" type="curve"/>
      <point x="15" y="388"/>
      <point x="12" y="373"/>
      <point x="49" y="361" type="curve"/>
      <point x="155" y="327"/>
      <point x="324" y="331"/>
      <point x="448" y="396" type="curve"/>
      <point x="449" y="398" type="line"/>
      <point x="387" y="523"/>
      <point x="252" y="626"/>
      <point x="146" y="660" type="curve"/>
      <point x="109" y="672"/>
      <point x="102" y="657"/>
      <point x="99" y="646" type="curve"/>
      <point x="91" y="621"/>
      <point x="91" y="546"/>
    </contour>
    <contour>
      <point x="896" y="509" type="curve"/>
      <point x="909" y="546"/>
      <point x="911" y="618"/>
      <point x="903" y="641" type="curve"/>
      <point x="897" y="658"/>
      <point x="891" y="672"/>
      <point x="854" y="660" type="curve"/>
      <point x="748" y="626"/>
      <point x="613" y="523"/>
      <point x="551" y="398" type="curve"/>
      <point x="552" y="396" type="line"/>
      <point x="676" y="331"/>
      <point x="845" y="327"/>
      <point x="951" y="361" type="curve"/>
      <point x="988" y="373"/>
      <point x="985" y="390"/>
      <point x="981" y="401" type="curve"/>
      <point x="973" y="425"/>
      <point x="928" y="486"/>
    </contour>
    <contour>
      <point x="255" y="43" type="curve"/>
      <point x="267" y="5"/>
      <point x="307" y="-54"/>
      <point x="328" y="-68" type="curve"/>
      <point x="342" y="-79"/>
      <point x="355" y="-86"/>
      <point x="378" y="-54" type="curve"/>
      <point x="444" y="35"/>
      <point x="492" y="198"/>
      <point x="469" y="336" type="curve"/>
      <point x="467" y="337" type="line"/>
      <point x="329" y="316"/>
      <point x="190" y="220"/>
      <point x="124" y="130" type="curve"/>
      <point x="101" y="99"/>
      <point x="114" y="87"/>
      <point x="123" y="80" type="curve"/>
      <point x="144" y="65"/>
      <point x="215" y="43"/>
    </contour>
    <contour>
      <point x="745" y="43" type="curve"/>
      <point x="785" y="43"/>
      <point x="853" y="63"/>
      <point x="873" y="78" type="curve"/>
      <point x="888" y="88"/>
      <point x="899" y="99"/>
      <point x="876" y="130" type="curve"/>
      <point x="810" y="220"/>
      <point x="671" y="316"/>
      <point x="533" y="337" type="curve"/>
      <point x="531" y="336" type="line"/>
      <point x="508" y="198"/>
      <point x="556" y="35"/>
      <point x="622" y="-54" type="curve"/>
      <point x="645" y="-86"/>
      <point x="659" y="-78"/>
      <point x="668" y="-71" type="curve"/>
      <point x="689" y="-56"/>
      <point x="733" y="5"/>
    </contour>
  </outline>
</glyph>
<glyph name="sixnegativecircled" format="2">
  <advance width="1000" height="1000"/>
  <unicode hex="277B"/>
  <unicode hex="278F"/>
  <outline>
    <contour>
      <point x="500" y="-86" type="curve"/>
      <point x="755" y="-86"/>
      <point x="966" y="121"/>
      <point x="966" y="380" type="curve"/>
      <point x="966" y="637"/>
      <point x="757" y="846"/>
      <point x="500" y="846" type="curve"/>
      <point x="243" y="846"/>
      <point x="34" y="637"/>
      <point x="34" y="380" type="curve"/>
      <point x="34" y="123"/>
      <point x="243" y="-86"/>
    </contour>
    <contour>
      <point x="501" y="115" type="curve"/>
      <point x="385" y="115"/>
      <point x="296" y="196"/>
      <point x="296" y="368" type="curve"/>
      <point x="296" y="573"/>
      <point x="403" y="657"/>
      <point x="521" y="657" type="curve"/>
      <point x="586" y="657"/>
      <point x="632" y="632"/>
      <point x="665" y="600" type="curve"/>
      <point x="620" y="549" type="line"/>
      <point x="597" y="573"/>
      <point x="560" y="589"/>
      <point x="523" y="589" type="curve"/>
      <point x="444" y="589"/>
      <point x="377" y="536"/>
      <point x="374" y="382" type="curve"/>
      <point x="410" y="421"/>
      <point x="463" y="446"/>
      <point x="513" y="446" type="curve"/>
      <point x="611" y="446"/>
      <point x="677" y="392"/>
      <point x="677" y="284" type="curve"/>
      <point x="677" y="181"/>
      <point x="597" y="115"/>
    </contour>
    <contour>
      <point x="502" y="179" type="curve"/>
      <point x="555" y="179"/>
      <point x="599" y="221"/>
      <point x="599" y="282" type="curve"/>
      <point x="599" y="345"/>
      <point x="563" y="385"/>
      <point x="494" y="385" type="curve"/>
      <point x="459" y="385"/>
      <point x="415" y="368"/>
      <point x="376" y="321" type="curve"/>
      <point x="387" y="225"/>
      <point x="430" y="179"/>
    </contour>
  </outline>
</glyph>
<glyph name="cjkradicallamethree-hani" format="2">
  <advance width="1000" height="1000"/>
  <unicode hex="2E90"/>
  <unicode hex="2F2A"/>
  <unicode hex="5C22"/>
  <outline>
    <contour>
      <point x="942" y="520" type="line"/>
      <point x="942" y="593" type="line"/>
      <point x="513" y="593" type="line"/>
      <point x="517" y="646"/>
      <point x="520" y="726"/>
      <point x="521" y="832" type="curve"/>
      <point x="439" y="832" type="line"/>
      <point x="437" y="704"/>
      <point x="435" y="624"/>
      <point x="433" y="593" type="curve"/>
      <point x="60" y="593" type="line"/>
      <point x="60" y="520" type="line"/>
      <point x="426" y="520" type="line"/>
      <point x="394" y="253"/>
      <point x="266" y="74"/>
      <point x="43" y="-18" type="curve"/>
      <point x="68" y="-37"/>
      <point x="87" y="-58"/>
      <point x="100" y="-81" type="curve"/>
      <point x="336" y="23"/>
      <point x="471" y="223"/>
      <point x="506" y="520" type="curve"/>
    </contour>
    <contour>
      <point x="662" y="6" type="line"/>
      <point x="638" y="6"/>
      <point x="622" y="9"/>
      <point x="615" y="15" type="curve"/>
      <point x="608" y="20"/>
      <point x="604" y="33"/>
      <point x="604" y="52" type="curve"/>
      <point x="604" y="459" type="line"/>
      <point x="527" y="459" type="line"/>
      <point x="527" y="52" type="line"/>
      <point x="527" y="5"/>
      <point x="536" y="-26"/>
      <point x="553" y="-42" type="curve"/>
      <point x="570" y="-59"/>
      <point x="604" y="-67"/>
      <point x="654" y="-67" type="curve"/>
      <point x="831" y="-67" type="line"/>
      <point x="879" y="-67"/>
      <point x="911" y="-52"/>
      <point x="928" y="-23" type="curve"/>
      <point x="945" y="5"/>
      <point x="956" y="62"/>
      <point x="961" y="147" type="curve"/>
      <point x="929" y="156"/>
      <point x="905" y="167"/>
      <point x="888" y="181" type="curve"/>
      <point x="885" y="106"/>
      <point x="880" y="59"/>
      <point x="873" y="38" type="curve"/>
      <point x="866" y="17"/>
      <point x="850" y="6"/>
      <point x="826" y="6" type="curve"/>
    </contour>
  </outline>
</glyph>
<glyph name="cjkradicalhearttwo-hani" format="2">
  <advance width="1000" height="1000"/>
  <unicode hex="2E97"/>
  <outline>
    <contour>
      <point x="392" y="422" type="line"/>
      <point x="392" y="15" type="line"/>
      <point x="392" y="4"/>
      <point x="386" y="-1"/>
      <point x="374" y="-2" type="curve"/>
      <point x="313" y="-2"/>
      <point x="274" y="-2"/>
      <point x="255" y="-1" type="curve"/>
      <point x="267" y="-24"/>
      <point x="275" y="-48"/>
      <point x="280" y="-71" type="curve"/>
      <point x="356" y="-71"/>
      <point x="405" y="-67"/>
      <point x="426" y="-58" type="curve"/>
      <point x="451" y="-48"/>
      <point x="463" y="-24"/>
      <point x="463" y="15" type="curve"/>
      <point x="463" y="422" type="line"/>
    </contour>
    <contour>
      <point x="229" y="312" type="line"/>
      <point x="191" y="213"/>
      <point x="142" y="137"/>
      <point x="81" y="85" type="curve"/>
      <point x="142" y="45" type="line"/>
      <point x="197" y="96"/>
      <point x="246" y="177"/>
      <point x="291" y="287" type="curve"/>
    </contour>
    <contour>
      <point x="538" y="280" type="line"/>
      <point x="594" y="203"/>
      <point x="632" y="130"/>
      <point x="653" y="60" type="curve"/>
      <point x="717" y="88" type="line"/>
      <point x="693" y="162"/>
      <point x="653" y="234"/>
      <point x="598" y="304" type="curve"/>
    </contour>
    <contour>
      <point x="690" y="292" type="line"/>
      <point x="764" y="208"/>
      <point x="816" y="128"/>
      <point x="846" y="53" type="curve"/>
      <point x="908" y="92" type="line"/>
      <point x="875" y="169"/>
      <point x="822" y="247"/>
      <point x="749" y="325" type="curve"/>
    </contour>
  </outline>
</glyph>
<glyph name="cjkradicalsun-hani" format="2">
  <advance width="1000" height="1000"/>
  <unicode hex="2E9C"/>
  <outline>
    <contour>
      <point x="126" y="741" type="line"/>
      <point x="126" y="391" type="line"/>
      <point x="198" y="391" type="line"/>
      <point x="198" y="684" type="line"/>
      <point x="803" y="684" type="line"/>
      <point x="803" y="393" type="line"/>
      <point x="876" y="393" type="line"/>
      <point x="876" y="741" type="line"/>
    </contour>
    <contour>
      <point x="253" y="608" type="line"/>
      <point x="253" y="554" type="line"/>
      <point x="756" y="554" type="line"/>
      <point x="756" y="608" type="line"/>
    </contour>
    <contour>
      <point x="253" y="479" type="line"/>
      <point x="253" y="425" type="line"/>
      <point x="756" y="425" type="line"/>
      <point x="756" y="479" type="line"/>
    </contour>
  </outline>
</glyph>
<glyph name="cjkradicalwaterone-hani" format="2">
  <advance width="1000" height="1000"/>
  <unicode hex="2EA1"/>
  <unicode hex="6C35"/>
  <outline>
    <contour>
      <point x="129" y="761" type="line"/>
      <point x="215" y="718"/>
      <point x="282" y="676"/>
      <point x="330" y="635" type="curve"/>
      <point x="377" y="696" type="line"/>
      <point x="327" y="735"/>
      <point x="259" y="775"/>
      <point x="174" y="814" type="curve"/>
    </contour>
    <contour>
      <point x="43" y="493" type="line"/>
      <point x="134" y="454"/>
      <point x="206" y="416"/>
      <point x="259" y="377" type="curve"/>
      <point x="302" y="440" type="line"/>
      <point x="252" y="477"/>
      <point x="180" y="513"/>
      <point x="85" y="549" type="curve"/>
    </contour>
    <contour>
      <point x="172" y="-83" type="line"/>
      <point x="249" y="18"/>
      <point x="327" y="132"/>
      <point x="407" y="259" type="curve"/>
      <point x="355" y="318" type="line"/>
      <point x="270" y="184"/>
      <point x="188" y="71"/>
      <point x="110" y="-21" type="curve"/>
    </contour>
  </outline>
</glyph>
<glyph name="cjkradicaldog-hani" format="2">
  <advance width="1000" height="1000"/>
  <unicode hex="2EA8"/>
  <unicode hex="72AD"/>
  <outline>
    <contour>
      <point x="460" y="816" type="line"/>
      <point x="428" y="775"/>
      <point x="390" y="735"/>
      <point x="346" y="697" type="curve"/>
      <point x="308" y="742"/>
      <point x="261" y="782"/>
      <point x="204" y="819" type="curve"/>
      <point x="149" y="771" type="line"/>
      <point x="204" y="735"/>
      <point x="251" y="694"/>
      <point x="288" y="648" type="curve"/>
      <point x="215" y="589"/>
      <point x="135" y="538"/>
      <point x="47" y="494" type="curve"/>
      <point x="62" y="483"/>
      <point x="79" y="464"/>
      <point x="98" y="439" type="curve"/>
      <point x="184" y="484"/>
      <point x="261" y="534"/>
      <point x="329" y="587" type="curve"/>
      <point x="352" y="546"/>
      <point x="369" y="498"/>
      <point x="379" y="444" type="curve"/>
      <point x="296" y="328"/>
      <point x="190" y="240"/>
      <point x="59" y="181" type="curve"/>
      <point x="76" y="166"/>
      <point x="94" y="145"/>
      <point x="113" y="118" type="curve"/>
      <point x="213" y="173"/>
      <point x="305" y="248"/>
      <point x="390" y="344" type="curve"/>
      <point x="391" y="333"/>
      <point x="391" y="316"/>
      <point x="391" y="295" type="curve"/>
      <point x="391" y="155"/>
      <point x="377" y="65"/>
      <point x="349" y="26" type="curve"/>
      <point x="341" y="15"/>
      <point x="328" y="8"/>
      <point x="310" y="5" type="curve"/>
      <point x="278" y="0"/>
      <point x="234" y="0"/>
      <point x="179" y="6" type="curve"/>
      <point x="196" y="-19"/>
      <point x="206" y="-46"/>
      <point x="207" y="-74" type="curve"/>
      <point x="266" y="-77"/>
      <point x="311" y="-74"/>
      <point x="343" y="-67" type="curve"/>
      <point x="371" y="-62"/>
      <point x="393" y="-49"/>
      <point x="409" y="-29" type="curve"/>
      <point x="449" y="24"/>
      <point x="469" y="132"/>
      <point x="469" y="294" type="curve"/>
      <point x="469" y="436"/>
      <point x="443" y="550"/>
      <point x="390" y="636" type="curve"/>
      <point x="445" y="683"/>
      <point x="491" y="730"/>
      <point x="528" y="776" type="curve"/>
    </contour>
  </outline>
</glyph>
<glyph name="cjkradicaljade-hani" format="2">
  <advance width="1000" height="1000"/>
  <unicode hex="2EA9"/>
  <unicode hex="248E9"/>
  <outline>
    <contour>
      <point x="530" y="148" type="line"/>
      <point x="505" y="143"/>
      <point x="473" y="137"/>
      <point x="433" y="128" type="curve"/>
      <point x="337" y="108" type="line"/>
      <point x="337" y="360" type="line"/>
      <point x="510" y="360" type="line"/>
      <point x="510" y="432" type="line"/>
      <point x="337" y="432" type="line"/>
      <point x="337" y="669" type="line"/>
      <point x="519" y="669" type="line"/>
      <point x="519" y="742" type="line"/>
      <point x="72" y="742" type="line"/>
      <point x="72" y="669" type="line"/>
      <point x="260" y="669" type="line"/>
      <point x="260" y="432" type="line"/>
      <point x="86" y="432" type="line"/>
      <point x="86" y="360" type="line"/>
      <point x="260" y="360" type="line"/>
      <point x="260" y="92" type="line"/>
      <point x="48" y="51" type="line"/>
      <point x="74" y="-27" type="line"/>
      <point x="193" y="-2"/>
      <point x="347" y="33"/>
      <point x="537" y="78" type="curve"/>
    </contour>
  </outline>
</glyph>
<glyph name="cjkradicalsimplifiedyellow-hani" format="2">
  <advance width="1000" height="1000"/>
  <unicode hex="2EE9"/>
  <unicode hex="9EC4"/>
  <outline>
    <contour>
      <point x="354" y="89" type="line"/>
      <point x="290" y="48"/>
      <point x="163" y="0"/>
      <point x="62" y="-25" type="curve"/>
      <point x="79" y="-39"/>
      <point x="102" y="-64"/>
      <point x="113" y="-79" type="curve"/>
      <point x="214" y="-52"/>
      <point x="340" y="-3"/>
      <point x="421" y="46" type="curve"/>
    </contour>
    <contour>
      <point x="591" y="42" type="line"/>
      <point x="703" y="3"/>
      <point x="816" y="-43"/>
      <point x="884" y="-76" type="curve"/>
      <point x="939" y="-26" type="line"/>
      <point x="866" y="7"/>
      <point x="745" y="53"/>
      <point x="636" y="89" type="curve"/>
    </contour>
    <contour>
      <point x="380" y="682" type="line"/>
      <point x="623" y="682" type="line"/>
      <point x="623" y="586" type="line"/>
      <point x="380" y="586" type="line"/>
    </contour>
    <contour>
      <point x="768" y="391" type="line"/>
      <point x="768" y="303" type="line"/>
      <point x="537" y="303" type="line"/>
      <point x="537" y="391" type="line"/>
    </contour>
    <contour>
      <point x="768" y="162" type="line"/>
      <point x="537" y="162" type="line"/>
      <point x="537" y="251" type="line"/>
      <point x="768" y="251" type="line"/>
    </contour>
    <contour>
      <point x="238" y="251" type="line"/>
      <point x="462" y="251" type="line"/>
      <point x="462" y="162" type="line"/>
      <point x="238" y="162" type="line"/>
    </contour>
    <contour>
      <point x="238" y="391" type="line"/>
      <point x="462" y="391" type="line"/>
      <point x="462" y="303" type="line"/>
      <point x="238" y="303" type="line"/>
    </contour>
    <contour>
      <point x="699" y="586" type="line"/>
      <point x="699" y="682" type="line"/>
      <point x="878" y="682" type="line"/>
      <point x="878" y="749" type="line"/>
      <point x="699" y="749" type="line"/>
      <point x="699" y="837" type="line"/>
      <point x="623" y="837" type="line"/>
      <point x="623" y="749" type="line"/>
      <point x="380" y="749" type="line"/>
      <point x="380" y="837" type="line"/>
      <point x="306" y="837" type="line"/>
      <point x="306" y="749" type="line"/>
      <point x="130" y="749" type="line"/>
      <point x="130" y="682" type="line"/>
      <point x="306" y="682" type="line"/>
      <point x="306" y="586" type="line"/>
      <point x="58" y="586" type="line"/>
      <point x="58" y="518" type="line"/>
      <point x="462" y="518" type="line"/>
      <point x="462" y="446" type="line"/>
      <point x="166" y="446" type="line"/>
      <point x="166" y="106" type="line"/>
      <point x="842" y="106" type="line"/>
      <point x="842" y="446" type="line"/>
      <point x="537" y="446" type="line"/>
      <point x="537" y="518" type="line"/>
      <point x="945" y="518" type="line"/>
      <point x="945" y="586" type="line"/>
    </contour>
  </outline>
</glyph>
<glyph name="cjkradicalcsimplifiedfrog-hani" format="2">
  <advance width="1000" height="1000"/>
  <unicode hex="2EEA"/>
  <unicode hex="9EFE"/>
  <outline>
    <contour>
      <point x="199" y="189" type="line"/>
      <point x="199" y="274" type="line"/>
      <point x="454" y="274" type="line"/>
      <point x="454" y="189" type="line"/>
    </contour>
    <contour>
      <point x="454" y="416" type="line"/>
      <point x="454" y="330" type="line"/>
      <point x="199" y="330" type="line"/>
      <point x="199" y="416" type="line"/>
    </contour>
    <contour>
      <point x="779" y="416" type="line"/>
      <point x="779" y="330" type="line"/>
      <point x="527" y="330" type="line"/>
      <point x="527" y="416" type="line"/>
    </contour>
    <contour>
      <point x="527" y="189" type="line"/>
      <point x="527" y="274" type="line"/>
      <point x="779" y="274" type="line"/>
      <point x="779" y="189" type="line"/>
    </contour>
    <contour>
      <point x="245" y="728" type="line"/>
      <point x="729" y="728" type="line"/>
      <point x="729" y="611" type="line"/>
      <point x="245" y="611" type="line"/>
    </contour>
    <contour>
      <point x="125" y="478" type="line"/>
      <point x="125" y="71" type="line"/>
      <point x="199" y="71" type="line"/>
      <point x="199" y="126" type="line"/>
      <point x="454" y="126" type="line"/>
      <point x="454" y="61" type="line"/>
      <point x="454" y="14"/>
      <point x="464" y="-17"/>
      <point x="484" y="-33" type="curve"/>
      <point x="504" y="-49"/>
      <point x="543" y="-57"/>
      <point x="600" y="-57" type="curve"/>
      <point x="831" y="-57" type="line"/>
      <point x="880" y="-57"/>
      <point x="913" y="-46"/>
      <point x="930" y="-25" type="curve"/>
      <point x="947" y="-5"/>
      <point x="958" y="36"/>
      <point x="963" y="97" type="curve"/>
      <point x="934" y="104"/>
      <point x="912" y="113"/>
      <point x="896" y="124" type="curve"/>
      <point x="893" y="74"/>
      <point x="887" y="42"/>
      <point x="879" y="28" type="curve"/>
      <point x="870" y="13"/>
      <point x="853" y="6"/>
      <point x="827" y="6" type="curve"/>
      <point x="603" y="6" type="line"/>
      <point x="571" y="6"/>
      <point x="550" y="10"/>
      <point x="541" y="17" type="curve"/>
      <point x="532" y="24"/>
      <point x="527" y="38"/>
      <point x="527" y="60" type="curve"/>
      <point x="527" y="126" type="line"/>
      <point x="852" y="126" type="line"/>
      <point x="852" y="478" type="line"/>
    </contour>
    <contour>
      <point x="805" y="550" type="line"/>
      <point x="805" y="790" type="line"/>
      <point x="172" y="790" type="line"/>
      <point x="172" y="550" type="line"/>
    </contour>
  </outline>
</glyph>
<glyph name="cjkradicalcsimplifiedeven-hani" format="2">
  <advance width="1000" height="1000"/>
  <unicode hex="2EEC"/>
  <unicode hex="9F50"/>
  <outline>
    <contour>
      <point x="262" y="237" type="line"/>
      <point x="262" y="114"/>
      <point x="205" y="25"/>
      <point x="91" y="-30" type="curve"/>
      <point x="115" y="-43"/>
      <point x="136" y="-61"/>
      <point x="155" y="-82" type="curve"/>
      <point x="228" y="-43"/>
      <point x="279" y="6"/>
      <point x="307" y="67" type="curve"/>
      <point x="327" y="110"/>
      <point x="337" y="167"/>
      <point x="337" y="236" type="curve"/>
      <point x="337" y="347" type="line"/>
      <point x="262" y="347" type="line"/>
    </contour>
    <contour>
      <point x="676" y="-76" type="line"/>
      <point x="752" y="-76" type="line"/>
      <point x="752" y="347" type="line"/>
      <point x="676" y="347" type="line"/>
    </contour>
    <contour>
      <point x="681" y="677" type="line"/>
      <point x="641" y="615"/>
      <point x="584" y="562"/>
      <point x="509" y="517" type="curve"/>
      <point x="429" y="560"/>
      <point x="365" y="614"/>
      <point x="317" y="677" type="curve"/>
    </contour>
    <contour>
      <point x="940" y="677" type="line"/>
      <point x="940" y="742" type="line"/>
      <point x="537" y="742" type="line"/>
      <point x="537" y="837" type="line"/>
      <point x="458" y="837" type="line"/>
      <point x="458" y="742" type="line"/>
      <point x="62" y="742" type="line"/>
      <point x="62" y="677" type="line"/>
      <point x="239" y="677" type="line"/>
      <point x="288" y="601"/>
      <point x="355" y="536"/>
      <point x="439" y="481" type="curve"/>
      <point x="334" y="434"/>
      <point x="202" y="399"/>
      <point x="43" y="378" type="curve"/>
      <point x="61" y="357"/>
      <point x="75" y="334"/>
      <point x="86" y="311" type="curve"/>
      <point x="258" y="341"/>
      <point x="399" y="384"/>
      <point x="509" y="441" type="curve"/>
      <point x="621" y="382"/>
      <point x="758" y="342"/>
      <point x="919" y="320" type="curve"/>
      <point x="931" y="347"/>
      <point x="945" y="370"/>
      <point x="962" y="387" type="curve"/>
      <point x="817" y="403"/>
      <point x="690" y="435"/>
      <point x="579" y="483" type="curve"/>
      <point x="660" y="536"/>
      <point x="723" y="601"/>
      <point x="768" y="677" type="curve"/>
    </contour>
  </outline>
</glyph>
<glyph name="kangxiradicaltable-hani" format="2">
  <advance width="1000" height="1000"/>
  <unicode hex="2F0F"/>
  <unicode hex="51E0"/>
  <outline>
    <contour>
      <point x="758" y="18" type="line"/>
      <point x="744" y="18"/>
      <point x="735" y="21"/>
      <point x="731" y="27" type="curve"/>
      <point x="726" y="34"/>
      <point x="724" y="48"/>
      <point x="724" y="69" type="curve"/>
      <point x="724" y="779" type="line"/>
      <point x="256" y="779" type="line"/>
      <point x="256" y="475" type="line"/>
      <point x="256" y="245"/>
      <point x="186" y="79"/>
      <point x="47" y="-23" type="curve"/>
      <point x="69" y="-38"/>
      <point x="88" y="-56"/>
      <point x="104" y="-79" type="curve"/>
      <point x="256" y="33"/>
      <point x="332" y="217"/>
      <point x="332" y="474" type="curve"/>
      <point x="332" y="706" type="line"/>
      <point x="648" y="706" type="line"/>
      <point x="648" y="70" type="line"/>
      <point x="648" y="21"/>
      <point x="655" y="-12"/>
      <point x="669" y="-29" type="curve"/>
      <point x="683" y="-46"/>
      <point x="709" y="-54"/>
      <point x="747" y="-54" type="curve"/>
      <point x="858" y="-54" type="line"/>
      <point x="896" y="-54"/>
      <point x="922" y="-37"/>
      <point x="937" y="-4" type="curve"/>
      <point x="950" y="26"/>
      <point x="958" y="85"/>
      <point x="962" y="173" type="curve"/>
      <point x="933" y="181"/>
      <point x="910" y="192"/>
      <point x="891" y="207" type="curve"/>
      <point x="889" y="130"/>
      <point x="886" y="79"/>
      <point x="881" y="56" type="curve"/>
      <point x="876" y="31"/>
      <point x="867" y="18"/>
      <point x="853" y="18" type="curve"/>
    </contour>
  </outline>
</glyph>
<glyph name="kangxiradicaldivination-hani" format="2">
  <advance width="1000" height="1000"/>
  <unicode hex="2F18"/>
  <unicode hex="535C"/>
  <outline>
    <contour>
      <point x="897" y="317" type="line"/>
      <point x="801" y="378"/>
      <point x="662" y="449"/>
      <point x="479" y="528" type="curve"/>
      <point x="455" y="496" type="line"/>
      <point x="455" y="835" type="line"/>
      <point x="371" y="835" type="line"/>
      <point x="371" y="-75" type="line"/>
      <point x="455" y="-75" type="line"/>
      <point x="455" y="458" type="line"/>
      <point x="638" y="371"/>
      <point x="770" y="300"/>
      <point x="849" y="245" type="curve"/>
    </contour>
  </outline>
</glyph>
<glyph name="kangxiradicalgo-hani" format="2">
  <advance width="1000" height="1000"/>
  <unicode hex="2F21"/>
  <unicode hex="5902"/>
  <outline>
    <contour>
      <point x="716" y="593" type="line"/>
      <point x="671" y="466"/>
      <point x="600" y="355"/>
      <point x="504" y="259" type="curve"/>
      <point x="426" y="343"/>
      <point x="365" y="441"/>
      <point x="322" y="553" type="curve"/>
      <point x="346" y="593" type="line"/>
    </contour>
    <contour>
      <point x="764" y="673" type="line"/>
      <point x="750" y="669" type="line"/>
      <point x="388" y="669" type="line"/>
      <point x="411" y="714"/>
      <point x="433" y="762"/>
      <point x="454" y="814" type="curve"/>
      <point x="375" y="836" type="line"/>
      <point x="302" y="638"/>
      <point x="198" y="482"/>
      <point x="64" y="369" type="curve"/>
      <point x="91" y="348"/>
      <point x="112" y="329"/>
      <point x="128" y="312" type="curve"/>
      <point x="174" y="355"/>
      <point x="222" y="410"/>
      <point x="272" y="478" type="curve"/>
      <point x="320" y="371"/>
      <point x="378" y="280"/>
      <point x="446" y="205" type="curve"/>
      <point x="330" y="106"/>
      <point x="196" y="36"/>
      <point x="43" y="-6" type="curve"/>
      <point x="60" y="-23"/>
      <point x="76" y="-46"/>
      <point x="89" y="-77" type="curve"/>
      <point x="247" y="-28"/>
      <point x="385" y="46"/>
      <point x="503" y="147" type="curve"/>
      <point x="612" y="44"/>
      <point x="748" y="-30"/>
      <point x="909" y="-75" type="curve"/>
      <point x="929" y="-41"/>
      <point x="947" y="-17"/>
      <point x="964" y="-3" type="curve"/>
      <point x="807" y="35"/>
      <point x="673" y="104"/>
      <point x="562" y="203" type="curve"/>
      <point x="683" y="325"/>
      <point x="769" y="473"/>
      <point x="818" y="648" type="curve"/>
    </contour>
  </outline>
</glyph>
<glyph name="kangxiradicaldry-hani" format="2">
  <advance width="1000" height="1000"/>
  <unicode hex="2F32"/>
  <unicode hex="5E72"/>
  <outline>
    <contour>
      <point x="944" y="433" type="line"/>
      <point x="537" y="433" type="line"/>
      <point x="537" y="690" type="line"/>
      <point x="898" y="690" type="line"/>
      <point x="898" y="765" type="line"/>
      <point x="108" y="765" type="line"/>
      <point x="108" y="690" type="line"/>
      <point x="456" y="690" type="line"/>
      <point x="456" y="433" type="line"/>
      <point x="57" y="433" type="line"/>
      <point x="57" y="357" type="line"/>
      <point x="456" y="357" type="line"/>
      <point x="456" y="-75" type="line"/>
      <point x="537" y="-75" type="line"/>
      <point x="537" y="357" type="line"/>
      <point x="944" y="357" type="line"/>
    </contour>
  </outline>
</glyph>
<glyph name="kangxiradicalbristle-hani" format="2">
  <advance width="1000" height="1000"/>
  <unicode hex="2F3A"/>
  <unicode hex="5F61"/>
  <outline>
    <contour>
      <point x="666" y="817" type="line"/>
      <point x="547" y="732"/>
      <point x="383" y="660"/>
      <point x="173" y="601" type="curve"/>
      <point x="194" y="580"/>
      <point x="212" y="556"/>
      <point x="226" y="531" type="curve"/>
      <point x="433" y="597"/>
      <point x="603" y="678"/>
      <point x="735" y="773" type="curve"/>
    </contour>
    <contour>
      <point x="708" y="565" type="line"/>
      <point x="595" y="461"/>
      <point x="428" y="377"/>
      <point x="207" y="314" type="curve"/>
      <point x="226" y="297"/>
      <point x="244" y="273"/>
      <point x="259" y="244" type="curve"/>
      <point x="480" y="315"/>
      <point x="654" y="408"/>
      <point x="779" y="524" type="curve"/>
    </contour>
    <contour>
      <point x="794" y="315" type="line"/>
      <point x="667" y="166"/>
      <point x="454" y="60"/>
      <point x="156" y="-2" type="curve"/>
      <point x="174" y="-22"/>
      <point x="190" y="-47"/>
      <point x="203" y="-76" type="curve"/>
      <point x="506" y="-6"/>
      <point x="727" y="111"/>
      <point x="866" y="274" type="curve"/>
    </contour>
  </outline>
</glyph>
<glyph name="kangxiradicalbranch-hani" format="2">
  <advance width="1000" height="1000"/>
  <unicode hex="2F40"/>
  <unicode hex="652F"/>
  <outline>
    <contour>
      <point x="724" y="385" type="line"/>
      <point x="675" y="290"/>
      <point x="601" y="212"/>
      <point x="501" y="150" type="curve"/>
      <point x="410" y="213"/>
      <point x="340" y="291"/>
      <point x="293" y="385" type="curve"/>
    </contour>
    <contour>
      <point x="780" y="461" type="line"/>
      <point x="766" y="458" type="line"/>
      <point x="536" y="458" type="line"/>
      <point x="536" y="612" type="line"/>
      <point x="917" y="612" type="line"/>
      <point x="917" y="684" type="line"/>
      <point x="536" y="684" type="line"/>
      <point x="536" y="836" type="line"/>
      <point x="460" y="836" type="line"/>
      <point x="460" y="684" type="line"/>
      <point x="81" y="684" type="line"/>
      <point x="81" y="612" type="line"/>
      <point x="460" y="612" type="line"/>
      <point x="460" y="458" type="line"/>
      <point x="126" y="458" type="line"/>
      <point x="126" y="385" type="line"/>
      <point x="284" y="385" type="line"/>
      <point x="224" y="364" type="line"/>
      <point x="275" y="263"/>
      <point x="344" y="179"/>
      <point x="431" y="110" type="curve"/>
      <point x="324" y="56"/>
      <point x="194" y="17"/>
      <point x="43" y="-6" type="curve"/>
      <point x="62" y="-27"/>
      <point x="75" y="-51"/>
      <point x="83" y="-76" type="curve"/>
      <point x="245" y="-47"/>
      <point x="383" y="0"/>
      <point x="498" y="63" type="curve"/>
      <point x="610" y="-6"/>
      <point x="748" y="-54"/>
      <point x="911" y="-79" type="curve"/>
      <point x="926" y="-48"/>
      <point x="941" y="-24"/>
      <point x="958" y="-9" type="curve"/>
      <point x="806" y="11"/>
      <point x="677" y="50"/>
      <point x="570" y="108" type="curve"/>
      <point x="691" y="192"/>
      <point x="778" y="299"/>
      <point x="831" y="430" type="curve"/>
    </contour>
  </outline>
</glyph>
<glyph name="kangxiradicaltree-hani" format="2">
  <advance width="1000" height="1000"/>
  <unicode hex="2F4A"/>
  <unicode hex="6728"/>
  <outline>
    <contour>
      <point x="931" y="518" type="line"/>
      <point x="931" y="591" type="line"/>
      <point x="538" y="591" type="line"/>
      <point x="538" y="836" type="line"/>
      <point x="461" y="836" type="line"/>
      <point x="461" y="591" type="line"/>
      <point x="70" y="591" type="line"/>
      <point x="70" y="518" type="line"/>
      <point x="426" y="518" type="line"/>
      <point x="327" y="323"/>
      <point x="195" y="181"/>
      <point x="32" y="92" type="curve"/>
      <point x="53" y="74"/>
      <point x="71" y="53"/>
      <point x="88" y="29" type="curve"/>
      <point x="233" y="118"/>
      <point x="358" y="254"/>
      <point x="461" y="439" type="curve"/>
      <point x="461" y="-77" type="line"/>
      <point x="538" y="-77" type="line"/>
      <point x="538" y="440" type="line"/>
      <point x="645" y="257"/>
      <point x="769" y="121"/>
      <point x="909" y="32" type="curve"/>
      <point x="923" y="55"/>
      <point x="942" y="76"/>
      <point x="966" y="96" type="curve"/>
      <point x="804" y="185"/>
      <point x="672" y="326"/>
      <point x="570" y="518" type="curve"/>
    </contour>
  </outline>
</glyph>
<glyph name="kangxiradicaldonot-hani" format="2">
  <advance width="1000" height="1000"/>
  <unicode hex="2F4F"/>
  <unicode hex="6BCB"/>
  <outline>
    <contour>
      <point x="504" y="155" type="line"/>
      <point x="514" y="232"/>
      <point x="523" y="315"/>
      <point x="532" y="405" type="curve"/>
      <point x="751" y="405" type="line"/>
      <point x="744" y="292"/>
      <point x="736" y="209"/>
      <point x="728" y="155" type="curve"/>
    </contour>
    <contour>
      <point x="462" y="405" type="line"/>
      <point x="450" y="294"/>
      <point x="440" y="210"/>
      <point x="432" y="155" type="curve"/>
      <point x="211" y="155" type="line"/>
      <point x="225" y="245"/>
      <point x="237" y="328"/>
      <point x="248" y="405" type="curve"/>
    </contour>
    <contour>
      <point x="490" y="719" type="line"/>
      <point x="483" y="624"/>
      <point x="476" y="542"/>
      <point x="469" y="474" type="curve"/>
      <point x="258" y="474" type="line"/>
      <point x="273" y="586"/>
      <point x="283" y="668"/>
      <point x="289" y="719" type="curve"/>
    </contour>
    <contour>
      <point x="539" y="474" type="line"/>
      <point x="546" y="542"/>
      <point x="553" y="624"/>
      <point x="560" y="719" type="curve"/>
      <point x="766" y="719" type="line"/>
      <point x="763" y="643"/>
      <point x="760" y="561"/>
      <point x="755" y="474" type="curve"/>
    </contour>
    <contour>
      <point x="955" y="405" type="line"/>
      <point x="955" y="474" type="line"/>
      <point x="828" y="474" type="line"/>
      <point x="832" y="553"/>
      <point x="836" y="644"/>
      <point x="840" y="745" type="curve"/>
      <point x="841" y="787" type="line"/>
      <point x="223" y="787" type="line"/>
      <point x="212" y="679"/>
      <point x="199" y="575"/>
      <point x="185" y="474" type="curve"/>
      <point x="47" y="474" type="line"/>
      <point x="47" y="405" type="line"/>
      <point x="176" y="405" type="line"/>
      <point x="153" y="246"/>
      <point x="132" y="120"/>
      <point x="114" y="27" type="curve"/>
      <point x="188" y="20" type="line"/>
      <point x="193" y="43"/>
      <point x="197" y="66"/>
      <point x="200" y="87" type="curve"/>
      <point x="717" y="87" type="line"/>
      <point x="708" y="46"/>
      <point x="698" y="19"/>
      <point x="686" y="6" type="curve"/>
      <point x="677" y="-7"/>
      <point x="663" y="-13"/>
      <point x="644" y="-13" type="curve"/>
      <point x="594" y="-13"/>
      <point x="549" y="-11"/>
      <point x="510" y="-7" type="curve"/>
      <point x="521" y="-26"/>
      <point x="528" y="-48"/>
      <point x="529" y="-73" type="curve"/>
      <point x="599" y="-77"/>
      <point x="647" y="-77"/>
      <point x="674" y="-74" type="curve"/>
      <point x="709" y="-70"/>
      <point x="736" y="-55"/>
      <point x="755" y="-30" type="curve"/>
      <point x="771" y="-9"/>
      <point x="784" y="30"/>
      <point x="794" y="87" type="curve"/>
      <point x="937" y="87" type="line"/>
      <point x="937" y="155" type="line"/>
      <point x="803" y="155" type="line"/>
      <point x="811" y="219"/>
      <point x="818" y="302"/>
      <point x="824" y="405" type="curve"/>
    </contour>
  </outline>
</glyph>
<glyph name="kangxiradicalwater-hani" format="2">
  <advance width="1000" height="1000"/>
  <unicode hex="2F54"/>
  <unicode hex="6C34"/>
  <outline>
    <contour>
      <point x="361" y="585" type="line"/>
      <point x="346" y="582" type="line"/>
      <point x="58" y="582" type="line"/>
      <point x="58" y="508" type="line"/>
      <point x="318" y="508" type="line"/>
      <point x="270" y="310"/>
      <point x="175" y="167"/>
      <point x="34" y="79" type="curve"/>
      <point x="59" y="62"/>
      <point x="78" y="42"/>
      <point x="93" y="20" type="curve"/>
      <point x="256" y="131"/>
      <point x="361" y="313"/>
      <point x="410" y="566" type="curve"/>
    </contour>
    <contour>
      <point x="861" y="675" type="line"/>
      <point x="800" y="595"/>
      <point x="721" y="512"/>
      <point x="624" y="427" type="curve"/>
      <point x="589" y="497"/>
      <point x="561" y="572"/>
      <point x="540" y="653" type="curve"/>
      <point x="540" y="834" type="line"/>
      <point x="463" y="834" type="line"/>
      <point x="463" y="29" type="line"/>
      <point x="463" y="12"/>
      <point x="454" y="3"/>
      <point x="436" y="2" type="curve"/>
      <point x="364" y="2"/>
      <point x="312" y="3"/>
      <point x="280" y="4" type="curve"/>
      <point x="297" y="-27"/>
      <point x="307" y="-54"/>
      <point x="310" y="-77" type="curve"/>
      <point x="407" y="-77"/>
      <point x="468" y="-72"/>
      <point x="493" y="-62" type="curve"/>
      <point x="524" y="-49"/>
      <point x="540" y="-18"/>
      <point x="540" y="29" type="curve"/>
      <point x="540" y="458" type="line"/>
      <point x="627" y="231"/>
      <point x="751" y="79"/>
      <point x="912" y="0" type="curve"/>
      <point x="925" y="25"/>
      <point x="944" y="47"/>
      <point x="968" y="67" type="curve"/>
      <point x="843" y="121"/>
      <point x="739" y="221"/>
      <point x="655" y="368" type="curve"/>
      <point x="741" y="435"/>
      <point x="832" y="522"/>
      <point x="928" y="627" type="curve"/>
    </contour>
  </outline>
</glyph>
<glyph name="kangxiradicalclaw-hani" format="2">
  <advance width="1000" height="1000"/>
  <unicode hex="2F56"/>
  <unicode hex="722A"/>
  <outline>
    <contour>
      <point x="794" y="807" type="line"/>
      <point x="671" y="769"/>
      <point x="485" y="737"/>
      <point x="238" y="710" type="curve"/>
      <point x="172" y="725" type="line"/>
      <point x="172" y="486" type="line"/>
      <point x="172" y="255"/>
      <point x="126" y="82"/>
      <point x="35" y="-32" type="curve"/>
      <point x="61" y="-45"/>
      <point x="80" y="-61"/>
      <point x="91" y="-80" type="curve"/>
      <point x="192" y="45"/>
      <point x="243" y="234"/>
      <point x="243" y="485" type="curve"/>
      <point x="243" y="647" type="line"/>
      <point x="323" y="656"/>
      <point x="390" y="664"/>
      <point x="445" y="672" type="curve"/>
      <point x="445" y="-56" type="line"/>
      <point x="519" y="-56" type="line"/>
      <point x="519" y="683" type="line"/>
      <point x="588" y="693"/>
      <point x="655" y="705"/>
      <point x="719" y="718" type="curve"/>
      <point x="738" y="307"/>
      <point x="801" y="42"/>
      <point x="908" y="-77" type="curve"/>
      <point x="924" y="-51"/>
      <point x="942" y="-30"/>
      <point x="963" y="-15" type="curve"/>
      <point x="863" y="86"/>
      <point x="804" y="336"/>
      <point x="787" y="733" type="curve"/>
      <point x="840" y="748"/>
      <point x="865" y="754"/>
      <point x="862" y="753" type="curve"/>
    </contour>
  </outline>
</glyph>
<glyph name="kangxiradicaluse-hani" format="2">
  <advance width="1000" height="1000"/>
  <unicode hex="2F64"/>
  <unicode hex="7528"/>
  <outline>
    <contour>
      <point x="542" y="299" type="line"/>
      <point x="542" y="465" type="line"/>
      <point x="811" y="465" type="line"/>
      <point x="811" y="299" type="line"/>
    </contour>
    <contour>
      <point x="225" y="299" type="line"/>
      <point x="228" y="332"/>
      <point x="229" y="367"/>
      <point x="229" y="406" type="curve"/>
      <point x="229" y="465" type="line"/>
      <point x="468" y="465" type="line"/>
      <point x="468" y="299" type="line"/>
    </contour>
    <contour>
      <point x="468" y="695" type="line"/>
      <point x="468" y="535" type="line"/>
      <point x="229" y="535" type="line"/>
      <point x="229" y="695" type="line"/>
    </contour>
    <contour>
      <point x="811" y="535" type="line"/>
      <point x="542" y="535" type="line"/>
      <point x="542" y="695" type="line"/>
      <point x="811" y="695" type="line"/>
    </contour>
    <contour>
      <point x="884" y="766" type="line"/>
      <point x="156" y="766" type="line"/>
      <point x="156" y="406" type="line"/>
      <point x="156" y="203"/>
      <point x="116" y="57"/>
      <point x="36" y="-33" type="curve"/>
      <point x="60" y="-46"/>
      <point x="79" y="-63"/>
      <point x="93" y="-82" type="curve"/>
      <point x="158" y="-9"/>
      <point x="200" y="94"/>
      <point x="218" y="228" type="curve"/>
      <point x="468" y="228" type="line"/>
      <point x="468" y="-67" type="line"/>
      <point x="542" y="-67" type="line"/>
      <point x="542" y="228" type="line"/>
      <point x="811" y="228" type="line"/>
      <point x="811" y="25" type="line"/>
      <point x="811" y="8"/>
      <point x="802" y="0"/>
      <point x="784" y="-1" type="curve"/>
      <point x="711" y="-1"/>
      <point x="659" y="0"/>
      <point x="628" y="1" type="curve"/>
      <point x="641" y="-26"/>
      <point x="650" y="-50"/>
      <point x="653" y="-71" type="curve"/>
      <point x="752" y="-72"/>
      <point x="814" y="-68"/>
      <point x="839" y="-59" type="curve"/>
      <point x="869" y="-47"/>
      <point x="884" y="-19"/>
      <point x="884" y="24" type="curve"/>
    </contour>
  </outline>
</glyph>
<glyph name="kangxiradicalstone-hani" format="2">
  <advance width="1000" height="1000"/>
  <unicode hex="2F6F"/>
  <unicode hex="77F3"/>
  <outline>
    <contour>
      <point x="795" y="356" type="line"/>
      <point x="795" y="65" type="line"/>
      <point x="320" y="65" type="line"/>
      <point x="320" y="356" type="line"/>
    </contour>
    <contour>
      <point x="933" y="687" type="line"/>
      <point x="933" y="760" type="line"/>
      <point x="69" y="760" type="line"/>
      <point x="69" y="687" type="line"/>
      <point x="354" y="687" type="line"/>
      <point x="283" y="475"/>
      <point x="175" y="315"/>
      <point x="28" y="207" type="curve"/>
      <point x="51" y="187"/>
      <point x="69" y="168"/>
      <point x="80" y="150" type="curve"/>
      <point x="143" y="198"/>
      <point x="198" y="254"/>
      <point x="246" y="319" type="curve"/>
      <point x="246" y="-77" type="line"/>
      <point x="320" y="-77" type="line"/>
      <point x="320" y="-7" type="line"/>
      <point x="795" y="-7" type="line"/>
      <point x="795" y="-76" type="line"/>
      <point x="872" y="-76" type="line"/>
      <point x="872" y="427" type="line"/>
      <point x="318" y="427" type="line"/>
      <point x="365" y="506"/>
      <point x="405" y="593"/>
      <point x="438" y="687" type="curve"/>
    </contour>
  </outline>
</glyph>
<glyph name="kangxiradicalvalley-hani" format="2">
  <advance width="1000" height="1000"/>
  <unicode hex="2F95"/>
  <unicode hex="8C37"/>
  <outline>
    <contour>
      <point x="919" y="583" type="line"/>
      <point x="860" y="656"/>
      <point x="770" y="734"/>
      <point x="649" y="817" type="curve"/>
      <point x="592" y="777" type="line"/>
      <point x="712" y="692"/>
      <point x="801" y="612"/>
      <point x="858" y="537" type="curve"/>
    </contour>
    <contour>
      <point x="331" y="815" type="line"/>
      <point x="270" y="722"/>
      <point x="185" y="644"/>
      <point x="78" y="580" type="curve"/>
      <point x="99" y="566"/>
      <point x="119" y="549"/>
      <point x="137" y="528" type="curve"/>
      <point x="242" y="599"/>
      <point x="331" y="686"/>
      <point x="404" y="789" type="curve"/>
    </contour>
    <contour>
      <point x="255" y="322" type="line"/>
      <point x="361" y="405"/>
      <point x="442" y="490"/>
      <point x="497" y="576" type="curve"/>
      <point x="556" y="490"/>
      <point x="641" y="405"/>
      <point x="752" y="322" type="curve"/>
    </contour>
    <contour>
      <point x="298" y="30" type="line"/>
      <point x="298" y="256" type="line"/>
      <point x="706" y="256" type="line"/>
      <point x="706" y="30" type="line"/>
    </contour>
    <contour>
      <point x="457" y="649" type="line"/>
      <point x="366" y="492"/>
      <point x="229" y="366"/>
      <point x="44" y="270" type="curve"/>
      <point x="63" y="252"/>
      <point x="78" y="233"/>
      <point x="90" y="212" type="curve"/>
      <point x="132" y="235"/>
      <point x="177" y="264"/>
      <point x="224" y="299" type="curve"/>
      <point x="224" y="-77" type="line"/>
      <point x="298" y="-77" type="line"/>
      <point x="298" y="-36" type="line"/>
      <point x="706" y="-36" type="line"/>
      <point x="706" y="-75" type="line"/>
      <point x="783" y="-75" type="line"/>
      <point x="783" y="300" type="line"/>
      <point x="826" y="269"/>
      <point x="870" y="241"/>
      <point x="915" y="217" type="curve"/>
      <point x="930" y="244"/>
      <point x="946" y="265"/>
      <point x="962" y="281" type="curve"/>
      <point x="783" y="364"/>
      <point x="638" y="487"/>
      <point x="529" y="649" type="curve"/>
    </contour>
  </outline>
</glyph>
<glyph name="kangxiradicalpig-hani" format="2">
  <advance width="1000" height="1000"/>
  <unicode hex="2F97"/>
  <unicode hex="8C55"/>
  <outline>
    <contour>
      <point x="872" y="612" type="line"/>
      <point x="816" y="554"/>
      <point x="747" y="497"/>
      <point x="665" y="441" type="curve"/>
      <point x="632" y="517"/>
      <point x="606" y="603"/>
      <point x="585" y="700" type="curve"/>
      <point x="933" y="700" type="line"/>
      <point x="933" y="769" type="line"/>
      <point x="69" y="769" type="line"/>
      <point x="69" y="700" type="line"/>
      <point x="451" y="700" type="line"/>
      <point x="349" y="605"/>
      <point x="216" y="531"/>
      <point x="52" y="476" type="curve"/>
      <point x="61" y="469"/>
      <point x="80" y="449"/>
      <point x="109" y="416" type="curve"/>
      <point x="178" y="443"/>
      <point x="245" y="475"/>
      <point x="311" y="513" type="curve"/>
      <point x="340" y="492"/>
      <point x="366" y="472"/>
      <point x="387" y="451" type="curve"/>
      <point x="295" y="375"/>
      <point x="186" y="315"/>
      <point x="59" y="270" type="curve"/>
      <point x="76" y="255"/>
      <point x="92" y="236"/>
      <point x="107" y="213" type="curve"/>
      <point x="228" y="264"/>
      <point x="337" y="328"/>
      <point x="432" y="404" type="curve"/>
      <point x="456" y="375"/>
      <point x="475" y="348"/>
      <point x="490" y="321" type="curve"/>
      <point x="373" y="198"/>
      <point x="222" y="104"/>
      <point x="39" y="39" type="curve"/>
      <point x="56" y="25"/>
      <point x="72" y="5"/>
      <point x="89" y="-20" type="curve"/>
      <point x="254" y="47"/>
      <point x="397" y="140"/>
      <point x="520" y="259" type="curve"/>
      <point x="540" y="206"/>
      <point x="547" y="157"/>
      <point x="542" y="112" type="curve"/>
      <point x="537" y="68"/>
      <point x="521" y="37"/>
      <point x="495" y="18" type="curve"/>
      <point x="478" y="3"/>
      <point x="452" y="-4"/>
      <point x="416" y="-4" type="curve"/>
      <point x="383" y="-4"/>
      <point x="351" y="-2"/>
      <point x="320" y="2" type="curve"/>
      <point x="331" y="-18"/>
      <point x="338" y="-43"/>
      <point x="339" y="-74" type="curve"/>
      <point x="432" y="-76" type="line"/>
      <point x="479" y="-76"/>
      <point x="519" y="-64"/>
      <point x="552" y="-39" type="curve"/>
      <point x="582" y="-17"/>
      <point x="603" y="17"/>
      <point x="614" y="62" type="curve"/>
      <point x="625" y="109"/>
      <point x="625" y="160"/>
      <point x="613" y="215" type="curve"/>
      <point x="584" y="347"/>
      <point x="503" y="459"/>
      <point x="372" y="550" type="curve"/>
      <point x="431" y="589"/>
      <point x="480" y="628"/>
      <point x="521" y="667" type="curve"/>
      <point x="596" y="342"/>
      <point x="724" y="125"/>
      <point x="907" y="18" type="curve"/>
      <point x="924" y="45"/>
      <point x="942" y="66"/>
      <point x="962" y="81" type="curve"/>
      <point x="853" y="138"/>
      <point x="763" y="239"/>
      <point x="692" y="382" type="curve"/>
      <point x="777" y="434"/>
      <point x="858" y="495"/>
      <point x="936" y="564" type="curve"/>
    </contour>
  </outline>
</glyph>
<glyph name="kangxiradicalwine-hani" format="2">
  <advance width="1000" height="1000"/>
  <unicode hex="2FA3"/>
  <unicode hex="9149"/>
  <outline>
    <contour>
      <point x="547" y="574" type="line"/>
      <point x="423" y="574" type="line"/>
      <point x="423" y="698" type="line"/>
      <point x="547" y="698" type="line"/>
    </contour>
    <contour>
      <point x="820" y="507" type="line"/>
      <point x="820" y="206" type="line"/>
      <point x="185" y="206" type="line"/>
      <point x="185" y="507" type="line"/>
      <point x="354" y="507" type="line"/>
      <point x="354" y="456"/>
      <point x="344" y="417"/>
      <point x="325" y="388" type="curve"/>
      <point x="300" y="350"/>
      <point x="256" y="320"/>
      <point x="191" y="299" type="curve"/>
      <point x="211" y="280"/>
      <point x="226" y="263"/>
      <point x="235" y="247" type="curve"/>
      <point x="310" y="274"/>
      <point x="361" y="309"/>
      <point x="389" y="354" type="curve"/>
      <point x="412" y="390"/>
      <point x="423" y="441"/>
      <point x="423" y="507" type="curve"/>
      <point x="547" y="507" type="line"/>
      <point x="547" y="375" type="line"/>
      <point x="547" y="338"/>
      <point x="553" y="314"/>
      <point x="565" y="302" type="curve"/>
      <point x="577" y="289"/>
      <point x="601" y="283"/>
      <point x="636" y="283" type="curve"/>
      <point x="737" y="283" type="line"/>
      <point x="764" y="283"/>
      <point x="784" y="290"/>
      <point x="796" y="305" type="curve"/>
      <point x="807" y="320"/>
      <point x="815" y="349"/>
      <point x="818" y="390" type="curve"/>
      <point x="792" y="395"/>
      <point x="771" y="404"/>
      <point x="756" y="416" type="curve"/>
      <point x="755" y="385"/>
      <point x="752" y="366"/>
      <point x="749" y="358" type="curve"/>
      <point x="746" y="349"/>
      <point x="739" y="345"/>
      <point x="729" y="345" type="curve"/>
      <point x="646" y="345" type="line"/>
      <point x="634" y="345"/>
      <point x="627" y="347"/>
      <point x="624" y="350" type="curve"/>
      <point x="621" y="353"/>
      <point x="619" y="362"/>
      <point x="619" y="375" type="curve"/>
      <point x="619" y="507" type="line"/>
    </contour>
    <contour>
      <point x="185" y="44" type="line"/>
      <point x="185" y="143" type="line"/>
      <point x="820" y="143" type="line"/>
      <point x="820" y="44" type="line"/>
    </contour>
    <contour>
      <point x="938" y="698" type="line"/>
      <point x="938" y="769" type="line"/>
      <point x="64" y="769" type="line"/>
      <point x="64" y="698" type="line"/>
      <point x="354" y="698" type="line"/>
      <point x="354" y="574" type="line"/>
      <point x="116" y="574" type="line"/>
      <point x="116" y="-73" type="line"/>
      <point x="185" y="-73" type="line"/>
      <point x="185" y="-21" type="line"/>
      <point x="820" y="-21" type="line"/>
      <point x="820" y="-73" type="line"/>
      <point x="892" y="-73" type="line"/>
      <point x="892" y="574" type="line"/>
      <point x="619" y="574" type="line"/>
      <point x="619" y="698" type="line"/>
    </contour>
  </outline>
</glyph>
<glyph name="kangxiradicalvillage-hani" format="2">
  <advance width="1000" height="1000"/>
  <unicode hex="2FA5"/>
  <unicode hex="91CC"/>
  <unicode hex="F9E9"/>
  <outline>
    <contour>
      <point x="233" y="541" type="line"/>
      <point x="467" y="541" type="line"/>
      <point x="467" y="418" type="line"/>
      <point x="233" y="418" type="line"/>
    </contour>
    <contour>
      <point x="233" y="728" type="line"/>
      <point x="467" y="728" type="line"/>
      <point x="467" y="607" type="line"/>
      <point x="233" y="607" type="line"/>
    </contour>
    <contour>
      <point x="779" y="607" type="line"/>
      <point x="540" y="607" type="line"/>
      <point x="540" y="728" type="line"/>
      <point x="779" y="728" type="line"/>
    </contour>
    <contour>
      <point x="779" y="418" type="line"/>
      <point x="540" y="418" type="line"/>
      <point x="540" y="541" type="line"/>
      <point x="779" y="541" type="line"/>
    </contour>
    <contour>
      <point x="545" y="25" type="line"/>
      <point x="545" y="163" type="line"/>
      <point x="891" y="163" type="line"/>
      <point x="891" y="236" type="line"/>
      <point x="545" y="236" type="line"/>
      <point x="545" y="348" type="line"/>
      <point x="858" y="348" type="line"/>
      <point x="858" y="798" type="line"/>
      <point x="157" y="798" type="line"/>
      <point x="157" y="348" type="line"/>
      <point x="462" y="348" type="line"/>
      <point x="462" y="236" type="line"/>
      <point x="125" y="236" type="line"/>
      <point x="125" y="163" type="line"/>
      <point x="462" y="163" type="line"/>
      <point x="462" y="25" type="line"/>
      <point x="58" y="25" type="line"/>
      <point x="58" y="-48" type="line"/>
      <point x="945" y="-48" type="line"/>
      <point x="945" y="25" type="line"/>
    </contour>
  </outline>
</glyph>
<glyph name="kangxiradicaltannedleather-hani" format="2">
  <advance width="1000" height="1000"/>
  <unicode hex="2FB1"/>
  <unicode hex="97CB"/>
  <outline>
    <contour>
      <point x="725" y="704" type="line"/>
      <point x="725" y="615" type="line"/>
      <point x="433" y="615" type="line"/>
      <point x="458" y="704" type="line"/>
    </contour>
    <contour>
      <point x="936" y="615" type="line"/>
      <point x="798" y="615" type="line"/>
      <point x="798" y="763" type="line"/>
      <point x="473" y="763" type="line"/>
      <point x="489" y="828" type="line"/>
      <point x="413" y="836" type="line"/>
      <point x="408" y="810"/>
      <point x="402" y="786"/>
      <point x="395" y="763" type="curve"/>
      <point x="178" y="763" type="line"/>
      <point x="178" y="704" type="line"/>
      <point x="380" y="704" type="line"/>
      <point x="371" y="670"/>
      <point x="362" y="640"/>
      <point x="353" y="615" type="curve"/>
      <point x="66" y="615" type="line"/>
      <point x="66" y="554" type="line"/>
      <point x="936" y="554" type="line"/>
    </contour>
    <contour>
      <point x="249" y="90" type="line"/>
      <point x="249" y="179" type="line"/>
      <point x="543" y="179" type="line"/>
      <point x="543" y="90" type="line"/>
    </contour>
    <contour>
      <point x="266" y="447" type="line"/>
      <point x="750" y="447" type="line"/>
      <point x="750" y="350" type="line"/>
      <point x="266" y="350" type="line"/>
    </contour>
    <contour>
      <point x="944" y="90" type="line"/>
      <point x="619" y="90" type="line"/>
      <point x="619" y="179" type="line"/>
      <point x="863" y="179" type="line"/>
      <point x="863" y="238" type="line"/>
      <point x="619" y="238" type="line"/>
      <point x="619" y="297" type="line"/>
      <point x="825" y="297" type="line"/>
      <point x="825" y="501" type="line"/>
      <point x="194" y="501" type="line"/>
      <point x="194" y="297" type="line"/>
      <point x="543" y="297" type="line"/>
      <point x="543" y="238" type="line"/>
      <point x="176" y="238" type="line"/>
      <point x="176" y="90" type="line"/>
      <point x="57" y="90" type="line"/>
      <point x="57" y="30" type="line"/>
      <point x="543" y="30" type="line"/>
      <point x="543" y="-77" type="line"/>
      <point x="619" y="-77" type="line"/>
      <point x="619" y="30" type="line"/>
      <point x="944" y="30" type="line"/>
    </contour>
  </outline>
</glyph>
<glyph name="kangxiradicalcauldron-hani" format="2">
  <advance width="1000" height="1000"/>
  <unicode hex="2FC0"/>
  <unicode hex="9B32"/>
  <outline>
    <contour>
      <point x="718" y="86" type="line"/>
      <point x="718" y="141" type="line"/>
      <point x="294" y="141" type="line"/>
      <point x="294" y="86" type="line"/>
      <point x="467" y="86" type="line"/>
      <point x="467" y="-66" type="line"/>
      <point x="534" y="-66" type="line"/>
      <point x="534" y="86" type="line"/>
    </contour>
    <contour>
      <point x="897" y="385" type="line"/>
      <point x="112" y="385" type="line"/>
      <point x="112" y="-77" type="line"/>
      <point x="183" y="-77" type="line"/>
      <point x="183" y="325" type="line"/>
      <point x="373" y="325" type="line"/>
      <point x="366" y="286"/>
      <point x="349" y="258"/>
      <point x="322" y="240" type="curve"/>
      <point x="295" y="221"/>
      <point x="249" y="208"/>
      <point x="184" y="199" type="curve"/>
      <point x="201" y="182"/>
      <point x="213" y="165"/>
      <point x="218" y="148" type="curve"/>
      <point x="292" y="161"/>
      <point x="345" y="181"/>
      <point x="378" y="208" type="curve"/>
      <point x="409" y="233"/>
      <point x="428" y="272"/>
      <point x="435" y="325" type="curve"/>
      <point x="545" y="325" type="line"/>
      <point x="545" y="253" type="line"/>
      <point x="545" y="224"/>
      <point x="551" y="204"/>
      <point x="562" y="195" type="curve"/>
      <point x="574" y="185"/>
      <point x="598" y="180"/>
      <point x="633" y="180" type="curve"/>
      <point x="743" y="180" type="line"/>
      <point x="768" y="180"/>
      <point x="785" y="185"/>
      <point x="795" y="195" type="curve"/>
      <point x="806" y="205"/>
      <point x="813" y="224"/>
      <point x="816" y="253" type="curve"/>
      <point x="791" y="257"/>
      <point x="773" y="264"/>
      <point x="762" y="273" type="curve"/>
      <point x="761" y="256"/>
      <point x="759" y="244"/>
      <point x="755" y="239" type="curve"/>
      <point x="752" y="234"/>
      <point x="745" y="232"/>
      <point x="734" y="232" type="curve"/>
      <point x="640" y="232" type="line"/>
      <point x="627" y="232"/>
      <point x="618" y="233"/>
      <point x="614" y="236" type="curve"/>
      <point x="611" y="239"/>
      <point x="609" y="245"/>
      <point x="609" y="254" type="curve"/>
      <point x="609" y="325" type="line"/>
      <point x="824" y="325" type="line"/>
      <point x="824" y="1" type="line"/>
      <point x="824" y="-10"/>
      <point x="818" y="-16"/>
      <point x="805" y="-17" type="curve"/>
      <point x="781" y="-18"/>
      <point x="738" y="-18"/>
      <point x="675" y="-16" type="curve"/>
      <point x="686" y="-36"/>
      <point x="694" y="-57"/>
      <point x="697" y="-78" type="curve"/>
      <point x="784" y="-78"/>
      <point x="837" y="-74"/>
      <point x="858" y="-67" type="curve"/>
      <point x="884" y="-58"/>
      <point x="897" y="-36"/>
      <point x="897" y="1" type="curve"/>
    </contour>
    <contour>
      <point x="726" y="504" type="line"/>
      <point x="283" y="504" type="line"/>
      <point x="283" y="601" type="line"/>
      <point x="726" y="601" type="line"/>
    </contour>
    <contour>
      <point x="213" y="656" type="line"/>
      <point x="213" y="449" type="line"/>
      <point x="801" y="449" type="line"/>
      <point x="801" y="656" type="line"/>
    </contour>
    <contour>
      <point x="79" y="784" type="line"/>
      <point x="79" y="718" type="line"/>
      <point x="924" y="718" type="line"/>
      <point x="924" y="784" type="line"/>
    </contour>
  </outline>
</glyph>
<glyph name="leftcornerbracket" format="2">
  <advance width="1000" height="1000"/>
  <unicode hex="300C"/>
  <outline>
    <contour>
      <point x="650" y="846" type="line"/>
      <point x="650" y="199" type="line"/>
      <point x="724" y="199" type="line"/>
      <point x="724" y="777" type="line"/>
      <point x="966" y="777" type="line"/>
      <point x="966" y="846" type="line"/>
    </contour>
  </outline>
</glyph>
<glyph name="geta" format="2">
  <advance width="1000" height="1000"/>
  <unicode hex="3013"/>
  <outline>
    <contour>
      <point x="900" y="480" type="line"/>
      <point x="900" y="780" type="line"/>
      <point x="100" y="780" type="line"/>
      <point x="100" y="480" type="line"/>
    </contour>
    <contour>
      <point x="900" y="-20" type="line"/>
      <point x="900" y="280" type="line"/>
      <point x="100" y="280" type="line"/>
      <point x="100" y="-20" type="line"/>
    </contour>
  </outline>
</glyph>
<glyph name="leftwhitelenticularbracket" format="2">
  <advance width="1000" height="1000"/>
  <unicode hex="3016"/>
  <outline>
    <contour>
      <point x="966" y="-86" type="line"/>
      <point x="966" y="-69" type="line"/>
      <point x="808" y="3"/>
      <point x="703" y="158"/>
      <point x="703" y="380" type="curve"/>
      <point x="703" y="602"/>
      <point x="808" y="757"/>
      <point x="966" y="829" type="curve"/>
      <point x="966" y="846" type="line"/>
      <point x="623" y="846" type="line"/>
      <point x="623" y="-86" type="line"/>
    </contour>
    <contour>
      <point x="903" y="-62" type="curve"/>
      <point x="646" y="-62" type="line"/>
      <point x="646" y="822" type="line"/>
      <point x="903" y="822" type="line"/>
      <point x="808" y="764"/>
      <point x="679" y="632"/>
      <point x="679" y="380" type="curve"/>
      <point x="679" y="128"/>
      <point x="808" y="-4"/>
    </contour>
  </outline>
</glyph>
<glyph name="hangzhounumeralfive-hani" format="2">
  <advance width="1000" height="1000"/>
  <unicode hex="3025"/>
  <outline>
    <contour>
      <point x="577" y="406" type="curve"/>
      <point x="688" y="368"/>
      <point x="744" y="280"/>
      <point x="742" y="193" type="curve"/>
      <point x="740" y="113"/>
      <point x="712" y="69"/>
      <point x="668" y="30" type="curve"/>
      <point x="622" y="-9"/>
      <point x="562" y="-30"/>
      <point x="497" y="-30" type="curve"/>
      <point x="436" y="-30"/>
      <point x="377" y="-9"/>
      <point x="331" y="30" type="curve"/>
      <point x="286" y="68"/>
      <point x="254" y="124"/>
      <point x="254" y="195" type="curve"/>
      <point x="254" y="249"/>
      <point x="275" y="296"/>
      <point x="308" y="333" type="curve"/>
      <point x="340" y="369"/>
      <point x="385" y="395"/>
      <point x="433" y="406" type="curve"/>
      <point x="245" y="489" type="line"/>
      <point x="374" y="787" type="line"/>
      <point x="448" y="752" type="line"/>
      <point x="345" y="523" type="line"/>
      <point x="506" y="448" type="line"/>
      <point x="542" y="462"/>
      <point x="573" y="481"/>
      <point x="596" y="506" type="curve"/>
      <point x="616" y="527"/>
      <point x="628" y="550"/>
      <point x="628" y="575" type="curve"/>
      <point x="628" y="602"/>
      <point x="617" y="622"/>
      <point x="603" y="638" type="curve"/>
      <point x="586" y="656"/>
      <point x="568" y="669"/>
      <point x="553" y="678" type="curve"/>
      <point x="605" y="729" type="line"/>
      <point x="674" y="693"/>
      <point x="705" y="638"/>
      <point x="705" y="578" type="curve"/>
      <point x="705" y="527"/>
      <point x="680" y="488"/>
      <point x="651" y="460" type="curve"/>
      <point x="627" y="436"/>
      <point x="598" y="418"/>
    </contour>
    <contour>
      <point x="667" y="202" type="curve"/>
      <point x="665" y="288"/>
      <point x="594" y="334"/>
      <point x="505" y="369" type="curve"/>
      <point x="465" y="360"/>
      <point x="422" y="341"/>
      <point x="388" y="312" type="curve"/>
      <point x="355" y="283"/>
      <point x="332" y="249"/>
      <point x="332" y="200" type="curve"/>
      <point x="336" y="101"/>
      <point x="414" y="45"/>
      <point x="502" y="42" type="curve"/>
      <point x="593" y="46"/>
      <point x="668" y="109"/>
    </contour>
  </outline>
</glyph>
<glyph name="hangzhounumeraleight-hani" format="2">
  <advance width="1000" height="1000"/>
  <unicode hex="3028"/>
  <outline>
    <contour>
      <point x="461" y="800" type="line"/>
      <point x="461" y="616" type="line"/>
      <point x="539" y="616" type="line"/>
      <point x="539" y="800" type="line"/>
    </contour>
    <contour>
      <point x="73" y="578" type="line"/>
      <point x="73" y="504" type="line"/>
      <point x="919" y="504" type="line"/>
      <point x="919" y="578" type="line"/>
    </contour>
    <contour>
      <point x="216" y="343" type="line"/>
      <point x="216" y="270" type="line"/>
      <point x="775" y="270" type="line"/>
      <point x="775" y="343" type="line"/>
    </contour>
    <contour>
      <point x="79" y="79" type="line"/>
      <point x="79" y="6" type="line"/>
      <point x="919" y="6" type="line"/>
      <point x="919" y="79" type="line"/>
    </contour>
  </outline>
</glyph>
<glyph name="hiraganasmallo-kana" format="2">
  <advance width="1000" height="1000"/>
  <unicode hex="3049"/>
  <outline>
    <contour>
      <point x="693" y="556" type="curve"/>
      <point x="658" y="498" type="line"/>
      <point x="709" y="472"/>
      <point x="807" y="409"/>
      <point x="845" y="372" type="curve"/>
      <point x="886" y="433" type="line"/>
      <point x="845" y="466"/>
      <point x="750" y="527"/>
    </contour>
    <contour>
      <point x="354" y="203" type="curve"/>
      <point x="358" y="58" type="line"/>
      <point x="358" y="34"/>
      <point x="349" y="20"/>
      <point x="328" y="20" type="curve"/>
      <point x="299" y="20"/>
      <point x="241" y="54"/>
      <point x="241" y="88" type="curve"/>
      <point x="241" y="129"/>
      <point x="295" y="173"/>
    </contour>
    <contour>
      <point x="184" y="494" type="curve"/>
      <point x="185" y="420" type="line"/>
      <point x="233" y="416"/>
      <point x="257" y="414"/>
      <point x="290" y="414" type="curve"/>
      <point x="311" y="414"/>
      <point x="332" y="415"/>
      <point x="354" y="417" type="curve"/>
      <point x="353" y="299" type="line"/>
      <point x="353" y="272" type="line"/>
      <point x="268" y="235"/>
      <point x="170" y="163"/>
      <point x="170" y="82" type="curve"/>
      <point x="170" y="8"/>
      <point x="283" y="-55"/>
      <point x="349" y="-55" type="curve"/>
      <point x="398" y="-55"/>
      <point x="427" y="-28"/>
      <point x="427" y="45" type="curve"/>
      <point x="423" y="232" type="line"/>
      <point x="474" y="250"/>
      <point x="528" y="262"/>
      <point x="598" y="262" type="curve"/>
      <point x="677" y="262"/>
      <point x="742" y="227"/>
      <point x="742" y="155" type="curve"/>
      <point x="742" y="84"/>
      <point x="678" y="40"/>
      <point x="601" y="27" type="curve"/>
      <point x="569" y="21"/>
      <point x="534" y="21"/>
      <point x="504" y="21" type="curve"/>
      <point x="528" y="-51" type="line"/>
      <point x="550" y="-50"/>
      <point x="586" y="-49"/>
      <point x="620" y="-42" type="curve"/>
      <point x="754" y="-16"/>
      <point x="816" y="59"/>
      <point x="816" y="155" type="curve"/>
      <point x="816" y="260"/>
      <point x="724" y="325"/>
      <point x="599" y="325" type="curve"/>
      <point x="540" y="325"/>
      <point x="480" y="314"/>
      <point x="422" y="297" type="curve"/>
      <point x="422" y="302" type="line"/>
      <point x="423" y="424" type="line"/>
      <point x="496" y="434"/>
      <point x="563" y="448"/>
      <point x="597" y="455" type="curve"/>
      <point x="595" y="526" type="line"/>
      <point x="547" y="512"/>
      <point x="486" y="501"/>
      <point x="425" y="494" type="curve"/>
      <point x="428" y="568" type="line"/>
      <point x="429" y="583"/>
      <point x="431" y="612"/>
      <point x="433" y="625" type="curve"/>
      <point x="353" y="625" type="line"/>
      <point x="355" y="613"/>
      <point x="357" y="584"/>
      <point x="357" y="568" type="curve"/>
      <point x="356" y="488" type="line"/>
      <point x="290" y="486" type="line"/>
      <point x="268" y="486"/>
      <point x="233" y="487"/>
    </contour>
  </outline>
</glyph>
<glyph name="hiraganagi-kana" format="2">
  <advance width="1000" height="1000"/>
  <unicode hex="304E"/>
  <outline>
    <contour>
      <point x="758" y="801" type="curve"/>
      <point x="708" y="779" type="line"/>
      <point x="738" y="737"/>
      <point x="766" y="687"/>
      <point x="789" y="638" type="curve"/>
      <point x="841" y="662" type="line"/>
      <point x="819" y="706"/>
      <point x="782" y="768"/>
    </contour>
    <contour>
      <point x="864" y="841" type="curve"/>
      <point x="814" y="818" type="line"/>
      <point x="845" y="777"/>
      <point x="874" y="727"/>
      <point x="898" y="679" type="curve"/>
      <point x="950" y="704" type="line"/>
      <point x="926" y="748"/>
      <point x="888" y="809"/>
    </contour>
    <contour>
      <point x="265" y="262" type="curve"/>
      <point x="187" y="278" type="line"/>
      <point x="165" y="234"/>
      <point x="147" y="192"/>
      <point x="148" y="135" type="curve"/>
      <point x="149" y="7"/>
      <point x="259" y="-52"/>
      <point x="455" y="-52" type="curve"/>
      <point x="541" y="-52"/>
      <point x="619" y="-45"/>
      <point x="689" y="-34" type="curve"/>
      <point x="693" y="46" type="line"/>
      <point x="620" y="31"/>
      <point x="547" y="24"/>
      <point x="454" y="24" type="curve"/>
      <point x="297" y="24"/>
      <point x="224" y="66"/>
      <point x="224" y="148" type="curve"/>
      <point x="224" y="193"/>
      <point x="241" y="227"/>
    </contour>
    <contour>
      <point x="462" y="695" type="curve"/>
      <point x="469" y="670" type="line"/>
      <point x="374" y="664"/>
      <point x="260" y="668"/>
      <point x="140" y="682" type="curve"/>
      <point x="144" y="609" type="line"/>
      <point x="269" y="598"/>
      <point x="392" y="595"/>
      <point x="489" y="602" type="curve"/>
      <point x="515" y="524" type="line"/>
      <point x="535" y="472" type="line"/>
      <point x="422" y="462"/>
      <point x="271" y="461"/>
      <point x="120" y="477" type="curve"/>
      <point x="124" y="402" type="line"/>
      <point x="279" y="391"/>
      <point x="443" y="392"/>
      <point x="564" y="403" type="curve"/>
      <point x="586" y="355"/>
      <point x="612" y="306"/>
      <point x="642" y="260" type="curve"/>
      <point x="610" y="264"/>
      <point x="546" y="271"/>
      <point x="492" y="276" type="curve"/>
      <point x="486" y="216" type="line"/>
      <point x="555" y="208"/>
      <point x="648" y="199"/>
      <point x="704" y="184" type="curve"/>
      <point x="746" y="245" type="line"/>
      <point x="731" y="259"/>
      <point x="719" y="272"/>
      <point x="708" y="288" type="curve"/>
      <point x="682" y="326"/>
      <point x="658" y="369"/>
      <point x="638" y="412" type="curve"/>
      <point x="708" y="422"/>
      <point x="771" y="435"/>
      <point x="819" y="448" type="curve"/>
      <point x="807" y="523" type="line"/>
      <point x="760" y="508"/>
      <point x="690" y="490"/>
      <point x="607" y="479" type="curve"/>
      <point x="584" y="539" type="line"/>
      <point x="562" y="609" type="line"/>
      <point x="629" y="617"/>
      <point x="690" y="630"/>
      <point x="738" y="643" type="curve"/>
      <point x="727" y="716" type="line"/>
      <point x="677" y="699"/>
      <point x="613" y="685"/>
      <point x="542" y="676" type="curve"/>
      <point x="532" y="717"/>
      <point x="523" y="757"/>
      <point x="519" y="795" type="curve"/>
      <point x="434" y="784" type="line"/>
      <point x="445" y="756"/>
      <point x="454" y="725"/>
    </contour>
  </outline>
</glyph>
<glyph name="hiraganada-kana" format="2">
  <advance width="1000" height="1000"/>
  <unicode hex="3060"/>
  <outline>
    <contour>
      <point x="507" y="468" type="curve"/>
      <point x="507" y="393" type="line"/>
      <point x="569" y="400"/>
      <point x="630" y="404"/>
      <point x="693" y="404" type="curve"/>
      <point x="751" y="404"/>
      <point x="810" y="399"/>
      <point x="861" y="392" type="curve"/>
      <point x="863" y="468" type="line"/>
      <point x="809" y="474"/>
      <point x="749" y="477"/>
      <point x="690" y="477" type="curve"/>
      <point x="626" y="477"/>
      <point x="560" y="473"/>
    </contour>
    <contour>
      <point x="528" y="225" type="curve"/>
      <point x="453" y="232" type="line"/>
      <point x="444" y="190"/>
      <point x="438" y="152"/>
      <point x="438" y="114" type="curve"/>
      <point x="438" y="15"/>
      <point x="524" y="-34"/>
      <point x="682" y="-34" type="curve"/>
      <point x="755" y="-34"/>
      <point x="821" y="-27"/>
      <point x="875" y="-19" type="curve"/>
      <point x="878" y="62" type="line"/>
      <point x="817" y="49"/>
      <point x="748" y="42"/>
      <point x="683" y="42" type="curve"/>
      <point x="540" y="42"/>
      <point x="514" y="88"/>
      <point x="514" y="135" type="curve"/>
      <point x="514" y="161"/>
      <point x="519" y="192"/>
    </contour>
    <contour>
      <point x="755" y="742" type="curve"/>
      <point x="702" y="719" type="line"/>
      <point x="729" y="681"/>
      <point x="763" y="621"/>
      <point x="783" y="580" type="curve"/>
      <point x="837" y="604" type="line"/>
      <point x="817" y="645"/>
      <point x="781" y="706"/>
    </contour>
    <contour>
      <point x="865" y="783" type="curve"/>
      <point x="813" y="760" type="line"/>
      <point x="841" y="722"/>
      <point x="874" y="665"/>
      <point x="896" y="621" type="curve"/>
      <point x="950" y="645" type="line"/>
      <point x="931" y="683"/>
      <point x="892" y="745"/>
    </contour>
    <contour>
      <point x="191" y="606" type="curve"/>
      <point x="155" y="606"/>
      <point x="119" y="607"/>
      <point x="71" y="613" type="curve"/>
      <point x="74" y="535" type="line"/>
      <point x="110" y="533"/>
      <point x="146" y="531"/>
      <point x="190" y="531" type="curve"/>
      <point x="218" y="531"/>
      <point x="249" y="532"/>
      <point x="282" y="534" type="curve"/>
      <point x="274" y="498"/>
      <point x="265" y="460"/>
      <point x="256" y="427" type="curve"/>
      <point x="219" y="286"/>
      <point x="148" y="83"/>
      <point x="88" y="-20" type="curve"/>
      <point x="176" y="-50" type="line"/>
      <point x="228" y="59"/>
      <point x="296" y="266"/>
      <point x="332" y="408" type="curve"/>
      <point x="344" y="452"/>
      <point x="354" y="498"/>
      <point x="364" y="542" type="curve"/>
      <point x="434" y="550"/>
      <point x="507" y="561"/>
      <point x="572" y="576" type="curve"/>
      <point x="572" y="654" type="line"/>
      <point x="511" y="639"/>
      <point x="445" y="627"/>
      <point x="380" y="619" type="curve"/>
      <point x="395" y="693" type="line"/>
      <point x="399" y="713"/>
      <point x="407" y="751"/>
      <point x="413" y="772" type="curve"/>
      <point x="317" y="780" type="line"/>
      <point x="319" y="760"/>
      <point x="318" y="726"/>
      <point x="314" y="698" type="curve"/>
      <point x="311" y="678"/>
      <point x="306" y="646"/>
      <point x="299" y="611" type="curve"/>
      <point x="260" y="608"/>
      <point x="224" y="606"/>
    </contour>
  </outline>
</glyph>
<glyph name="hiraganane-kana" format="2">
  <advance width="1000" height="1000"/>
  <unicode hex="306D"/>
  <outline>
    <contour>
      <point x="293" y="720" type="curve"/>
      <point x="288" y="625" type="line"/>
      <point x="236" y="616"/>
      <point x="177" y="609"/>
      <point x="144" y="607" type="curve"/>
      <point x="120" y="606"/>
      <point x="101" y="605"/>
      <point x="79" y="606" type="curve"/>
      <point x="87" y="524" type="line"/>
      <point x="283" y="551" type="line"/>
      <point x="276" y="454" type="line"/>
      <point x="226" y="375"/>
      <point x="111" y="219"/>
      <point x="55" y="149" type="curve"/>
      <point x="104" y="81" type="line"/>
      <point x="153" y="148"/>
      <point x="219" y="244"/>
      <point x="268" y="316" type="curve"/>
      <point x="267" y="277" type="line"/>
      <point x="265" y="168"/>
      <point x="265" y="117"/>
      <point x="264" y="21" type="curve"/>
      <point x="264" y="5"/>
      <point x="263" y="-24"/>
      <point x="261" y="-38" type="curve"/>
      <point x="348" y="-38" type="line"/>
      <point x="346" y="-20"/>
      <point x="344" y="5"/>
      <point x="343" y="23" type="curve"/>
      <point x="338" y="112"/>
      <point x="339" y="173"/>
      <point x="339" y="264" type="curve"/>
      <point x="339" y="303"/>
      <point x="340" y="347"/>
      <point x="343" y="393" type="curve"/>
      <point x="432" y="486"/>
      <point x="562" y="582"/>
      <point x="654" y="582" type="curve"/>
      <point x="739" y="582"/>
      <point x="798" y="502"/>
      <point x="798" y="377" type="curve"/>
      <point x="798" y="327"/>
      <point x="796" y="280"/>
      <point x="790" y="238" type="curve"/>
      <point x="744" y="258"/>
      <point x="696" y="268"/>
      <point x="644" y="268" type="curve"/>
      <point x="542" y="268"/>
      <point x="471" y="211"/>
      <point x="471" y="131" type="curve"/>
      <point x="471" y="30"/>
      <point x="552" y="-10"/>
      <point x="648" y="-10" type="curve"/>
      <point x="749" y="-10"/>
      <point x="808" y="38"/>
      <point x="841" y="124" type="curve"/>
      <point x="871" y="99"/>
      <point x="900" y="70"/>
      <point x="930" y="36" type="curve"/>
      <point x="973" y="101" type="line"/>
      <point x="935" y="141"/>
      <point x="898" y="173"/>
      <point x="861" y="199" type="curve"/>
      <point x="870" y="247"/>
      <point x="874" y="304"/>
      <point x="874" y="366" type="curve"/>
      <point x="874" y="531"/>
      <point x="802" y="652"/>
      <point x="668" y="652" type="curve"/>
      <point x="558" y="652"/>
      <point x="434" y="563"/>
      <point x="349" y="487" type="curve"/>
      <point x="353" y="537" type="line"/>
      <point x="398" y="607" type="line"/>
      <point x="369" y="642" type="line"/>
      <point x="363" y="640" type="line"/>
      <point x="370" y="710"/>
      <point x="378" y="766"/>
      <point x="383" y="791" type="curve"/>
      <point x="290" y="794" type="line"/>
      <point x="293" y="769"/>
      <point x="293" y="742"/>
    </contour>
    <contour>
      <point x="774" y="169" type="curve"/>
      <point x="753" y="102"/>
      <point x="713" y="59"/>
      <point x="642" y="59" type="curve"/>
      <point x="586" y="59"/>
      <point x="539" y="83"/>
      <point x="539" y="134" type="curve"/>
      <point x="539" y="177"/>
      <point x="586" y="205"/>
      <point x="638" y="205" type="curve"/>
      <point x="687" y="205"/>
      <point x="732" y="192"/>
    </contour>
  </outline>
</glyph>
<glyph name="hiraganama-kana" format="2">
  <advance width="1000" height="1000"/>
  <unicode hex="307E"/>
  <outline>
    <contour>
      <point x="500" y="178" type="curve"/>
      <point x="501" y="111" type="line"/>
      <point x="501" y="42"/>
      <point x="452" y="24"/>
      <point x="395" y="24" type="curve"/>
      <point x="296" y="24"/>
      <point x="256" y="59"/>
      <point x="256" y="105" type="curve"/>
      <point x="256" y="151"/>
      <point x="308" y="188"/>
      <point x="403" y="188" type="curve"/>
      <point x="436" y="188"/>
      <point x="469" y="185"/>
    </contour>
    <contour>
      <point x="185" y="473" type="curve"/>
      <point x="186" y="398" type="line"/>
      <point x="258" y="390"/>
      <point x="368" y="384"/>
      <point x="436" y="384" type="curve"/>
      <point x="493" y="384" type="line"/>
      <point x="497" y="248" type="line"/>
      <point x="470" y="252"/>
      <point x="442" y="254"/>
      <point x="413" y="254" type="curve"/>
      <point x="269" y="254"/>
      <point x="182" y="192"/>
      <point x="182" y="101" type="curve"/>
      <point x="182" y="5"/>
      <point x="260" y="-46"/>
      <point x="404" y="-46" type="curve"/>
      <point x="534" y="-46"/>
      <point x="580" y="24"/>
      <point x="580" y="94" type="curve"/>
      <point x="578" y="156" type="line"/>
      <point x="678" y="120"/>
      <point x="761" y="59"/>
      <point x="820" y="5" type="curve"/>
      <point x="866" y="76" type="line"/>
      <point x="809" y="123"/>
      <point x="707" y="196"/>
      <point x="574" y="232" type="curve"/>
      <point x="567" y="386" type="line"/>
      <point x="662" y="389"/>
      <point x="750" y="397"/>
      <point x="844" y="409" type="curve"/>
      <point x="845" y="484" type="line"/>
      <point x="754" y="470"/>
      <point x="663" y="461"/>
      <point x="566" y="457" type="curve"/>
      <point x="566" y="469" type="line"/>
      <point x="566" y="597" type="line"/>
      <point x="662" y="602"/>
      <point x="757" y="611"/>
      <point x="836" y="620" type="curve"/>
      <point x="837" y="693" type="line"/>
      <point x="747" y="679"/>
      <point x="656" y="670"/>
      <point x="566" y="666" type="curve"/>
      <point x="567" y="727" type="line"/>
      <point x="568" y="756"/>
      <point x="570" y="776"/>
      <point x="573" y="794" type="curve"/>
      <point x="488" y="794" type="line"/>
      <point x="490" y="780"/>
      <point x="492" y="751"/>
      <point x="492" y="734" type="curve"/>
      <point x="492" y="663" type="line"/>
      <point x="446" y="663" type="line"/>
      <point x="379" y="663"/>
      <point x="255" y="673"/>
      <point x="190" y="685" type="curve"/>
      <point x="191" y="611" type="line"/>
      <point x="254" y="604"/>
      <point x="377" y="594"/>
      <point x="447" y="594" type="curve"/>
      <point x="491" y="594" type="line"/>
      <point x="491" y="469" type="line"/>
      <point x="491" y="454" type="line"/>
      <point x="437" y="454" type="line"/>
      <point x="371" y="454"/>
      <point x="257" y="461"/>
    </contour>
  </outline>
</glyph>
<glyph name="hiraganamu-kana" format="2">
  <advance width="1000" height="1000"/>
  <unicode hex="3080"/>
  <outline>
    <contour>
      <point x="722" y="692" type="curve"/>
      <point x="671" y="640" type="line"/>
      <point x="726" y="600"/>
      <point x="817" y="514"/>
      <point x="866" y="451" type="curve"/>
      <point x="922" y="508" type="line"/>
      <point x="877" y="564"/>
      <point x="781" y="652"/>
    </contour>
    <contour>
      <point x="238" y="199" type="curve"/>
      <point x="202" y="199"/>
      <point x="169" y="231"/>
      <point x="169" y="287" type="curve"/>
      <point x="169" y="362"/>
      <point x="211" y="415"/>
      <point x="261" y="415" type="curve"/>
      <point x="296" y="415"/>
      <point x="319" y="386"/>
      <point x="319" y="338" type="curve"/>
      <point x="319" y="271"/>
      <point x="298" y="199"/>
    </contour>
    <contour>
      <point x="391" y="342" type="curve"/>
      <point x="391" y="377"/>
      <point x="382" y="408"/>
      <point x="366" y="431" type="curve"/>
      <point x="366" y="582" type="line"/>
      <point x="428" y="588"/>
      <point x="496" y="598"/>
      <point x="558" y="612" type="curve"/>
      <point x="558" y="689" type="line"/>
      <point x="495" y="672"/>
      <point x="429" y="660"/>
      <point x="366" y="653" type="curve"/>
      <point x="366" y="698" type="line"/>
      <point x="366" y="735"/>
      <point x="369" y="772"/>
      <point x="372" y="793" type="curve"/>
      <point x="284" y="793" type="line"/>
      <point x="290" y="772"/>
      <point x="292" y="738"/>
      <point x="292" y="698" type="curve"/>
      <point x="292" y="647" type="line"/>
      <point x="250" y="646" type="line"/>
      <point x="201" y="646"/>
      <point x="151" y="651"/>
      <point x="92" y="660" type="curve"/>
      <point x="96" y="586" type="line"/>
      <point x="154" y="579"/>
      <point x="212" y="576"/>
      <point x="255" y="576" type="curve"/>
      <point x="292" y="577" type="line"/>
      <point x="292" y="477" type="line"/>
      <point x="284" y="479"/>
      <point x="275" y="480"/>
      <point x="265" y="480" type="curve"/>
      <point x="167" y="480"/>
      <point x="101" y="386"/>
      <point x="101" y="283" type="curve"/>
      <point x="101" y="167"/>
      <point x="174" y="125"/>
      <point x="230" y="125" type="curve"/>
      <point x="241" y="125"/>
      <point x="252" y="126"/>
      <point x="262" y="128" type="curve"/>
      <point x="261" y="80" type="line"/>
      <point x="261" y="5"/>
      <point x="290" y="-42"/>
      <point x="491" y="-42" type="curve"/>
      <point x="557" y="-42"/>
      <point x="655" y="-34"/>
      <point x="698" y="-22" type="curve"/>
      <point x="789" y="2"/>
      <point x="824" y="46"/>
      <point x="828" y="140" type="curve"/>
      <point x="830" y="181"/>
      <point x="829" y="207"/>
      <point x="828" y="248" type="curve"/>
      <point x="743" y="274" type="line"/>
      <point x="748" y="234"/>
      <point x="749" y="201"/>
      <point x="749" y="161" type="curve"/>
      <point x="749" y="95"/>
      <point x="718" y="65"/>
      <point x="666" y="50" type="curve"/>
      <point x="630" y="40"/>
      <point x="552" y="32"/>
      <point x="496" y="32" type="curve"/>
      <point x="351" y="32"/>
      <point x="336" y="54"/>
      <point x="336" y="109" type="curve"/>
      <point x="338" y="172" type="line"/>
      <point x="378" y="217"/>
      <point x="391" y="286"/>
    </contour>
  </outline>
</glyph>
<glyph name="hiraganayo-kana" format="2">
  <advance width="1000" height="1000"/>
  <unicode hex="3088"/>
  <outline>
    <contour>
      <point x="466" y="196" type="curve"/>
      <point x="467" y="132" type="line"/>
      <point x="467" y="63"/>
      <point x="431" y="29"/>
      <point x="358" y="29" type="curve"/>
      <point x="262" y="29"/>
      <point x="206" y="60"/>
      <point x="206" y="115" type="curve"/>
      <point x="206" y="170"/>
      <point x="265" y="206"/>
      <point x="368" y="206" type="curve"/>
      <point x="401" y="206"/>
      <point x="434" y="203"/>
    </contour>
    <contour>
      <point x="541" y="785" type="curve"/>
      <point x="446" y="785" type="line"/>
      <point x="451" y="767"/>
      <point x="454" y="722"/>
      <point x="454" y="686" type="curve"/>
      <point x="455" y="643"/>
      <point x="455" y="561"/>
      <point x="455" y="502" type="curve"/>
      <point x="455" y="443"/>
      <point x="459" y="351"/>
      <point x="463" y="270" type="curve"/>
      <point x="435" y="274"/>
      <point x="407" y="276"/>
      <point x="378" y="276" type="curve"/>
      <point x="205" y="276"/>
      <point x="126" y="202"/>
      <point x="126" y="112" type="curve"/>
      <point x="126" y="-2"/>
      <point x="228" y="-46"/>
      <point x="366" y="-46" type="curve"/>
      <point x="499" y="-46"/>
      <point x="549" y="24"/>
      <point x="549" y="106" type="curve"/>
      <point x="547" y="173" type="line"/>
      <point x="651" y="136"/>
      <point x="743" y="72"/>
      <point x="807" y="7" type="curve"/>
      <point x="855" y="83" type="line"/>
      <point x="783" y="148"/>
      <point x="672" y="218"/>
      <point x="544" y="253" type="curve"/>
      <point x="539" y="340"/>
      <point x="534" y="437"/>
      <point x="534" y="502" type="curve"/>
      <point x="534" y="511" type="line"/>
      <point x="616" y="512"/>
      <point x="744" y="518"/>
      <point x="833" y="527" type="curve"/>
      <point x="830" y="602" type="line"/>
      <point x="740" y="591"/>
      <point x="613" y="586"/>
      <point x="534" y="584" type="curve"/>
      <point x="534" y="686" type="line"/>
      <point x="535" y="716"/>
      <point x="538" y="764"/>
    </contour>
  </outline>
</glyph>
<glyph name="hiraganaru-kana" format="2">
  <advance width="1000" height="1000"/>
  <unicode hex="308B"/>
  <outline>
    <contour>
      <point x="580" y="33" type="curve"/>
      <point x="555" y="29"/>
      <point x="528" y="27"/>
      <point x="499" y="27" type="curve"/>
      <point x="421" y="27"/>
      <point x="366" y="57"/>
      <point x="366" y="105" type="curve"/>
      <point x="366" y="140"/>
      <point x="401" y="169"/>
      <point x="446" y="169" type="curve"/>
      <point x="522" y="169"/>
      <point x="572" y="112"/>
    </contour>
    <contour>
      <point x="238" y="737" type="curve"/>
      <point x="241" y="654" type="line"/>
      <point x="262" y="657"/>
      <point x="285" y="659"/>
      <point x="307" y="660" type="curve"/>
      <point x="360" y="663"/>
      <point x="560" y="672"/>
      <point x="613" y="674" type="curve"/>
      <point x="562" y="629"/>
      <point x="437" y="524"/>
      <point x="381" y="478" type="curve"/>
      <point x="323" y="429"/>
      <point x="195" y="322"/>
      <point x="112" y="254" type="curve"/>
      <point x="169" y="195" type="line"/>
      <point x="296" y="324"/>
      <point x="385" y="395"/>
      <point x="552" y="395" type="curve"/>
      <point x="682" y="395"/>
      <point x="776" y="321"/>
      <point x="776" y="223" type="curve"/>
      <point x="776" y="141"/>
      <point x="731" y="83"/>
      <point x="651" y="52" type="curve"/>
      <point x="639" y="147"/>
      <point x="572" y="229"/>
      <point x="447" y="229" type="curve"/>
      <point x="354" y="229"/>
      <point x="293" y="168"/>
      <point x="293" y="99" type="curve"/>
      <point x="293" y="16"/>
      <point x="376" y="-43"/>
      <point x="512" y="-43" type="curve"/>
      <point x="724" y="-43"/>
      <point x="856" y="61"/>
      <point x="856" y="222" type="curve"/>
      <point x="856" y="357"/>
      <point x="737" y="457"/>
      <point x="571" y="457" type="curve"/>
      <point x="526" y="457"/>
      <point x="478" y="452"/>
      <point x="432" y="436" type="curve"/>
      <point x="510" y="501"/>
      <point x="646" y="617"/>
      <point x="696" y="655" type="curve"/>
      <point x="714" y="670"/>
      <point x="734" y="683"/>
      <point x="752" y="696" type="curve"/>
      <point x="706" y="754" type="line"/>
      <point x="696" y="751"/>
      <point x="682" y="748"/>
      <point x="652" y="746" type="curve"/>
      <point x="599" y="741"/>
      <point x="361" y="733"/>
      <point x="309" y="733" type="curve"/>
      <point x="289" y="733"/>
      <point x="261" y="734"/>
    </contour>
  </outline>
</glyph>
<glyph name="hiraganan-kana" format="2">
  <advance width="1000" height="1000"/>
  <unicode hex="3093"/>
  <outline>
    <contour>
      <point x="547" y="742" type="curve"/>
      <point x="459" y="778" type="line"/>
      <point x="447" y="749"/>
      <point x="434" y="724"/>
      <point x="422" y="701" type="curve"/>
      <point x="368" y="604"/>
      <point x="149" y="194"/>
      <point x="76" y="-8" type="curve"/>
      <point x="162" y="-38" type="line"/>
      <point x="175" y="12"/>
      <point x="218" y="130"/>
      <point x="248" y="190" type="curve"/>
      <point x="287" y="268"/>
      <point x="362" y="350"/>
      <point x="443" y="350" type="curve"/>
      <point x="488" y="350"/>
      <point x="513" y="324"/>
      <point x="516" y="280" type="curve"/>
      <point x="519" y="225"/>
      <point x="517" y="148"/>
      <point x="520" y="90" type="curve"/>
      <point x="524" y="31"/>
      <point x="558" y="-37"/>
      <point x="665" y="-37" type="curve"/>
      <point x="810" y="-37"/>
      <point x="894" y="75"/>
      <point x="947" y="236" type="curve"/>
      <point x="881" y="290" type="line"/>
      <point x="855" y="184"/>
      <point x="789" y="46"/>
      <point x="678" y="46" type="curve"/>
      <point x="634" y="46"/>
      <point x="600" y="67"/>
      <point x="597" y="117" type="curve"/>
      <point x="594" y="166"/>
      <point x="595" y="243"/>
      <point x="593" y="302" type="curve"/>
      <point x="590" y="381"/>
      <point x="542" y="423"/>
      <point x="476" y="423" type="curve"/>
      <point x="428" y="423"/>
      <point x="375" y="405"/>
      <point x="327" y="361" type="curve"/>
      <point x="379" y="458"/>
      <point x="471" y="624"/>
      <point x="515" y="693" type="curve"/>
      <point x="527" y="712"/>
      <point x="538" y="730"/>
    </contour>
  </outline>
</glyph>
<glyph name="hiraganavu-kana" format="2">
  <advance width="1000" height="1000"/>
  <unicode hex="3094"/>
  <outline>
    <contour>
      <point x="691" y="334" type="curve"/>
      <point x="691" y="156"/>
      <point x="520" y="60"/>
      <point x="277" y="29" type="curve"/>
      <point x="323" y="-46" type="line"/>
      <point x="582" y="-7"/>
      <point x="776" y="115"/>
      <point x="776" y="331" type="curve"/>
      <point x="776" y="475"/>
      <point x="671" y="554"/>
      <point x="528" y="554" type="curve"/>
      <point x="413" y="554"/>
      <point x="300" y="522"/>
      <point x="229" y="505" type="curve"/>
      <point x="199" y="499"/>
      <point x="165" y="493"/>
      <point x="138" y="490" type="curve"/>
      <point x="163" y="398" type="line"/>
      <point x="187" y="408"/>
      <point x="216" y="419"/>
      <point x="248" y="428" type="curve"/>
      <point x="306" y="445"/>
      <point x="404" y="479"/>
      <point x="520" y="479" type="curve"/>
      <point x="623" y="479"/>
      <point x="691" y="419"/>
    </contour>
    <contour>
      <point x="271" y="785" type="curve"/>
      <point x="258" y="709" type="line"/>
      <point x="372" y="689"/>
      <point x="573" y="669"/>
      <point x="684" y="662" type="curve"/>
      <point x="696" y="739" type="line"/>
      <point x="599" y="740"/>
      <point x="381" y="760"/>
    </contour>
    <contour>
      <point x="761" y="690" type="curve"/>
      <point x="708" y="667" type="line"/>
      <point x="735" y="629"/>
      <point x="770" y="569"/>
      <point x="790" y="528" type="curve"/>
      <point x="844" y="553" type="line"/>
      <point x="823" y="593"/>
      <point x="787" y="654"/>
    </contour>
    <contour>
      <point x="872" y="730" type="curve"/>
      <point x="819" y="707" type="line"/>
      <point x="847" y="670"/>
      <point x="881" y="613"/>
      <point x="902" y="569" type="curve"/>
      <point x="956" y="594" type="line"/>
      <point x="937" y="631"/>
      <point x="899" y="693"/>
    </contour>
  </outline>
</glyph>
<glyph name="hiraganavoicediterationmod-kana" format="2">
  <advance width="1000" height="1000"/>
  <unicode hex="309E"/>
  <outline>
    <contour>
      <point x="583" y="701" type="curve"/>
      <point x="526" y="677" type="line"/>
      <point x="552" y="641"/>
      <point x="594" y="566"/>
      <point x="616" y="524" type="curve"/>
      <point x="675" y="550" type="line"/>
      <point x="653" y="589"/>
      <point x="608" y="666"/>
    </contour>
    <contour>
      <point x="713" y="743" type="curve"/>
      <point x="656" y="719" type="line"/>
      <point x="683" y="683"/>
      <point x="724" y="610"/>
      <point x="747" y="567" type="curve"/>
      <point x="806" y="593" type="line"/>
      <point x="784" y="633"/>
      <point x="738" y="708"/>
    </contour>
    <contour>
      <point x="690" y="163" type="curve"/>
      <point x="711" y="227" type="line"/>
      <point x="645" y="318"/>
      <point x="482" y="503"/>
      <point x="354" y="620" type="curve"/>
      <point x="285" y="570" type="line"/>
      <point x="391" y="475"/>
      <point x="548" y="307"/>
      <point x="604" y="222" type="curve"/>
      <point x="549" y="200"/>
      <point x="409" y="145"/>
      <point x="347" y="121" type="curve"/>
      <point x="386" y="46" type="line"/>
      <point x="453" y="73"/>
      <point x="608" y="136"/>
    </contour>
  </outline>
</glyph>
<glyph name="katakanasmalli-kana" format="2">
  <advance width="1000" height="1000"/>
  <unicode hex="30A3"/>
  <outline>
    <contour>
      <point x="122" y="258" type="curve"/>
      <point x="160" y="184" type="line"/>
      <point x="273" y="219"/>
      <point x="389" y="271"/>
      <point x="473" y="316" type="curve"/>
      <point x="473" y="10" type="line"/>
      <point x="473" y="-21"/>
      <point x="471" y="-62"/>
      <point x="469" y="-78" type="curve"/>
      <point x="561" y="-78" type="line"/>
      <point x="557" y="-62"/>
      <point x="556" y="-21"/>
      <point x="556" y="10" type="curve"/>
      <point x="556" y="366" type="line"/>
      <point x="647" y="425"/>
      <point x="732" y="498"/>
      <point x="782" y="553" type="curve"/>
      <point x="720" y="613" type="line"/>
      <point x="669" y="549"/>
      <point x="577" y="467"/>
      <point x="482" y="409" type="curve"/>
      <point x="401" y="359"/>
      <point x="254" y="289"/>
    </contour>
  </outline>
</glyph>
<glyph name="katakanasmalle-kana" format="2">
  <advance width="1000" height="1000"/>
  <unicode hex="30A7"/>
  <outline>
    <contour>
      <point x="155" y="77" type="curve"/>
      <point x="155" y="-7" type="line"/>
      <point x="179" y="-5"/>
      <point x="205" y="-4"/>
      <point x="227" y="-4" type="curve"/>
      <point x="780" y="-4" type="line"/>
      <point x="796" y="-4"/>
      <point x="827" y="-5"/>
      <point x="847" y="-7" type="curve"/>
      <point x="847" y="77" type="line"/>
      <point x="827" y="74"/>
      <point x="804" y="72"/>
      <point x="780" y="72" type="curve"/>
      <point x="538" y="72" type="line"/>
      <point x="538" y="440" type="line"/>
      <point x="733" y="440" type="line"/>
      <point x="756" y="440"/>
      <point x="782" y="439"/>
      <point x="804" y="437" type="curve"/>
      <point x="804" y="517" type="line"/>
      <point x="783" y="515"/>
      <point x="758" y="513"/>
      <point x="733" y="513" type="curve"/>
      <point x="273" y="513" type="line"/>
      <point x="257" y="513"/>
      <point x="225" y="514"/>
      <point x="204" y="517" type="curve"/>
      <point x="204" y="437" type="line"/>
      <point x="225" y="439"/>
      <point x="257" y="440"/>
      <point x="273" y="440" type="curve"/>
      <point x="457" y="440" type="line"/>
      <point x="457" y="72" type="line"/>
      <point x="227" y="72" type="line"/>
      <point x="204" y="72"/>
      <point x="178" y="74"/>
    </contour>
  </outline>
</glyph>
<glyph name="katakanako-kana" format="2">
  <advance width="1000" height="1000"/>
  <unicode hex="30B3"/>
  <outline>
    <contour>
      <point x="159" y="134" type="curve"/>
      <point x="159" y="43" type="line"/>
      <point x="186" y="45"/>
      <point x="231" y="47"/>
      <point x="272" y="47" type="curve"/>
      <point x="761" y="47" type="line"/>
      <point x="759" y="-9" type="line"/>
      <point x="849" y="-9" type="line"/>
      <point x="848" y="7"/>
      <point x="845" y="52"/>
      <point x="845" y="88" type="curve"/>
      <point x="845" y="604" type="line"/>
      <point x="845" y="628"/>
      <point x="847" y="659"/>
      <point x="848" y="682" type="curve"/>
      <point x="828" y="681"/>
      <point x="798" y="680"/>
      <point x="774" y="680" type="curve"/>
      <point x="281" y="680" type="line"/>
      <point x="249" y="680"/>
      <point x="205" y="682"/>
      <point x="172" y="686" type="curve"/>
      <point x="172" y="597" type="line"/>
      <point x="195" y="598"/>
      <point x="245" y="600"/>
      <point x="282" y="600" type="curve"/>
      <point x="761" y="600" type="line"/>
      <point x="761" y="128" type="line"/>
      <point x="270" y="128" type="line"/>
      <point x="228" y="128"/>
      <point x="185" y="131"/>
    </contour>
  </outline>
</glyph>
<glyph name="katakanahu-kana" format="2">
  <advance width="1000" height="1000"/>
  <unicode hex="30D5"/>
  <outline>
    <contour>
      <point x="861" y="665" type="curve"/>
      <point x="800" y="704" type="line"/>
      <point x="781" y="699"/>
      <point x="762" y="699"/>
      <point x="747" y="699" type="curve"/>
      <point x="701" y="699"/>
      <point x="302" y="699"/>
      <point x="245" y="699" type="curve"/>
      <point x="212" y="699"/>
      <point x="173" y="702"/>
      <point x="145" y="705" type="curve"/>
      <point x="145" y="617" type="line"/>
      <point x="171" y="618"/>
      <point x="205" y="620"/>
      <point x="245" y="620" type="curve"/>
      <point x="302" y="620"/>
      <point x="698" y="620"/>
      <point x="756" y="620" type="curve"/>
      <point x="742" y="524"/>
      <point x="696" y="385"/>
      <point x="625" y="294" type="curve"/>
      <point x="541" y="187"/>
      <point x="429" y="102"/>
      <point x="235" y="53" type="curve"/>
      <point x="303" y="-22" type="line"/>
      <point x="487" y="36"/>
      <point x="606" y="129"/>
      <point x="697" y="246" type="curve"/>
      <point x="776" y="349"/>
      <point x="824" y="510"/>
      <point x="846" y="615" type="curve"/>
      <point x="850" y="634"/>
      <point x="854" y="651"/>
    </contour>
  </outline>
</glyph>
<glyph name="katakanabu-kana" format="2">
  <advance width="1000" height="1000"/>
  <unicode hex="30D6"/>
  <outline>
    <contour>
      <point x="884" y="857" type="curve"/>
      <point x="829" y="834" type="line"/>
      <point x="856" y="799"/>
      <point x="889" y="742"/>
      <point x="911" y="701" type="curve"/>
      <point x="966" y="725" type="line"/>
      <point x="945" y="763"/>
      <point x="909" y="823"/>
    </contour>
    <contour>
      <point x="846" y="651" type="curve"/>
      <point x="797" y="682" type="line"/>
      <point x="835" y="699" type="line"/>
      <point x="815" y="737"/>
      <point x="779" y="797"/>
      <point x="756" y="831" type="curve"/>
      <point x="701" y="808" type="line"/>
      <point x="724" y="776"/>
      <point x="753" y="727"/>
      <point x="774" y="688" type="curve"/>
      <point x="758" y="685"/>
      <point x="744" y="685"/>
      <point x="731" y="685" type="curve"/>
      <point x="686" y="685"/>
      <point x="287" y="685"/>
      <point x="230" y="685" type="curve"/>
      <point x="197" y="685"/>
      <point x="157" y="688"/>
      <point x="130" y="692" type="curve"/>
      <point x="130" y="603" type="line"/>
      <point x="155" y="604"/>
      <point x="190" y="606"/>
      <point x="229" y="606" type="curve"/>
      <point x="287" y="606"/>
      <point x="683" y="606"/>
      <point x="741" y="606" type="curve"/>
      <point x="727" y="510"/>
      <point x="681" y="371"/>
      <point x="610" y="280" type="curve"/>
      <point x="526" y="173"/>
      <point x="414" y="88"/>
      <point x="220" y="40" type="curve"/>
      <point x="288" y="-35" type="line"/>
      <point x="471" y="22"/>
      <point x="590" y="115"/>
      <point x="682" y="232" type="curve"/>
      <point x="761" y="335"/>
      <point x="809" y="496"/>
      <point x="831" y="601" type="curve"/>
      <point x="835" y="621"/>
      <point x="839" y="637"/>
    </contour>
  </outline>
</glyph>
<glyph name="katakanamo-kana" format="2">
  <advance width="1000" height="1000"/>
  <unicode hex="30E2"/>
  <outline>
    <contour>
      <point x="115" y="426" type="curve"/>
      <point x="115" y="342" type="line"/>
      <point x="143" y="344"/>
      <point x="184" y="346"/>
      <point x="209" y="346" type="curve"/>
      <point x="404" y="346" type="line"/>
      <point x="404" y="120" type="line"/>
      <point x="404" y="38"/>
      <point x="452" y="-15"/>
      <point x="603" y="-15" type="curve"/>
      <point x="698" y="-15"/>
      <point x="794" y="-11"/>
      <point x="872" y="-5" type="curve"/>
      <point x="877" y="79" type="line"/>
      <point x="791" y="69"/>
      <point x="709" y="65"/>
      <point x="614" y="65" type="curve"/>
      <point x="522" y="65"/>
      <point x="487" y="95"/>
      <point x="487" y="145" type="curve"/>
      <point x="487" y="346" type="line"/>
      <point x="826" y="346" type="line"/>
      <point x="848" y="346"/>
      <point x="884" y="346"/>
      <point x="907" y="343" type="curve"/>
      <point x="907" y="425" type="line"/>
      <point x="885" y="423"/>
      <point x="845" y="421"/>
      <point x="824" y="421" type="curve"/>
      <point x="487" y="421" type="line"/>
      <point x="487" y="632" type="line"/>
      <point x="747" y="632" type="line"/>
      <point x="782" y="632"/>
      <point x="805" y="631"/>
      <point x="829" y="630" type="curve"/>
      <point x="829" y="710" type="line"/>
      <point x="807" y="708"/>
      <point x="779" y="706"/>
      <point x="747" y="706" type="curve"/>
      <point x="673" y="706"/>
      <point x="342" y="706"/>
      <point x="271" y="706" type="curve"/>
      <point x="237" y="706"/>
      <point x="208" y="708"/>
      <point x="181" y="710" type="curve"/>
      <point x="181" y="630" type="line"/>
      <point x="208" y="632"/>
      <point x="237" y="632"/>
      <point x="271" y="632" type="curve"/>
      <point x="404" y="632" type="line"/>
      <point x="404" y="421" type="line"/>
      <point x="209" y="421" type="line"/>
      <point x="183" y="421"/>
      <point x="142" y="424"/>
    </contour>
  </outline>
</glyph>
<glyph name="katakanasmallka-kana" format="2">
  <advance width="1000" height="1000"/>
  <unicode hex="30F5"/>
  <outline>
    <contour>
      <point x="799" y="442" type="curve"/>
      <point x="750" y="468" type="line"/>
      <point x="736" y="466"/>
      <point x="720" y="464"/>
      <point x="699" y="464" type="curve"/>
      <point x="494" y="464" type="line"/>
      <point x="499" y="552" type="line"/>
      <point x="500" y="571"/>
      <point x="501" y="594"/>
      <point x="503" y="613" type="curve"/>
      <point x="418" y="613" type="line"/>
      <point x="421" y="595"/>
      <point x="423" y="568"/>
      <point x="423" y="549" type="curve"/>
      <point x="423" y="519"/>
      <point x="422" y="491"/>
      <point x="421" y="464" type="curve"/>
      <point x="271" y="464" type="line"/>
      <point x="240" y="464"/>
      <point x="208" y="466"/>
      <point x="179" y="469" type="curve"/>
      <point x="179" y="390" type="line"/>
      <point x="208" y="392"/>
      <point x="240" y="393"/>
      <point x="271" y="393" type="curve"/>
      <point x="414" y="393" type="line"/>
      <point x="394" y="232"/>
      <point x="339" y="125"/>
      <point x="249" y="50" type="curve"/>
      <point x="228" y="32"/>
      <point x="193" y="7"/>
      <point x="166" y="-6" type="curve"/>
      <point x="234" y="-61" type="line"/>
      <point x="383" y="42"/>
      <point x="459" y="169"/>
      <point x="487" y="393" type="curve"/>
      <point x="719" y="393" type="line"/>
      <point x="719" y="302"/>
      <point x="708" y="110"/>
      <point x="679" y="49" type="curve"/>
      <point x="669" y="30"/>
      <point x="655" y="23"/>
      <point x="631" y="23" type="curve"/>
      <point x="601" y="23"/>
      <point x="546" y="27"/>
      <point x="504" y="33" type="curve"/>
      <point x="512" y="-43" type="line"/>
      <point x="551" y="-46"/>
      <point x="613" y="-49"/>
      <point x="650" y="-49" type="curve"/>
      <point x="698" y="-49"/>
      <point x="726" y="-32"/>
      <point x="743" y="1" type="curve"/>
      <point x="781" y="82"/>
      <point x="793" y="326"/>
      <point x="795" y="402" type="curve"/>
      <point x="795" y="413"/>
      <point x="797" y="429"/>
    </contour>
  </outline>
</glyph>
<glyph name="katakanava-kana" format="2">
  <advance width="1000" height="1000"/>
  <unicode hex="30F7"/>
  <outline>
    <contour>
      <point x="740" y="833" type="curve"/>
      <point x="681" y="815" type="line"/>
      <point x="704" y="779"/>
      <point x="730" y="733"/>
      <point x="747" y="693" type="curve"/>
      <point x="808" y="713" type="line"/>
      <point x="790" y="750"/>
      <point x="762" y="799"/>
    </contour>
    <contour>
      <point x="869" y="859" type="curve"/>
      <point x="810" y="841" type="line"/>
      <point x="834" y="805"/>
      <point x="859" y="760"/>
      <point x="878" y="718" type="curve"/>
      <point x="939" y="738" type="line"/>
      <point x="920" y="778"/>
      <point x="892" y="825"/>
    </contour>
    <contour>
      <point x="853" y="640" type="curve"/>
      <point x="793" y="679" type="line"/>
      <point x="775" y="675"/>
      <point x="751" y="674"/>
      <point x="730" y="674" type="curve"/>
      <point x="673" y="674"/>
      <point x="250" y="674"/>
      <point x="216" y="674" type="curve"/>
      <point x="173" y="674"/>
      <point x="136" y="674"/>
      <point x="110" y="676" type="curve"/>
      <point x="112" y="655"/>
      <point x="113" y="632"/>
      <point x="113" y="610" type="curve"/>
      <point x="113" y="567"/>
      <point x="113" y="427"/>
      <point x="113" y="396" type="curve"/>
      <point x="113" y="377"/>
      <point x="112" y="356"/>
      <point x="110" y="332" type="curve"/>
      <point x="200" y="332" type="line"/>
      <point x="198" y="357"/>
      <point x="197" y="381"/>
      <point x="197" y="396" type="curve"/>
      <point x="197" y="427"/>
      <point x="197" y="567"/>
      <point x="197" y="596" type="curve"/>
      <point x="269" y="596"/>
      <point x="693" y="596"/>
      <point x="749" y="596" type="curve"/>
      <point x="739" y="478"/>
      <point x="711" y="350"/>
      <point x="654" y="262" type="curve"/>
      <point x="572" y="134"/>
      <point x="430" y="46"/>
      <point x="283" y="7" type="curve"/>
      <point x="351" y="-62" type="line"/>
      <point x="511" y="-10"/>
      <point x="648" y="92"/>
      <point x="729" y="220" type="curve"/>
      <point x="801" y="333"/>
      <point x="822" y="475"/>
      <point x="840" y="594" type="curve"/>
      <point x="842" y="604"/>
      <point x="849" y="630"/>
    </contour>
  </outline>
</glyph>
<glyph name="k-bopo" format="2">
  <advance width="1000" height="1000"/>
  <unicode hex="310E"/>
  <outline>
    <contour>
      <point x="260" y="385" type="curve"/>
      <point x="269" y="393"/>
      <point x="303" y="397"/>
      <point x="349" y="397" type="curve"/>
      <point x="709" y="397" type="line"/>
      <point x="677" y="180"/>
      <point x="644" y="75"/>
      <point x="601" y="42" type="curve"/>
      <point x="587" y="31"/>
      <point x="571" y="30"/>
      <point x="544" y="30" type="curve"/>
      <point x="512" y="30"/>
      <point x="431" y="32"/>
      <point x="349" y="39" type="curve"/>
      <point x="364" y="18"/>
      <point x="375" y="-13"/>
      <point x="377" y="-34" type="curve"/>
      <point x="453" y="-40"/>
      <point x="526" y="-41"/>
      <point x="564" y="-40" type="curve"/>
      <point x="609" y="-37"/>
      <point x="637" y="-31"/>
      <point x="664" y="-5" type="curve"/>
      <point x="718" y="42"/>
      <point x="753" y="159"/>
      <point x="792" y="432" type="curve"/>
      <point x="794" y="443"/>
      <point x="795" y="468"/>
      <point x="795" y="468" type="curve"/>
      <point x="343" y="468" type="line"/>
      <point x="388" y="528"/>
      <point x="433" y="603"/>
      <point x="469" y="677" type="curve"/>
      <point x="921" y="677" type="line"/>
      <point x="921" y="751" type="line"/>
      <point x="84" y="751" type="line"/>
      <point x="84" y="677" type="line"/>
      <point x="377" y="677" type="line"/>
      <point x="343" y="601"/>
      <point x="300" y="531"/>
      <point x="284" y="510" type="curve"/>
      <point x="266" y="484"/>
      <point x="250" y="466"/>
      <point x="234" y="462" type="curve"/>
      <point x="243" y="441"/>
      <point x="256" y="402"/>
    </contour>
  </outline>
</glyph>
<glyph name="j-bopo" format="2">
  <advance width="1000" height="1000"/>
  <unicode hex="3110"/>
  <outline>
    <contour>
      <point x="240" y="121" type="curve"/>
      <point x="270" y="140"/>
      <point x="313" y="155"/>
      <point x="666" y="243" type="curve"/>
      <point x="666" y="-58" type="line"/>
      <point x="743" y="-58" type="line"/>
      <point x="743" y="815" type="line"/>
      <point x="666" y="815" type="line"/>
      <point x="666" y="313" type="line"/>
      <point x="329" y="235" type="line"/>
      <point x="329" y="757" type="line"/>
      <point x="255" y="757" type="line"/>
      <point x="255" y="265" type="line"/>
      <point x="255" y="225"/>
      <point x="224" y="204"/>
      <point x="204" y="195" type="curve"/>
      <point x="218" y="176"/>
      <point x="235" y="142"/>
    </contour>
  </outline>
</glyph>
<glyph name="x-bopo" format="2">
  <advance width="1000" height="1000"/>
  <unicode hex="3112"/>
  <outline>
    <contour>
      <point x="91" y="732" type="line"/>
      <point x="91" y="657" type="line"/>
      <point x="460" y="657" type="line"/>
      <point x="460" y="-51" type="line"/>
      <point x="541" y="-51" type="line"/>
      <point x="541" y="657" type="line"/>
      <point x="913" y="657" type="line"/>
      <point x="913" y="732" type="line"/>
    </contour>
  </outline>
</glyph>
<glyph name="z-bopo" format="2">
  <advance width="1000" height="1000"/>
  <unicode hex="3117"/>
  <anchor x="960" y="0" name="Anchor_1"/>
  <anchor x="640" y="600" name="top"/>
  <anchor x="960" y="360" name="Anchor_3"/>
  <outline>
    <contour>
      <point x="120" y="736" type="line"/>
      <point x="120" y="663" type="line"/>
      <point x="406" y="663" type="line"/>
      <point x="406" y="-57" type="line"/>
      <point x="485" y="-57" type="line"/>
      <point x="485" y="663" type="line"/>
      <point x="801" y="663" type="line"/>
      <point x="789" y="414"/>
      <point x="774" y="316"/>
      <point x="751" y="292" type="curve"/>
      <point x="741" y="281"/>
      <point x="731" y="278"/>
      <point x="712" y="279" type="curve"/>
      <point x="691" y="279"/>
      <point x="638" y="279"/>
      <point x="582" y="284" type="curve"/>
      <point x="595" y="264"/>
      <point x="604" y="232"/>
      <point x="606" y="209" type="curve"/>
      <point x="660" y="207"/>
      <point x="714" y="205"/>
      <point x="744" y="208" type="curve"/>
      <point x="776" y="211"/>
      <point x="798" y="219"/>
      <point x="817" y="243" type="curve"/>
      <point x="850" y="280"/>
      <point x="865" y="392"/>
      <point x="879" y="699" type="curve"/>
      <point x="880" y="710"/>
      <point x="881" y="736"/>
      <point x="881" y="736" type="curve"/>
    </contour>
  </outline>
</glyph>
<glyph name="c-bopo" format="2">
  <advance width="1000" height="1000"/>
  <unicode hex="3118"/>
  <anchor x="960" y="0" name="Anchor_1"/>
  <anchor x="640" y="600" name="top"/>
  <anchor x="960" y="360" name="Anchor_3"/>
  <outline>
    <contour>
      <point x="271" y="278" type="curve"/>
      <point x="280" y="285"/>
      <point x="313" y="290"/>
      <point x="356" y="290" type="curve"/>
      <point x="692" y="290" type="line"/>
      <point x="651" y="175"/>
      <point x="583" y="42"/>
      <point x="527" y="-35" type="curve"/>
      <point x="546" y="-46"/>
      <point x="574" y="-66"/>
      <point x="589" y="-80" type="curve"/>
      <point x="662" y="22"/>
      <point x="749" y="186"/>
      <point x="793" y="338" type="curve"/>
      <point x="736" y="368" type="line"/>
      <point x="722" y="364" type="line"/>
      <point x="352" y="364" type="line"/>
      <point x="382" y="423"/>
      <point x="412" y="490"/>
      <point x="441" y="561" type="curve"/>
      <point x="934" y="561" type="line"/>
      <point x="934" y="635" type="line"/>
      <point x="469" y="635" type="line"/>
      <point x="492" y="697"/>
      <point x="513" y="760"/>
      <point x="531" y="823" type="curve"/>
      <point x="452" y="842" type="line"/>
      <point x="435" y="772"/>
      <point x="411" y="700"/>
      <point x="388" y="635" type="curve"/>
      <point x="63" y="635" type="line"/>
      <point x="63" y="561" type="line"/>
      <point x="360" y="561" type="line"/>
      <point x="337" y="504"/>
      <point x="317" y="460"/>
      <point x="307" y="440" type="curve"/>
      <point x="283" y="390"/>
      <point x="265" y="356"/>
      <point x="245" y="350" type="curve"/>
      <point x="254" y="331"/>
      <point x="266" y="294"/>
    </contour>
  </outline>
</glyph>
